<mxfile host="app.diagrams.net" agent="Mozilla/5.0 (Windows NT 10.0; Win64; x64) AppleWebKit/537.36 (KHTML, like Gecko) Chrome/134.0.0.0 Safari/537.36 Edg/134.0.0.0" version="26.2.6">
  <diagram name="Страница — 1" id="hmV0Um_DQoEpH6f-vNVH">
    <mxGraphModel dx="1036" dy="536" grid="1" gridSize="10" guides="1" tooltips="1" connect="1" arrows="1" fold="1" page="1" pageScale="1" pageWidth="827" pageHeight="1169" math="0" shadow="0">
      <root>
        <mxCell id="0" />
        <mxCell id="1" parent="0" />
        <mxCell id="WArYapITyBmNxevfJg8--1" value="" style="rounded=0;whiteSpace=wrap;html=1;" vertex="1" parent="1">
          <mxGeometry x="70" y="120" width="120" height="280" as="geometry" />
        </mxCell>
        <mxCell id="WArYapITyBmNxevfJg8--2" value="Source Layer" style="text;html=1;align=center;verticalAlign=middle;resizable=0;points=[];autosize=1;strokeColor=none;fillColor=none;" vertex="1" parent="1">
          <mxGeometry x="85" y="90" width="90" height="30" as="geometry" />
        </mxCell>
        <mxCell id="WArYapITyBmNxevfJg8--3" value="" style="shape=image;verticalLabelPosition=bottom;labelBackgroundColor=default;verticalAlign=top;aspect=fixed;imageAspect=0;image=https://upload.wikimedia.org/wikipedia/commons/6/60/Mediawiki_horiz.png;" vertex="1" parent="1">
          <mxGeometry x="74.62" y="210" width="110.76" height="47.9" as="geometry" />
        </mxCell>
        <mxCell id="WArYapITyBmNxevfJg8--4" value="" style="shape=image;verticalLabelPosition=bottom;labelBackgroundColor=default;verticalAlign=top;aspect=fixed;imageAspect=0;image=data:image/png,iVBORw0KGgoAAAANSUhEUgAAA68AAAOvCAIAAACs+mW+AAAAA3NCSVQICAjb4U/gAAFbZ0lEQVR42uyddXiUd9aGMzMhBKel3t12i5aWlnpxhyS4J7i7S6C4u0Nxd5cE1+AhbhP3ZNzdXtvrTSilFAkhMvLc1/NXr9399usmMzenz+8cNwYAAAAAAABXxQ1/CwAAAAAAAGwYAAAAAAAA2DAAAAAAAACwYQAAAAAAAGDDAAAAAAAAwIYBAAAAAACADQMAAAAAAAAbBgAAAAAAADYMAAAAAAAAbBgAAAAAAADYMAAAAAAAALBhAAAAAAAAYMMAAAAAAADAhgEAAAAAAIANAwAAAAAAABsGAAAAAAAANgwAAAAAAABsGAAAAAAAANgwAAAAAAAAsGEAAAAAAABgwwAAAAAAAMCGAQAAAAAAgA0DAAAAAAAAGwYAAAAAAAA2DAAAAAAAAGwYOCw0zdAUG4b+R+hC5gXwNxgAAAAAsGFglxpss1EalS092RwRbI58YomLsPKjnsWWFEdkpBBZ6UR2xtNIhKRSTqkUz0KqlfmhNCpaq6Z1GlqnoXQaUqcl9TrKoKcMBtpoZGMy0mYTG4uFtloZm422WWnCxpAETRI0RdI0RbNSXlDbxv98AABQ6pAMY6YoA0UZKdpK0RTN4NMZwIaBw0CZjOaoEO3uDco/RsvG+LIZ31c+od+zKCYPUkwfppwxQjljpHLGSMWMkYrZ45TzJyoXTHqapTNUK2apVs5ms3a+ZtNS7Zbl2j9XaLev0e7ZqN27Sbt3s/bwDt3xPfoTe/WnDxguHDUEHDdeO2e6ddF8+5LpzhXT/Zvm4LvmsIeWqBBrdBhr4fHRtmQ+kZpIpCURmamsi+dkEsIcUiqi5FJKKac0KkqnpYwG2mJmCIKhqKeD7by8VKlhzwAAUPTzFIZREWS43nRcrv5TpNguUQYotckmi5Gk8IkLYMPAET7FTEZL6H3lkuniLo0ETWoJGn5VmDSpJWhWR9j8azYtvxG2/k7Y5ntR2/oi759EPr+I2v8q6vCbuEsjcbcm4u5NxD2bS3q3lPi2kvTzkg7wkQ5sLx3cUTa0q2x4d9moXrKxfvJxfeT5/v3HaNXcCar5E1WLp6qXzVCvmq1et0CzeZlm22rNrvXa/Vt0h3boj+81nDlouHDMcPmM8UaA6c5l0/0b5uAgS/hja2y4NSHGlpJoy8kgxEJSIaM0aspsogmCJkk2FEX/w6H/8mYAAAAFVuFci+2gTDUgNffnmNQakcm1IpMbxaVPzhTd1xr1JIWPVAAbBnb+MUYT2emajUvEXZsImtQspAoXRxrXYP/75Bt2i7rCVt8KW9cTtq0v8vpB5PMzq9cdfxN1aiDq0kjcvamkR7M8vW7N6vWgDtKhXaQje7BWPXGAfOoQxYwRytljlQsmq5b6q5bPYkfXm5dpd65jTfrkfsOlU6agq+Yn9yzRodaUBCInk1TK/mHMedKMeTMAALxUhXMsto0ieRN+etXQBO5jvttjvlswnxfM/yQ8aVS6MERvNFMU/kYB2DCw4w8ywmZ6eFs2vp+gRV07UuF3SaPquXkRNKrBpnGNp2LdpKagaS1h09qCprUFLb5mR9cdfhN3bSzxbSUd1F42vBtrz1MHK2aOVM6fqFo+kx1Cb1+t3btZd2yP4cIxdur84JYl4rE1MdaWlUaIBKRMQipkbE9ap6UNerYGbbO+svQMAADOqMIyG7lHqmrCz6gQEu8WzH8h/41IWieUi6w2FCYAbBjYL5TZZAg4KRnYgXVE57DhokqTWsJW9YReP4o7N2CrHf28pEM7y0b3lk8eyA6b509SrZyt3rA4b8a83XDqgPHiSdOdy+bgO5aIYPbdYTKflWaJkFIraaOBttloinzJdBkAABxZhY/KNd4JWVVDEzj/UmG3YD43mD8oNTdCb7RiPAxgw8B+P87MJsOFY5IB7QVNa8GA38aVawpafsM2N9r/yvahezaX9GkrHdhBOrybfHw/tvE8Z5xqqb96wyLNjrXag9v1pw7kVTKumEPuW+OjbFlppExCmwxP+xjUP4vLAABg9yossREHZOp2CVnvvUKF89MxMeuORm8kYcMANgzsFsJmenBLPtZP2PxrOG6RNZ6b1WG7zq2/E3n9KGr/i6hzA3G3JhK/1pLBHaWje8mnDFbMHqNcPFW9eq5m+xrdsd3GK+fMj+5YE2NJiZhdP/dSRUZBGQBgNyossxH7ZOpW8ZmVQ+Jfo8JuwXyfxKxbatgwgA0Du/5Uo62ZKerVc8Wdfs9tXCMXLlvMnea8KjNbYhY2rcW2U1p/J+rUQNKnjXRYV/mkgYo541Qr/tBuW607stNw8aTp/g1rVKgtM4WQ5m131qrZdXJWC5NXukAvGQBQSipMHpZp2iZkVX7tVPipDSfAhgFsGNg9pNFgunddPn2YyOsHVtfgrKVuzK3qiTr+Ju7dUjqkk2ysr2LGSOVSf/XmZbr9W/VnDhlvBpqe3LPGRdrSk9nHfColbTYz6FoAAEpKhY/KNT4J2e+FJr5Rhd2C+Z0Ts4M0BhN6wwA2DOz7440m1UrT3WusELerDyG2Qz8Wtvha6PWDuEtDSe9WkoHtpaN6yacOUc6fqF49T/PnSu2BrYYLx013r1niIoncLFKjpqzWp9uU8/0YAACKQoVFVtseqapNfOZ7BZgK56dnUvZDHZasAdgwcAQhpgw688NbCgixY6Q6++qxRV1hm7xqcodfxb1aSAd1ZK8GzhylXDxN8+cK/ZlDpvs3bSkJ7KFsm+25IjL6FQCAQnxL0DIbsVuqasrPqPiyZWqvSu+k7MewYQAbBg7zYWcymB/cUs4ZL+rwKzrEju3KLb8Vd28qHdJZPmWIKl+OT+wz3b5siQ61ZaSyZ/lUCordaGHDBT4AQEFQ2cjTCq1XQmbl0ISCqzBsGMCGgQMKsdFgfnJPMX+iqMOv7G4EmKVzFC1afivu0kjS30c21k8xe6x61Rzt7g2G88fYckVEsDUtkZCKKZORJkk0jwEAL34v0LSaIM4ptd2Scj4IS+S+jQrDhgFsGDgklFFvDnukXDhV1OE3CLETpmktdvVbx98lvq2lgzvJJ/ZXzJ+k2bBYe3Cb4fIZS/hjIjudva5HEKgdAwAYhlESxAmFumNiVrXQt1Zh1oaTcx5rYcMANgwcTojNJktUqHIRhNjJk5t/cq/lN8J29UWdfpf4tZGN7q3wH6FaMUt3cJvp7jVbVhptMDAkybzQOQYAuAZqgjypeN21uTemX0puqN5kofC5AWDDwNGgrVZLRLByib+oUwMIsStepW7/i3RgB4X/cPXqeboDW43XzltjwmzZGaRcShl0bOGYQqcCACfHQJLX1PqeyTnVwhILp8JuwfwhaYIog9kKGwawYeCI5E+IVctnijpDiF04zeoIfX6W9GkrG9tHMX+iZtNS/dE9xpsXLRFPiOwMSq/NN2PcyQPAyTCS5C2NflCq4LPwJF5hVdgtmD8sTRBrMNtgwwA2DBwU2myyxEWqVs8TdWkEIUYEzesIvX4Ud2siHdxBPnmAask07c51hgvH2LaxSECZTPSzI3kAAEfGQJKXldo+KTmfRbyTCsOGAWwYOIUQ26yW+CjVytmiLg0FTWrCCJGneyqa1ha2/Ebk87O4Vwv56N7KeRO1O9eZbgYSqQmUWkVbzP84Hw0AcBxMJHVNpeuVnP1hWGGezcGGAWwYOCGU1fJXZaIhJsTIy9O4hsjrR2l/b8W0oZq1Cwwn95sf37Elx5NiIaXX0SSBmTEADqLC5AOtYUhq7ifhRaDCbsH84enCOKPFhl9/ABsGDi/EJpM5MkSJDjFSgNsfwrzbH7Lh3ZSzxrA941MHzA9v2dISKbWStlmfPr8DANgfFop6pDOMyRD+LzLZvShU2C2YPzZDmGiyEPitB7Bh4AxCjA4x8vYv8ETeP0l6tZSN6qmcN0GzbbUh8JQ1LpJUKf4+gwcAsBMVJql7WsOIdMH/IpPLFJEKuwXzJ2WK0sxWEr/sADYMnINnHWJxl0boECNvs7KtpqBFXZH3zxLfNvLx/VSr5hrOHma1WCmnLGa2R4GBMQClq8IU9UBnGJYu+E9EknvRqfBfNmyBDQPYMHAiIbZaLTHhqrXzxd2bQoiRQqbF1+LuTeUT+qlWzdGf3G9+dIdIT0KPAoDSwkiS97X6UemCLyLfdYPEvzM5U5xuwWwYwIaBkwmxxWxNiFFvXCzu3gxCjLxLhC3rirs3kY3qqVo0Vbtvs/H2JWtKAqXTMAQBJwagZLBQeQWJNOGXEUVZkHgW/2xxtsVK4TcawIaBk0FZrdaUePWWZeIezSHEyLvvoxC2qifu3FA2pDP78G77atPtK0RuJm02YVQMQHGr8B2NfnCa4L8Rye7FoMJuwfzZ2RKR1YZfYwAbBk4ITRDW5Hj1hiWsEDetBaVDikSL2dN33j9KBnZQzJugO7zDEvaIFAtpo4EmCDrv4h1+9QAoKswku0FiWBp7bY5bPCrsFsyfmyMV2wj83QawYeCkQmyz2lIStNvXSv3aCprVhswhRZmmtcSdG8hG9VKvmKU/td8c9pAQZFNGA02SmBYD8O5YKTrMYJqQWZTL1GDDADYMXBKSJLLSdPu2SPv7CJrVgcMhxdAt/lbco7l8Qn/1+oWG88cs0WGkUk7bbHBiAAoNQdPheuPUTFHtqBSPJ8Wowrxg/vwcicRmw99zABsGzgxNEkRupu7QDtmA9kIIMVJso2Kh148SvzbyKYO1f64wB10lxQLaZqWxtBiAt1fhUL1xYqaoZjGrsFswv0JIwjKBTIrZMIANA+eHIglBtu7ANumA9oLmX0PdkOI7dCdoUkvo9ZN0UEf1Un/92SPW+ChKKaOtZry3A6AgWCgqRG8cnyn8KrJYNki8kCqhCSsFMhlsGMCGgStAkyQhyNId3iEd1BFCjJTQ0uKezRXTh2l3rjPdvWrLSKb0WrSKAXjdVJiiY43m6VniGiWiwqwNh8CGAWwYuBQUSQiz9Sf2Sod2Fbb4BrqGlEiDorao42/SEd2VS6frTx+08qNIjZo9bgcnBuCFT2iaTjRaFuRI68Wkln1SEirsFsz/MCxxvUguhw0D2DBwrQmxRKg/uV82tIuweV24GlJil5+Fbb6T+LZSTBuq3bnWEv6I0qgZzIkBePbhzDCJJsvcHOm30ameT+JLRoXdgvmfhydtESsUsGEAGwYuNn+gSLFQd2SXdFBHYQsIMVLSrWJR+5/l4/tq9222hD0kxQLKbKQpCr+XwJUhKCrVZFmYI60bnepRUlPh/Pw3ImmrWKGEDQPYMHA9ISZJYbb+yE50iJHSuuIh6txANqGfZvMy082Ltux02mxkaDgxcEVImk43W9YI5T/FppXkVBg2DGDDwNXJe1SHDjFSuvWJWiKfn6XDu6lXzTFeOWvLSqNMJsyJgWt9FDNMlsW6XihvEJdeIaSkVdgtmF8jMnm3RKkiSPxvAWDDwFWFWCIynDksG94NlQmkFCvFonY/SPt7qxZONlw5S4hyaZuNzgO/pMDpVTjTYlsukP0Um1b+SSmosFsw/5uolIMytRo2DGDDwHU/iymKkIh0x/dKh3QRYEKMlO5Nu+ZfS/p5qVbPNd2+TORk5h95hhMDZ4Wg6TSzdZVQXj8mzaOUVNgtmP9ddOphuVoDGwawYeDSkCQhzNGfOiAd0V3QEkKMlLYTt/lOOqSTevVc49VztsxU2oQ+MXDGz12aSTNb1wjlv8SklSs9FXYL5v8cm3ZCrtHChgFsGLg6FEnKxPoLx2Wjewtb1WMf/kPLkNJ9Y+f1g3RIJ9WyGcar54ncLMpixpAYOA00w2RYbKuF8l9j0yqUqgq7BfMbxqWfVWh1JP7MCWDDANA0qZDrLxyXjuiJCTFiJ07Mrige2EG9YZE5/BGp1eCOHXAOFc622FYIZPVjSmGDxL/TmJ9xXqmDDQPYMAB/CbFcqj9zSDqyp6B1PUEjTIgRu1hRLPL5WT5xgO7QNis/ktJpcLMDOC4kTWearetFip9i08ragQq7BfOb8zMuqnR62DCADQPwFIoi5RLDlbOyKYOE7X6AECP2MycWd22knDfBEHDclpGMMjFw0KlwrtW2RaxsyC5TS7AHFXYL5rdLyLyu1hthwwA2DMA/lFirMd29Lp8xSuT9E4QYsZ+I2nwnHdieLRNfv0CKny5iwy8scBQVFtlsWyXKxnEZlUISOPahwm7BfJ/ErJuwYQAbBuAlQmzQm+7dkE8bKmpXH0KM2NcDuzbfSwd31O5YY4mNoPQ6XOsADvCJyjACq22DSPFLbFr5kHg3u1Fht2B+9+ScBzqjGb9HADYMwEs+vvVa441A+eTBIlQmEDssE3duqJgz1njpNJGbSVssaBIDu4Wk6WyL9U+x8re4dDvpCj8fv5TcJzqjBTYMYMMAvPxDXK003b2mmDVW5POLoFENSBhiX5uJW30rHdhes3mZOfQBqVKwGycAsD+kNmKXRNmUn14xxO5UOM+Gc2DDADYMwGuF2KA3Bwcp544XtYcQI3ZZnOj4m3zqEP3Zw7bcTNpmxZAY2BVakjwuV7dNyKwcGs+xPxV2C+YPSs2NNJisFH5xAGwYgFdDGfXmR3cUM0eLvH5EZQKxx7T4WtKnrWbjYkt0GGXQo0kM7AGaYTQkeUSmahOfUSU0wT5V2C2YPyJdEGc02/DHSAAbBuANQqzXme5ek08fjg4xYr8bJ3x+lvuPMFw6TQqyaSuaxKCUVVhhI0/LNV7xGZXssiDxLGMyhIkmC4HfFwAbBuCNkDqN6eFt5byJog6/ChqjMoHYZZrXkQ7upN2xxhoXSRn1NHYSg1JCTZBnFZouiVkfhCVw7ViF3YL5UzLF6WYrCRsGsGEACjQhNhnNIQ+V8yeLIcSI3aZpLXHXxsq54433blAaFYPWBChxjCR5Qantmpj9YViinauwWzDfP0ucbbXh9wTAhgEoKLTJaH58VzFrDDrEiD3vXxO2+lY21ld/5hCBp3WgJD8h857NnVNqOydmvx+ayLF7FXYP5v+RLcmx2PCIDsCGAXibCTF7mOM6K8Ttf8GEGLHfNKklGdRBu3ejNSmWMhnQmgAloMIqIm8qnJT9fpgDqLBbML9cSPy8HEmuxUrhT4wANgzAW0HqtaYn95WLp4k6/g4hRuy4NVFb3KuFetUcS9hDSqdFawIUK2qCOK/Q9EjO/sgRChL5qRKSsCRXJrTaYMMANgzA20+ITSZz+GPlommijr9BiBH7TaPqova/sLsmrpwlpSKaJPDLC4oDE0kGKLXdk3M+CncYFXYL5n8QlrhCIBPZbHBhABsGoLBCHPpQOW8CDnMg9n61ruU3stG9DYEnCImIIggaYzBQdNAMoyPJiyptt+Tsag5SkHiWj8KSVgvlYhuBXwkAGwag0EJsNIc8UC3/Q9ytqaBpLVgXYsdCXFc2qqf2yA5rWiJtNuNdHSgqFVYRZIBK2yM55wNHU2G3YP5n4UnrRXKJ1YY/IgLYMADv8GVgNtkSYzV/rpT0biVoWhvWhdhvmtUR+7ZSb1pm4UdSJiOEGLw7BpIMVGl7Jmd/7FAFiWf5MiJ5i1gpteEfmADYMADvCEEQacnaTcsk3ZsJmmBCjNh1jVjcrYl6wyJLHIQYvCtWirqm1vVKznFQFXYL5teOStkhUcrRlACwYQCKRIitiXHqNfPFXRsLmtSEdSH2m8Y1xF0bq9cvssZF0EY9g81r4O2haVpPENfVut7JjnFi41X5Jiplj0SpgA0D2DAARfP1YLNa46PVGxaJe7UQNENlArHr8xyizg1VS/0twXcpjRqb18DboiXIq2pdn5Scj8OTHFeF3YL530enHpCqlAQJGwawYQCKCJvNlhKv3bFG0qetoHkdWBdizxF5/aCcM9b04CapUdEQYlBgLBR1U6Pvnyr4LDyJ58gq7BbM/zk27ahMrUJvGMCGAShKCILITNPuXCfxa41HdYi9C3G7H5Szxpgf3aZ0GlQmQEGgGCZYZxya5gwq7BbMbxyXflah0WI2DGDDABQtNEnaMlI021aLsWUCsf/Na+3qK+eOszwOonUaVCbA6zFTVKjeNCZd+J8IZ1Bht2B+C35mgFKrI2HDADYMQNELMWFLT9bsWi/p207QDJUJxN4rE6q54ywPblAaJYQYvAoTST3WGseni76KTHZ3ChV2C+a3ic+8rNLpSQo2DGDDABSLEBNZadq9m6T9vIXNv4ZyIfYuxHPGWh7cpDUqCDH4NyRNhxtMk7PENSNTPJxFhd2C+T6JWTc0egNJojcMYMMAFNMXCElkZ2i3r5X0aolLdYi9C7H3j5p5421P7tJ6LTrE4Hkomo4zmqdni2tGpZRxIhV2C+Z3TsoO0hpM+BMggA0DUJwTYtKamqjZvEzSsyU6xIidR9LhZ91yfyLiESvE8AOQh4WiYozmGdniGlHOU5B4lp7JOQ+1BjN+2gFsGIDinhDb0hI1O9dJ+nsLm9eFciH2fKlO2rWBYfUMMuwercUeYsCqcITBNCNLXNvppsJuwXxuMN8vJfeJzmRBbRjAhgEo/gkxQWSn6w5vlw7uKGiBDjFi15fqZF0bGFf5U2H3GGyZcG0omonKK0h8HZ3q8STezels2D2YPzA1N1RvsuDnHMCGASgRISYJYY720DZJP29smUDseudakxqKno3N62dTMcGMUYcOsWtC5nWF/dmucLLzTYXzUy4kfmS6MMpgtmI2DGDDAJTUpIUicjO1+zZL+vsIUJlA7PlFXbPa6v6tbVsX0VGPGR0qEy6HhaKijKbpWaIakU7YFX6WSiEJ4zJEMbBhABsGoKSFWJClO7ZbNqKHsHU9QaPqEC/EPiNt+61+eHty60I67B7D7iEm8evrOirMdoWzJXWiU8o8cVoVdgvmVwlJmJghijOabbBhABsGoISFmJQIDeeOykb1EraqJ2gIIUbstEAsb/+jeVxXavsiJvwuo8UeYtf4fKLpGKN5Zrb466iUss7YFX4+1cIS/bMkiSaLDcuGAWwYgFIQYrlUf+awdEgXPKpD7LdA3LSmunsD2+Se9I7FTNQjRo9HdU4OyTDpFuu8XOnX0SkeTj0Vzs9HYYlzsiUpJgsBGwawYQBK54tHJtGd3C8d0UOAygRitxuIW9bV9W1OTPejty1ggm8ySilDEAzUwRmx0XSiybIgV/pNdGoZF1Bht2D+Z+FJi3Kk6WYrbBjAhgEoTSE2XDqtmDRQ1O4HCDFinxuI5e1/MA/zoqb7Mhv/YO4GMjIhQ9ggxM6nwjFG8/xc6bcuo8JuwfwvIpJXCuTZFhuJn2cAGwagNIVYqTBeC5BPGihs8z2EGLHT/RI9G9nGdqJn9mHWz2DuXWInxHhU50TQDJNgsszNkXwTnVLWZVTYLZj/VUTyeqFCABsGsGEASvl7iKIotcp47bxsXB88qkPsdL9Eu+8Mg1qTk7vTf/RjNs1iHl1n1HKGJDEhdoY/kNO0xGpbJ5J/H5PqUirsFsyvEZm8WaQQWWwUfpIBbBiA0v9CUiuNV87JJw0Uta2PCTFif/c4aqq6/W4d05Ge1ovJF+K7gYxUwFYmGGiEY6twtsX2p0jRIDatnLNvkPh36kSl7JAopTYCNgxgwwDYx9eSRmW8HiifPFjUDkKM2N9zulZ19f1akBO70dN7M2xlwp+5fZ6R5DI2dIgd9jOHYbIsti1iZaO49AohLqfCbsH8etGpB2QqFUHiJxjAhgGwpwnx1fOy8X2Frb9DZQKxu+d0HX40j/Chp/Zi/H2Zmf2Ydf7MnQvsozqSwC+vw0HTtMhq+1OsaBSXUSkknuN6KuwWzP8xNu2YXKMhUIIHsGEA7Of7iaIolcJw6bR0VC9By29hYIh9PadrXlvr14SY2JUdD/v7spWJ9f7MvYuMQoK1a44FxTBKgtwrUzXlZ1R0yamwWzCfG8xvEJd+Wq7RwoYBbBgAu5sQqxTGy2flWLuG2N14+Ct2PDzcm5rSk5numzchzq9MnGMrE+gQO8onDMPkWm27pKrmrAonuKYKuwXzecH8FvEZAUqtnoQNA9gwAHY4udGoTLcuyf1HCL1/ghAj9hNxizq6Ps3+Hg/nC/Haacyts4wkh7FZMSG2988Wms612rZLXHoqnB/3J/FeCVlXVToDiQuLADYMgB1C05RWbb53QzF9mLAt9hAjdpPG1ZWdfraMbP+0PZyfP/7qEMvFDMZsdv25QitsxB6pqhk/o3JoAseFVdgtmO/xJL5zUvZtjd6Ie+MANgyA3X5xkTqtKeiqfOoQCDFiV8slDANaUpO7M8/Gw88qE/cu5QkxKhN2ORVmGJnNtv9pQcKlp8L5KRsS75eS+0BrMMGGAWwYALv+AtPnCfGMESJUJhB7GQ/XUHf/nT1NN+05G35Wmbh5hhFlozJhb5AMI7Da9rh8V/j5eIbED0rNDdEZLbBhABsGwAGE+P4NxZzxog6/5jaukQsbQ0r9NF2bb02D27Bv6Z63YX9fZoYfs3oKc+0kI8xibBYIsb18htC00GrdLVW2jEdB4u+UD4kflS6INpqs+EEFsGEA7B2apvQ6c9hD5bwJmBAjdjIe1vRsREzoQk/v/aIQz+zDrJrCXD/NSATYQ2wfnx9sV3ifVN0yPrNKaDxU+FkqhCRMzhIlmiw22DCADQPgGF9pZpMl7JFywWRRx98ETWpCyJDSjcy7vmmYFzX1X+PhfCFePZm5cZqdEFsxIS7VqTDDyG3EfqmqRXxGJUyF/5lKIQl/ZEvSzVYSP6IANgyAwwix1WKJeKJa/oe4axNBk1oQMqR0L3Ho/Jr+Y9XaC5WJFROY83uZtHjGbIQQl5YKi23EARk7FcazuX+nckjCwhxprsVG4ecTwIYBcKwJsTUmTL1mrrhbUwgxUrplCWXnXyyjOtDTer3EhvOzZDRzdjeTkchYzBDikkdqs+2XqdqwBQlMhV+SKqEJKwQyqY3AjyaADQPgaPMes8kSH61aMUvUqYGgcQ1oGVJqb+na1jMMav3iqrV/xI8V4vN7mZw0xmbDL29JYqSoY3J1m4TMqlDhV+STsMRNIoXChnY7gA0D4IgTYpvNGhelWjlL3LUxJsRI6ZUl6mj9mhITXlGWeH5CfGE/k5XMWEyYEJcMBpIMVGk7JmZVwTK1V6dWVMoeqUpF4F4MgA0D4LhCzI9Sr5kn6oYOMVJ6ZYkuv76hLJGfpaOZ0zuYlFjGZIAQFzcagryi1vVMyq4Wmoip8GtSPybtqFytgQ0D2DAAjgtltVhiwlUrZ4m6NMQeYqR0Nkt4fWcc0vYli4f/ncUjmZPbmNQ4xowJcTGiI1kV7puS+0l4EhfK+9o0jEs/q9DqcEscwIYBcOwJsdlsiYtULZ8h6vg7hBgp+Yhb1NH3a0FOek11+LkO8aKRzImtTHo8Y8WjumLBQlHX1Dq/PBXmBWOJxBvSOj7zikpnIHGIDsCGAXB0IbbZLLGRqlVzxKhMIKVyhqNHQ2JcF/rNNpyXhcNZIX5amYCFFCUGkryl0fdLzf0oLBFT4YKka1L2PY3BBBsGsGEAnAGCYB/VrV0g7tFc0BRCjJRo5O1/MI/wpqf2LJANPxXiP5nkGHSIixAtSV7X6PunoiDxFumXkhumN1oo2DCADQPgHBNii9kaH63euBhCjJR8WcIwoAU1pUdBbfjvDnE89hAXCSaKuqXRD0wTfBaRxIPmFjij0oXxRpxlBrBhAJxJiK1WW2qCZv1CcbfGON2MlFwafaXp1ZCYUOCyxLMO8ant7GEOdIjf8Z8M0fRjvXFYuuDziCR3dIXfJlOzxJkWKw7RAdgwAM4lxCRpTY5Xb1gs7tlc2Kw2RA0pmSg6/WQd3f7Ne9ZeyKIRrBCnxDJGPYN/Wl0ojCT1UGcclSH8b2QypsJvFV4wf06ORGi10rBhABsGwAmFOClWs2mJpHdLQVMIMVIiR+na1TMNbUMVvDr8vBAf3czEhzMGHR7VvS16kryt0Q9JE3wejoJEYc4yrxTIZDhEB2DDADgllNViS4nX7Fov8WuDDjFSMkfpCrxn7V9ZMJw5uI5JiMCjurfCRLJd4cGpgv9AhQuVT8OTNotxlhnAhgFwYkiSEGRp926S9GknaFYHuoYUa4RNa2p6NSLGv1V1+LnMG8ocWs8kRkKIC4iVou9rjexUOP/Z3GPY7VunZmTybokSZ5kBbBgAZ4amaUKQrT24TTqoo6BFXRgbUtwnmq2jO751dfhvIR7CHFrHxIUwOjU6xG+cCt/VGoamCz+PQFe48Pk5Nu2EXK2FDQPYMABOL8S23Ezt4R3SIZ0FLb6BtCHFt1ZC0fFHy0ifwttw/oR470om8gGjVUGIX4WRpO5pDUPTcj8Lx4mNd0rL+MxLahyiA7BhAFxBiEmCEGbrT+xlJ8TNauN0M1JMkXl9bxrarjAP6Z7P3MHMrqVM1CPGoMWjun9jpaiHOsOodOEX2CDxzumUlB2kNZjw5y4AGwbAJaBIUirSHd8rGdRR0PxreBtSHJG0+cYwoBU5qXshq8PPMmcgs2sJE/mQ0WkwIX4egqYjDaYJGcL/RSa7Q2ffOb2Tcx7rjGb8jAHYMACuAykT647vlQ7rKmz5raBhddgbUuQX6XR9mhETu76rDfv7MrP6MzuXMGF3GbWcIQm8q2MYxkbTsUbz9CxxdahwEWVYuiDWaMYhOgAbBsDFhFiUqz+xTzqsKzrESNEvWWtaK2+tROcisOH8CfG2BUzwDUYpZUhXf+dko+hog/mPLHHtyOQyENmiiHswf1KGMMVkIWDDADYMgIvpMEmKBfqT+9EhRophrUR1VfffrGM70dOKwob9fZnZA5jNc5gntxiN0pUrEwRF8Y2m2dnir6OSPZ5AZIsmlUMS5mZLMs1WEjYMYMMAuBwURUrF+uP7pEO6YEKMFPV95p+tozu801qJF/JHP2bLXFaIXbUyQVBUksm8IFf6bUwqVLgI83FY4jKBLMcCGwawYQBcdkYsFRtOHZCN6CFs9S0cDimqyNv/YB7hTU8tOhv292Vm9mW2zmeCbzEqmasJMUHTiSbLwlzpt9FQ4SLO/yKSNojkIquNgg0D2DAArjshFgn0pw7IhncTtsSEGCmaSNt9VwRL1l5amdi2gHlym50QU67SISYoKsFkXpQr/S4mtSxUuKhTNyplp1gphQ0D2DAArj0fZjvEhgvHpMO7CZrVQYcYKYIla63qGge1pqb0KGIbZoV4IPPnPCYsiF275gJ7iCmGybBYlwtkP8SkeT6Jh7wWeX6JTTsqUyttBA0bBrBhAFx9QqyS688dkY7ojrVrSJEsWTP0b0lNLgYbZteu9WMrE+yEWOHclQmSYbIttvUi+S+xaeWgwsWTZvyM80qthiBhwwA2DABgSLnUcP6YbIyfsPV3gkYQYuSdlqzp+zanJncvFhvO7xBvmcc8usYoxAxhc0ohJmg62WRZKZBBhYsvnGC+T0LWdbXeABsGsGEAwNMJsUxiCDghG+snbF0PSocUPo2q63ybksVnw/mHOTbPYu5dYuQS59tDTNB0gsmyOFdWPybNMwQqXFwpk3eI7gHOMgPYMADgGTRJEgqZ8c5V+aSBwlYQYqTw0fZqRE7sxkzvXYxC/Ec/Zp0/8/AaW5lwIpshaTrNbFmSK/k+JsUTz+aKM+VD4genCkL1JgtsGMCGAQD/mBGbTKa71xXTh4u8fsxtVB3v6pBCRN2jATG+C12sNuzvy8zow2yYwTy4wigkDOEMHWKSpjPM1lVC2Y94Nlf8qRqaMC5DFG0wWynUJABsGADwghDrdaaga4oZI0U+P6FDjBQiqq5Feo7u9UK88Q8mKJCR5DI2q0MLMckwKWbLcgGrwuVQkCiR0xuzsiRJJosNpWEAGwYAvAhNk2oVK8TThwnb1ocQI6V/ju71WybWz2BunmWFmCQc9Y+gDJNusa7IX6YGFS6RfBGRtDxXmmm2ELBhABsGALzsy5kitRpz8F3FjJEQYuStbbjDT5aR7UvIhvO3TKycxFw/zUiFjijENMOIbLaNIvkvMdggUXKpGZm8SSQX4vQGgA0DAF73JW21mB8FKWaPE3X4RdCkJiQPKc3jzG/MyknMtROMIJOxWhyoMkHSdK7FulWsaBiXXh4qXIL5Njplj0Qpx+kNABsGALxhRmzQmx7dUcwdL+rwa27jGnhUhxQkMu/vTcO8iv4485uFeCJz6TCTneooQkwzTK7VtlmsaBCXXiEkAYZaksuGf4tNOynXaAkSn/MANgwAeP3XNU3pdebge8rZY0VeP6Iygdi1Dc/sw6yYyAQeZHLTGJvN7n+3aInVtkuiasLPqICucMnGPZjfOj7zkkqnJ7FeDcCGAQAF+dI2Gi2hj5Rzxom8f8LaNeSNkbarZxrathRsmN0y4ccsHcMKsSDDnrdM0DStsBGHZOrW8ZmVQ+M5MNSSjUdIfPfk7CCNwQgbBrBhAEBBv7ytFvOTe4p548UdfkWHGHl9JG2+MQ5uQ00pDRvOz/KxbGUiJ42x2GNlIl+Fj8nV3glZVUMToMIlH8+Q+MFpgjADTm8A2DAA4K2+wo0G8+MgxdwJog6/ChrXgPMh9mvDM/qwHeLLR5jcdMZqXxNimqZlVtthmdoLKlx6qRASPz5DyDeasWwYwIYBAG/3NZ7fIVbMHCVsh7VriB3bcP7atVUTmcuH2S0ThB11iFU28phcAxUu3VQKSZiTLckwW0nYMIANAwDeeq5lNFrCHysXTRF1/A2VCcR+bTj/Ud3ycWyHOCfNTibEaoI8q9B0Ssx6DypcqvkgLHG1UCax2rBeDcCGAQCFUmKSsESHqpb6i7o0hBAj9mvD+Vk6lgk4wGSlMBZzKQoxTdNqgjiv0HZNzP4gLJELJS3VfBWRvEOsVNqwXg3AhgEAhYUymcwRj5VL/cWdG6BDjNi1Dfv7McvHM+f3MZlJpbWHOP/Z3Am5pnMSVNgu8kNM2jG5RoNlwwA2DAB4l293ymg0R4Uol88UdW4IIUbsZcPaqx7VLR3DnN7JZCSxa9dKHCVBHpdr2idmvR+aiIKEPaR1fOYVlc6A9WoANgwAeNcJsdViTY5Xb1oq7tlC0LQWLBB5en3D63vTsHZ2ZMP5e4gXjWTO7GIyk0t4QqwmyDNsVzgbKmw/6ZOcE6IzYr0agA0DAIpmSmxNSVBvWSbu3UrQrA5EECnNW3RvzJLRzPm9TEYiYzGWjBCrCRJdYTvM2AxhkslC4AkdgA0DAIrGh21Wa1KcetMycc/meFSH5NlwfTu14Rl5WyZO72BSYhlzsQuxykaeVmi7JOVAhe0qvGD+rBxJrhW7hgFsGABQhEJstVrTEjVbV0p6toAQI/L2P5pH+NBTe9mdDeevXVs0gjm4lkkIZ0yG4hNiHUmeVWo7oiBhf3kvLGGNUC63EfjoBrBhAECRCjFJ2rLSNDvXSfq0FTRHZcKlo+j0i3V0R3qaXdpwfuYOYg6sZvhhjEHHFEN5VEeSV9X6XinsVBgqbG+pFZWyR6pSYaEEgA0DAIoeirJlpGh3rZP29RI0/xpS6LJRdvnVOsa+bdjfl5k3lDm4nokLZfTaohXifBXum5L7SXgSChJ2mN/j0s4oNDoSNgxgwwCA4pgQ22y2tCTtrnUS39aCJtgy4aJRdfvNOq4TPb23Xduwvy+zYDizfw0TF8IYdUVVmdCR5EWl1jclBypst/FJyLql0RuxUALAhgEAxSfERFa6dtcGSW8IsYtG3aMBMaGLA9gwW5kYzOxZzsQ+YSsT9LvqkYWigrSGfik5H+HZnB1nQGpuuMFkpfCGDsCGAQDFB0UROZna3RvQIXbNaHs1Jid2YxzChv19mdkDmL0rWCF+t8qEiSQfa/Wj04X/jUjiQTrtNe7B/ImZomSsVwOwYQBACQhxfodY0retoFltCKILpXENnV9TcnJ3x1DhZxPiA2uY2BBGrymcEFso6rHOMC5d+FVEcpngeEinHS+USFyQK82yWEnYMIANAwCKG7ZDnJ6i2ble4tsGlQnXibBpLV3f5g5mw/6+zPyhzL5VhatMmEkqSGMYkSb8klVhGKdd58uIpPUiuchKoCgBYMMAgBIRYoJgKxN7NuJRnetE1LyOvn8LanIPB7Nhf19mziBm52Im6hFj0BZciG0UFaIzjEjL/TwcBQkHyPcxqfukKjlBQoYBbBgAUFJCTNO2nEzNvi2SAe0FzetCFp0+ktZ1jYNaU1Mc0Ib9fZk/+jG7lzHRjxhdgSoTVpqOMpimZYlqRCa7wzUdIU35GecUWg1B0mhKANgwAKDkhJgkbTmZ2kPbWSFuhj3ETh5pu3qmoW3t8SxzwSfEe1cyMcFv7BBbSSpCb5qeJaodmewB0XSEcIP5nZOyb2sMRhLr1QBsGABQwkKcV5nQHdou7e8jaFo7F9bovJF5f28a5uXANswe5hjCCnH049cIsZWinugMkzJEtaJSPJ5ANB0jZZ/E90/NfaI3mrFsGMCGAQClMSEmCJFAd3K/dEgXVCacOPL2P5pH+NBTezmwDedPiLcvZMLvsUL8rw6xjaJCdcbxGcKvIvFszpFSOSRhbIYo2mDGsmEAGwYAlBqkQmY4d1Q2qrewVT1Bw+pwRyc8y9z5Z+voDvZ+lrmAHeKdS5iIB4xGxVB/X/HN7wpPzfyrK/wYlukw+TAscVa2JNlksaE0DGDDAIBSg6JIucQQeFI22lfY8puC2FUum+q5jfLSsDpaFnadRtXZs8xjO9HTeju8DedPiHcvY8LuMWpFvhBb2Q0SximZ4tooSDhgvohIXi2U51psWDYMYMMAgFIXYqnx0hnZ6N6CFt/kvlqCcxpVT2peL8SrSVCndje7+Nzu7PXIp3lMq5/Tmnyd3ahGDuTYHpcN11T3bGgb15me7hQ2zB7mGMRsnc88usoopTaSeKw3jkFBwmFTJyplt1SlsBFYKAFgwwAAOxBitcp45axsfF9h6++er0xkN6ye1rROiFfjQwOHzZu+etjiIz3XXuq48ZbPpjsdNt3utv5qn5XnRyw6NHf66n2DRwd1asdv+UN6k9rZjarnwIztYtlwba1fE2JCV+exYX9fZlZ/Zt10MiggLidrclru/7BMzTHDCeb/Fpt2WqHRkiQ+gwFsGABgH0qsURmvnpNPGihqW1/ADnq/Smpe71q3TivHzx+w/FSD3dH/Pa2octFW8TJd8QrzfKpcJP57WvHLXn7HjbfGLNi3duyss75+j32aJTWvl92oBpy4NJcNt6yr79eCnNjNqWyYjZ9h7fTT54+1uv+kwuNYmKUjhhfM75CYdVOtx3o1ABsGANgLNEWRSrnx6nnZxP6CtvUj2/6+a9i4vivPfXMks1qA+d8S/NJ8dMHw7eHMNn8+HLHo0MoJ88/5+ka3+TWzcS04cenYcJtvDQNbU5O7M85mw76WmX1DVkwdevzIx0HBXAixA6bMk/gBqbmheqMF69UAbBgAYE/zYYpUyY03L8bPmrrGf0XrrY8+O6uudJkqiAe/MC3+7Kz6m8MZ3puDps7acrzfwOg2v2Q1rgknLullw17fGYe0pab0ZKb7OpkNM/6+hj/6Bayb2/ZCQPkHkZBLh4vHk/gpmeIUs4VAaRjAhgEA9uXDJCVVaDffTGh8KuvDAGMBR8Ivz2X6vUDLl6dkTXeGjVp04MDgERFtG2BOXOLLhr0d+/TGq0P7+ypmD1q3c33d63fcH8XALx0rlUITlgpkYhsBFwawYQCAHUHSjMDE7Mpimj9iql1jCu/BL2tQNNodNWHerkMDhoa1a5DRGAfwij+Nqyu7/OIky4ZfnaglEwacOPr+vTC3x3FQTAdK9ciUnRKVisATOgAbBgDYz1SYZnLNzM4spuVj5qPrRanC+al0ifzvaWXLbcHT/9h8sm9/tjvRCN2J4lyv1riGukcD29jOTrJs+BVRzxqwfse6uteDMB52rLSIz7yo0unxhA7AhgEAdgJNM1ILsyubaR3MfHydqXSl6G04P+9dtFY/IfbefHfppEX3O7TCkLgY16s1rant3djZ1qv9K7YZfa6smd32fED5B1FQTAdKv5TcMDyhA7BhAID9TIXlFmZPNtOqeKbC/+4Tvx9ornc43W/VhX2DR0e1+S0TD+yKZ9mwvm9zclI3xqltmPL3jcwrS7yHsoTjhBvMn54lzjRbKTyhA7BhAECpQ9KM0MSqcMvHzIfXil+Fn58TB1qb7AyfO3311e6dkprXy3nu6gdSFOvVvjEOasMulHBeFc5P6sJRkw7t+ez2Y6xac5RUCU1YJZTLbAQ+gQFsGABQ+lNhoZnZm820CS6RqfBLdrHZvj6a3XfFmZ3DJ4S3a5jdqCYstsjWq3nXNw3zctaFEs8nd97weXu3Vb95n/cINuwYqR2VsleKJ3QANgwAKG1omlFYmH05jFcw8+mNYuwKv+F13WXq03PaxrsiZ81Yd7OLT2rTr9GaKJIoOv3s9Asl8iOaO2zJni21btzDQzpHSXN+RqBSq8dNZgAbBgCUpgozjMyaNxV+XLzP5go6JL5E1DmaM2LRoVN9+sa3rJ/TCK2Jd426RwNifBfnfkL3lw0PXbpnc+0bd2HDDhFOMN8vJfeJDk/oAGwYAFB6UDQjMTP7spnWJd4Vfv2Q+MvT8m7rrm4ZNTXYu2lGE6ybeIf1ak1r6fo2Iyd3d3oVzp8NL8Zs2HHiGRI/IVOUYLLY8IQOwIYBAKUzFaYZqZk5mFeQ+MQOpsIv5OPz+oa7o2b7r73VpX1q028gxO/whK41NaWHK9hwzrzhs/dt/+rmA/SGHSIfhSUuzJVmWKwkbBjAhgEApYLWxhzJYdo/YT61PxV+9rSu7pHMYYuPnOw7IKHF9zmw28LcZP7BPMKHntrLFWw4bcGoKQd3/wc7JRwkX0elbBUrRVYb1qsB2DAAoDRUmGBOCJn2IcwnN+xUhZ+1Jv57Rtlj7eWDA4fHtPopq1ENDInfrjTc7TfbuE6uUBqm/X3jFo8beuxwtbsh2DfsEGnETz+p0KgIgoYNA9gwAKCE0RDMBTHTJbQ0N0i8VT49p23754M142Y/9mma0bgWhLigpeEmNbS+jYmJ3VzBhkl/vwcrpnU9c6bi/QiIpv3HPZjfMTHrpkZvxE1mABsGAJQwOoK5ImX6RDBf3HIMFc7P+wGWRrsil01a9Kh9C5xxLmDELero+7cgJ3VnXMCGLTP6ntmwoFngJc+HuMzsAKkYkjAkTRCKm8wANgwAKGFsFHNdxvSPZP53i6nsOCqcn2oB5h/3J0//Y/PtLl4ZTWpDdt8Yabt6xsFtXOQJnf6P/ht3rKt7PQgLJRzlCd2sbEmyGQslAGwYAFCC6AnmhozpF8F8cdORpsIvpOYx4egF+wN79Uhu/i0mxG+4u9HhJ4vLPKHLmTd84uE9HwU9QWnYIfJVRPIGsUKIJ3QANgwAKDF0xNOp8JeOrML5qX5CMmzJkXO+vonNv8tpiPMcr0jjGqpuv1vHdnKFK3S0v+/dldM7njtX4UEkRNMh7m78FJN2VKZWEyRcGMCGAQAlgYFkbsqZIVFMdQcsSLxk0cQlquZx4cBlJ874+SVhQvyKiJrX1vo2cZErdOaZfTZvX/M1ahIOEl4wv31C1k01ntAB2DAAoEQgKOaeghkazdS4zVS56vAqnJ/Kl8gvTst6rQ443ndAYvN6EOKX3N1oXdcwoCU5qbsr2HDWvBFjj+yvdjcUNQmHSJlg/tBUQaTeZKUwGgawYQBAMWMimQdKZkQMU/22M0yF/715rfP663sHj4pp9VN2w+pw4ucj865vGtqOmtrT6VWY8Pc7v35+c2yTcJxUCEmYnS3JNFtwhQ7AhgEAxYueZO4qmOHRzqnCzw44d9pwY+/g0TGtfs5Gh/jv0nB1ZaefLaPau0JpWDpn8Ly9W7+89RAn6BwlX0Qk/ylWym0EXBjAhgEAxYiRZG4p2KlwzTtM5avOqcJsLtOfn1F13HBr/6CR/Jb1cb35r7sbNTU9GxLjOzt9TYLw93u4Ylqv0yer3AtHTcJR0pSfEajS6VEaBrBhAEDxQVDMfaWzdYVfI8Qfn9N7b7q7d/BofssfsGUi7wldHX0/l7i7oZg9aPP21fWv3CzzMBqW6SgZkJobbkBpGMCGAQDFhp5gCxLO2hV+9W0Ok8+mO3uGjI5t9ROEWNqunmloW6cvDVP+vlFLJww7fujDoCccDIYdJJ4h8bNzJNkWKzYNA9gwAKBYMJLMHTk7FXYpFc7PJ+e03dZeOTxgaHyL+i4uxMpOP1tHd3D60rBhZr9Dm5c0uHS1LN7POU6+jEzeLlEqCQIf1wA2DAAoeswk81DBjIlhajl3V/hVe4gvU1+clvutPHfar09Ks29yXfjuhqZXY2JCV+cuDdP+vhFLJw49dugjDIYdKk346ReUWpSGAWwYAFD0kDQTpmbGxzJ17jBVXU+Fnwnxf08rBi89frFn99SmdV1TiMUtvzYMaEVN7uHkg+E/+q3fsQ4XNxwsj/l9knNCdEYLBRsGsGEAQJFiIVkVnhTH1Ha9gsS/8+Up2YhFBy/26p7czBUv1cnb/2Ae4U07dWmY8PcLXj6lx5lTFe9HQDEdKBVDEqZlipNNFgKlYQAbBgAUIVaKidQwk/lQ4b9T85hgzIJ9F3t2c7nKROMamh4NiHFOvlstZ97wRXu21L5xF4Nhh9s0vFooz7XacHcDwIYBAEUGSTN8HTMnkal31wWWqb3N6eavj2T7/7HpXsc2mY1rudJutdr6vs3ISd2ceLeacWa/c+vnt70QwA6G0Rh2qPwQk3ZQqlLYCBo2DGDDAICiUuEUPbMwifnxHvP+NUjwP1LlIvHT/sQVExaEejXKalQj12V2qxkHt2FLw05qw5S/b+KiMZMP7fnv7Uc4PudYcQ/meydkXlXpDHhCB2DDAIAiwUYx8VpmUTLz0z3mPUyFX5aqF22/74lZNnHhY5+mmY1ruoIQK5z9ILN61sC9W5b/fumaJ7aqOVoqhSQMTROE6vGEDsCGAQBFAUEx8TpmQd5UGCr82gmxrdGuiPVjZka0bZDdqIaTH2RuWlPdo6FtbGd6mnMOhi0z+9xYPbPH6VPv3w3DVjWHy0dhifNzJOlmK57QAdgwAOBdYQsSBmYppsIFy4fnDe033t4/eKTT320Wt6ij69uMmOicm4ZptiMxevKh3ehIOGhqR6XsECvlNgIuDGDDAIB3VeFMI7MqjfntAfM+VLgguUx/dlbdZ9W5c769nXsJsbRtPePgttSUnk6pworZg/7ctvrHKzc8HkbDLB0xzfmZgezdDRIf4wA2DAAoPATFJOmZFanM7/eZang29zb530np6AX7rnbvnNr0a+cU4kbVFR1/sox0ztKwcWa/y2tndzp7tsq9cOyRcNAMShNEGcxWCqNhABsGALyDCifqmcXJzC9Q4UKcqbtE1T6aM3n2tltdvNOb1Ml1wtJwLU2vRsSELs5Xk6D9fWMXjx93eN9/bj/ioSPhsE/oFuZKBVYbZBjAhgEAhYRimDQDsywFKvxOS4h/3J+4bOLCUK/GzveiTtK6rmFgK2qKEx5kFs8ZumrXxm+u3fHArQ2HTb3o1ENytYZATQLAhgEAhYKkmSwTswZd4XdOtQBz260Pdg4bH9v6Jyd7Uafo8JNlpI/z1STUswbu37Ks4aWr5bBSzWHDCeb3TM55qDOasVsNwIYBAIWAoNgNEqvSmN8fYCpcBPnkvLbXmsCTffolNa+X60wHmXs6YU3C8Ee/wHVzOpw7Vxl1YUdOhZCEOdmSLIuVwm41ABsGABRiKpxqYFakML+hIFF0+fKkbMiSo5d6dE1vUsdJdqu1dMKahGVm34crpg09fvjTO8FYqebQqRmVsluqUqEmAWDDAIC3haKZbCOzJn+DBAoSRfmijqx+XDR59ta7ndpmNq6FmoR9vpxLXTjqj/07aty8X4atC2Mw7MBpk5B5VY2DzAA2DAB4WxVmmBwTsymdafSA+QAqXAwrJn7cn7h84oIQr0ZZDv6iTti0JrtNYrzz1CQof1/h3GEbd6z98cpNbBd29JQNiR+WLogwmLBbDcCGAQBvQf6JjQ3pTGOocDG+qDN5bbm3Z8iYuJY/OvSLOknrbwwDWlGTujPOYsOSOUO3blv9+6Vr5R9Eoi7s6Pk0LHFhjjQNB5kBbBgAUHBomhGYmS0ZTJOHzAfoChfnjbrPz6j6Lz8V2Kt7elMHLhDL2/9gHubFnqCb7gwqrJk18NSGhW0CAivehwo7Q36ISd0vVcltBJ7QAdgwAKCgqGzMgVymdTDz0XU4a7EL8VcnJNNnbXnQoVVW45oOenRD1b2BdWwn5ygNm2b2vbbmj16nT354N4QLFXb8uAfz2ydmXUNpGMCGAQAFnwqrrMxJIdMxhPn0OlMJtloSoX/an7Bm3JyItr874kkOccuvdX2bExO7OkFp2Dyzb9Aq/wEnjn6CJRLOkqqhCeMzRNE4yAxgwwCAAqqw1MIczmVV+LMbUOGSy/sB5vabbh8cNDy+ZX2HKxDLvL4zDmnL1iQcXIWtM/vk71P7DCrsRPkyInmdSC5kDzLDhgFsGADwJqQWZl827RVMfwoVLvG+xH9PK4YtPnK5R9e0Jl870kmOxtWVXX6xju7g6DUJy8w+IcumjD2y/4tbj3iPoMLOkwZxGacVWg1JwoUBbBgA8AbUNuaYgG7/hP4EBYlSWrj2zeHMRZOXhXo1dqC+hKhZLV2fZsSkbg5dkyBm+MUuHud/YGeNm/fd2dXCkEjnOcjcJyU3RGeyoCYBYMMAgNejIZhzYqZ7GPOfm1DhUkuVi7bGOyO2jpgc2/onR+lLyLy+Nw1tR0114JoE4e+XsGjs/L1/fnvtTt5qYbycc55UCUlYmCPJxUFmABsGALwepZU5LcpTYRQk7KBA3GX9tZN9+yc3/9YB+hKNa6i7N7CN6+y4g2HbjD5xi8fN27v122u3yz6Mwj41J8tvsWmnFRotiYPMADYMAHitCp8UMl1Cmc+hwvaRL09KJ8zdeaezl/1fbBa3rMse3Zjcw3ELEnGLx83Zt+2b/KkwVNi5wgvmj0wXxBrMNtQkAGwYAPAqNARzVsR0Q0HCnlL5IvnLXv7q8XPD2zWw8wKxosNPlpE+Dvp+jvT3S140ZkFeQaIsVNgZ80l40gaRXGYj4MIANgwAeKUKB0iYnihI2F8+CDB12nDjaP/Bic2/y7Xfoxs1Nb0aERO6OGJNgvD3S144eunuLd9fRUHCad/PNeGnn1dqdahJANgwAOClyK3McSHTLZT5L6bCdpkvTslHLth/vWuHjCa17dOGJW2+NQxsRU3uzjiaDVtm9olcMmHOvm31rt72fAAVds6UC4kfmiYIN2CbBIANAwBehsrGHBfkndjAMjU7XrhW90jWkslLwts1zLHDvkSj6oqOP5lHejvcNgnrjD4hyyZPPrS79o276Ao7cT6PSFoqkGVabCS2SQDYMADgBbR5BYnu4egK232B+BLZauvj/YNHJbT43t76EqKmtdS9GrLbJKY50mDYNLPfwxXTxh7Z99XN+2UeYZmaM9ckfolNOyJXK20EDRsGsGEAwPPoSeaKlOkTwXwBFXaEfH5GPXzR4avdOqU1qZNrXzWJuoaBLR2rJqH7o//tVTOGHT/839uP3HFtzqnj+SS+V3LOPa3RRFH42AewYQDA32gI5qKEVeEvbzKV4ZoOMh7+cX/iygnz7W2/hLzDj2aH2iahmTXg8trZ/U4e++zOY95jqLCTp1pY4pwcSarZQmAwDGDDAIC/p8IEcylPhb+4hamwQ+2XuGDsuu7qyT79U5p9YyfjYWGTmprejrRNQjNrwIV183qdPvlx0BMuVNgFUi86db9MpSRIuDCADQMAnmImmUdKZng089UtTIUdLZfp/52UzJy54bFP86xGNe1km4RxcGtqigMc3aD8fZWzBx3duKj92XPVgkKhwi5SGu6VnPNIazSjJgFgwwCA51V4PJ+pc4epchV+6ZB9id93x2wc7R/V5techtVL+xpzdVW336xjO9p/TcI2o0/6glF/blvdNPBSxfsRWB/hInkvLGFJrjTXaqNQkwCwYQAAwzAmkglSMCNjmFpQYUfO+4GWThtvHu83MKl5vdxSvsb8tWFAS/Ya83Q7XyrcN2rJhMV7Nv905Ua5B5FQYddJY37GeRWObgDYMADgr6lwkJwZGs1Uv42ChMPnfyelE+fsCOrUNrNxrVK9xvyDZYQPPbWXnRckQpdNnnRoT53rd8pChV3s6MbETFG8yWzDYBjAhgEAVooJUzHjYpmat+nKV2jYpKOnykVbk53h20ZMjm39U2n1JYRNa7HXmMd3ttv3c5S/r+aPAUEr/UccPfjF7Ye8RzFQYZdK3aiU3VKVHGuGAWwYAGCjmCgN4x/P1AtiqqIg4Sz57Kx68NLjV7p3SW9Sp5Tez9Wz52vMpL+faO7QExsW9jh1CusjXDDuwfzOiVm31HoDQcKGAWwYAJefCquZaXxWhd+DCjvTuebLVL3DGWvGzYlt/XMptIcb11B2+tkysr191iRof9/0haO2bFvT5kLg+3fDuBgJu14+CkvyzxbHG802CioMYMMAuPZUOEzNTIpj6t7BVNgJUzXQ2n7j7ZN9+6c2q1vS15ib19b6NiHGd7XDmoRtRp/YxePm7dv6w5WbFe5HcKDCrhduMP/n2PSDMrXcRmCbBIANA+DSU+EIDTOVz3xT/AWJCpdpNpfoChfpCoH/TAD1NM//xYt5/+JLdP6/EV5b6Hx6Tjt+3u67HduU8HM6WbvvjEPaUlN62lk7wlcxe9DVNbNGHD1Y/db9Mo9i4IUue425d3LOfVxjBrBhAFxchUPVrAp/W4RT4csM668BVPnzVPkzZPlTZLkTRLnjNs+jNs/DVs9DVs/9lrL7LGX3msvu+Su7zR47TWx2mcrufu6v7zOX3W/xPGDxPGhl/71HbeWO28qdIMqfJMqfJsqfJStcoJ5Jc8XLsN7X5ffdMZtGTY9u/UvJPadrXEPV7Xfr2E52tWaY9vfNmj9i35blnc6e/TAoBEVhV85n4UmLc2QZZiuuMQPYMACuq8KPVcyEdy9IXGYqBNLlz5HlThKeR6xl95vL7jZ5bDeW+dNYZpPBfb3efa3OfbWOt1LLW5GXZVruMi13qYa75Lks/ivP/8WlGt4yDW+Zlrc879+4UstbreOt1bH/mRv1ZbYYymwzeuwweew2ld1v9jxk8TxmK3eaKH+erBBIwY9fyCfntP2Xnw7s2T2tydclUyAWtfha378FOcmO3s9ZZ/aJWTJ+yZ7NDS9drXIvHO0IF0/TvDXDWhLXmAFsGACXxEYxT1TM2Fim9m2mSiENmCp/mih7yOKxy1Rmi5E11NU63oo8zV2s5i5UcxaqOQvUnPkqzry8zC2i5P+nzVdxFqg4C9n/Q9xFatabl2t4q7SsK2/Ql9nMinLZfRZ2nHyKKH/hLzm+7OLP6dKXTloc1q5hdqMaJbFmuONPllHt7WcwbJzZ7+5K/zFH9te6ca/sw2isUcOa4SlZ4mSzBYNhABsGwBUhaSZOx/gnMHWDCnptjm0jXKDKnyXLHbeVPWDx2Gkqs9ngvlbHXaZhxbcIZbeoMl/FXaLmrszz4416doq8x1z24F/z43Mk21G+6Fp15PcDLd3WXT3j1ye1ad3iHg+LmtbS9WlGTupmD4Nh0t9PPHfoyQ2Lep469UlQMA/tCCRvzfABqUpN4P4cgA0D4JIqHK9j5icxP9570zK1/ArEWbLcMVvZ/RaPHSb3jQbeah07/V2otjv9faMcL1Zz8+bH7uvY4TFbsdhn9jxiLXfSxlaQXaNcUeOE6I8ZGx63b5HVqGbxvp/z/t40zIuaWvrv50wz+0UunbBq14ZmgZfRjkDyU/YJf3BqbpjeaMH7OQAbBsAFVThWy8xJZH64x7x/7dXadIkpf470PGL12G0qs8XAW5M3A15klzPgd5HjZRpe/vB4k6HMdmPZvXlyfJooH+C0Zlz5Etlgd9TOYeMTW3xffONhYZOa6h4NbGM709N6l+6ROeXsQZfXzh515MDX14PK4d4y8ldqRCZvESslVixWA7BhAFwMgmJVeGY8890rTmzk74Iod9zmsdvsvlHPW6lln7ItcCIJflUReX5eBXmJmrtCw8rxZoPHLpPnYWu5M2T5vJmxM614+yDANHjp8WtdO6Y3rl1MQixpVVc/oCU5qXsprhkm/f1y5g7fsXWl1/kLHwY94T1COwL5+/5ch8SsG2q9gcT9OQAbBsDFpsJpBmZpMvPj3X+p8GWGleBTRNmDljLbjLzVWnYMPFflupmn4izKM+P1ujJbjR57zWWPWNnXePnbKhxfi78/lLp84sLwdg2K5Tld4xqKjj9bRvjQpVSToPx9NbMGBC+fMmfftvpXb5V7EIWRMPLCYrU5OZIkk9kGFQawYQBcB5phMozM2nSm0UPmw2v/8ODy50nPo1aPXSb3DXrecg27qGEu8pLXeO7r8sx4T97MON+MHbZN8UGAsdeawHO+vqnNiv45nah5Ha1v09K6P0f4+2XMH3l485J+J499cfuhOy5rIP8ML5jfmJ9+UqFVERgMA9gwAK6kwulGZmUq0+AB88G15+bB5ynPw9YyW/OGwUs0bFsA7vv6gfFCVX6bwn29rswWg8ces+cxW/nzjlcyrnSZ+uZwxuLJS0O9GhX5eFjm/b1xaOncnzPP7Pto+dTZ+7Y1vHTlvbthuKyBvHSx2vB0YaTBbKWgwgA2DIDLqHCmiVXh3+4z1a79dR45kPY8amNLEau0jrcdwn6qxkvU7IaKjQaPnSbPI9ZniykcokrxfqCl84Ybp/r0TW1at2htWNXtN+u4TiU8GCb9fWVzBp/YsLDn6ZP/vf3IA+uEkVcvVtspUUpteD8HYMMAuIgK04zIwmzLYpo8ZFW4wiU6vxdRZoeJt1rHgQcXVRaquSu07NWPnaayhyzlTubtM7b7hvGXJ6Vzpq8J9WpchONhSeu6hoEtqckld3+OzjurEbV0wpqdG5oEXq50PwI71JBXxeNJ/JC03AiD0YrFagA2DICLTIVFFmZvNtM2mPnkOvtOzvOYzWO7ibdGx1kEDy62t3fLNbx1OvetBo+9Zs+jtvJnyAqBdtqjqHSJbL310eEBQ5ObfZtbRO/nVN1/t47tVGL352wz+mTNH3F6w4Jhxw7VvnG37EM8mENel9p5g2G5jcBYGMCGAXAJFc41MZszmBaPmI+u0uVPEh47WQ/mLnb2dWn20zBemnfpY6P+aY/iHHv6zt60+PMzqglzd93t2Cazca13t2Fxy7qGAS2pyT1KRoUNM/s9WDFt1v7tjS9eqXY3FC1h5PXxfBI/KDU3BBc3AGwYAFeAolkV3pLJNH7AvB9IeR60uq/Xc+DBpbmsTeu+Xu+xw+R55K+7d/ZRoqh8iWy0K3Lb8En8lj+863i4cXVFp58so3xKYDBsm9FHNHfosY2Lep4+9R+0hJECD4a3iBUiqw2NYQAbBsAlpsLbM5nm96hqp20eO0zclVrsi7CTejFvpdZ9k8Fj97MSRelr8Wdn1cMXHbrWrWN6k3c6xiFqUUfn15SYULyL1Uh/X8XsQUGrZszbt+33y9fQEkYKukriCb9Xcs4djcFAYpcEgA0D4NwqTDOCPBVueYesdthSZoMe1Qj7XGDMW5138Y7V4rxlFKVXoqh8ifxtT8zmUdNiW/2U07D6uyxWM7GL1XoU3/s524w+SYvGbN+6qtuZ0/+5/agMu0sYKowUKNUjklcJ5JkWK4HBMIANA+DcKpxrZDamMU1ukFV3m3gYCdt5FuRp8aq8afEuc7ljtgoBVMXSGBV/ck47ctHBW118Ct0eFjatqe7xu63Y3s/ReQvUzq2fN/Loge+u3sJIGHnLVRL8zklZNzR6PU4xA9gwAE4MlTcV3pJKNbhoq/SngbdEg5GwA02LOYvUvFW6Mn8aPQ9a2AZFQMk2KC7Tv+zlbxs+KaHF94UrS0jafGMY1Ko4FqvR/r6GP/pFLJu4YvfGJhcvv3cvjPcoFi1h5K3yaXjS0lxplsVKQoUBbBgAJ0ZmYfamks0CLJU36Li4ruy4JYrl7N7ip2soSrBY/EGAaeiSo7e6FnI8rOj0s2V0hyIfDJtm9kteOPrQ5qX9Th776taDsngthxTqFHOnpOzbWoMRqyQAbBgAZ1ZhK7M/mWxzxlR1rRYq7BxrKPLe2+nL7DKxxeISOf78/cHUtWNnx7T+5W3bw+KWX+v7NycndSvC93OEv1/2vOGn1y8Yc2T/j1duVr4fjmoEUrh8FZG0XiQXYpUEgA0D4NxT4Z3xZNNjxsorNVwUhZ2wQaF132wou9dc/hRRrI/t3g8w+608f6lH9/Qmdd7ChhtVV3b+xVqkg2HrjD6hyybP2bet0cUr1YJC2WoErA4pVMqHxA9MzX2iM5oxGAawYQCcEpphpCZ6bxzR5JChwlKcl3PuNRQa93X5G4ut7Nnni8XQoLhM1z+YvHr83Mg2vxV8PCxqUUffjx0Mv3tjmMq7sZy4aOyuP1d2P523NeJhDKoRSKHDDeZ/H526R6KS2QisVQOwYQCcE5WJOhZnbXNIX3mpmgtldI2NxdyVWvcthrL7LeVOEE8bFEUnxB+dN/RZeS6gV8/UpnUL9Jyu0VfyDj+aR3jTU3u+owpbZvZJWzDq5MaFo48eqHv9jucD3FhG3jVVQhOGpwtDdCYMhgFsGADnRG9lziXYOh/VV1uu5mJ9hKutZlvGjorLbDd5Hs5bV1xETlzpMvXdobQ14wraHhY1q6XxbUyM7/IujWHS31c8d2jgurmTD+1pcOlqtbuhPNxYRt45nLzB8E6JUozGMIANA+CsKnwqztrhkL7aMjUPKuziN583GcruMZcrolZxtQDT8EWHbnf2KshyCWm77wyD21CTC3lxg86rRgQvn7Jg75/NAi99dOcJqhFIUaVSSMLIdGG4wWxBSQLAhgFwPnQW6kKC1eegruoSFCSQp8ft3Nfpyu42lTthK3+BrU8UvlV8mf51L3/7iEnxLeu/viwhbFxD1fW3wi1WI/199TP7xyyZsHH72o7nzn1++5EHtqchRdoYbsLPOKnQqAgSLgxgwwA4GwYrczXF1uOY/sPlmAoj/xgVcxdreGt0ZbYZyx6wlDtFlC/sruIPAkyDlx6/0bVDZuPa+eKb+888vbjRuq5+QEtyUve3qknQ/r66WQOilkzYuXVFvxPHaty8Dw9GijyfhCctzJGmm3GHGcCGAXA6TDb6SrLN94T+k5VQYeTVL+2Wa9gTHrvN5Y4X8tpz/YMpa8fOim79S0rDGhGNat1tXPdGk2+uN/n2TpO6kY1qpTX8KrdRdWXXX61jOr7VYNg4s1/00glbt63qf+JovWu3cWAZKY5UDEnomZxzR2Mwkng8B2DDADgXZoK+mGTtelT34XIVb56SM1cJ80Net6t4sZq3Wuuxzeh51Frhwts58YfnDT2XnVrTy29d60ZzWzWa0rrp+DbNxrVpPqlN09mtGm1s8eutdj+LB7YhCnyKmfL3Fc0demjTUr+TJ+pcv1vpfjgOLCPFlO+iU7eLFUKrDXeYAWwYAGdT4XuZhN9JwwfYIIG85aiYt1Ln8afR85CF3T7xxvrEZarqWc1/d0Q0nraxe8/+Xb19Onh5tff2fj7d27Wd2L7NHr/24aO6qyb3Iqb3pl/dizDP7Js9f3jAujlTDu3+4crNCg8iIMFI8eW9MPbxXIjOaCJJGjYMYMMAOA0kxUSLyImXTF+uUbtjKowUbinbCvamncdec7mTxCvrE5eo90/Ka66++vvo+a279/Xx6fCCBz8f3w4+c3t2vDi0q3BiT+JlE2LbjD7Z80YErpvjf2Bn44tX3r8bysXqNKSYH8815qcfk6vl7LkNqDCADQPgLNA0kygj59401d2o8VwAsUPebfvEUo37er3HLlO5Y3nbJ/7hxPR7p5U1Vl9tNMy/XaduPq/24Gfp5uM9vmv7c4O7SCb1JJ8TYtLfVzB32IV1c2cc2Nki4OInd4LdsToNKf58Fp40N0eabLbYoMIANgyAE6kwLdKRi+6YvtmkhQojRVkpXqUt86fB86itQsDTLcWVLtq+2hDUcNjMdp27F0SF89PJ23tcl/bXhnXVTOlFT2erEZpZA2+tnjn94K6Gl65+HBSMlRFIyaTsE75fSs59Lft4Di4MYMMAOAkUTUv01PYQ809bNWWhwkgx1Cd4K/Oe2R22lj9t+2RXwi/jl7ft3LPgKpyfjt7eC3p1fDjON27eqMB1c+ft29Yq4OIHd0PQi0BKLO5P+L/GpR+UqdCRALBhAJwKrYU6EWtttVdXaTGubCDFuZFtpbb8OlGdaQdb9Brs49O+/VvacHtv7z6dO0ybMHL49i0NAy9/GBTi/ijGLRjzYKTkjjB/GZE0N1uSYDKjIwFgwwA4DyTFPMyy9Tul/2gFVgsjxZ73pz7+ue+cdu27FEKF23t7d2jfvsW4CV8cOulxNxy9CKSEU4FdMJx9Q6PXYo8EgA0D4DTQNJOqIKdeMf5vjabMfLgaUrzhzZZ+MfJ0k64jWa0tlA239/ZuMnDI51v3lrkZDBtGSngw/GNM6i6JEguGAWwYAKdCrKfWPDB/u0nrARVGij8eM7NqDt3dovMAH2+fQttwy16+NVZtLHflntsj1IWRksun4UkzssTxRrMNb+cAbBgAp0Fjpg9FWZrs0lZYBFFDSiLl/JO+HrixVSe/d7Hhtl27fr14RYWLdzgPY6BoSMmkamjC4FTBA63RQOLtHIANA+AsWAkmKIPodVxfbZkKL+eQkknFaXHfDljbqqPvu9hwu86d6y5YWiHwNmwYKak9EvGtEzLPKbVqgoQJA9gwAE4ClXdoY+oV41drNe7zcXMOKaFUmB7/zYD1rTq+22y4S9evFy2HDSMlE94Tfr2Y1A0iebbFSmAsDGDDADgNShO19Qm7XRiHNpCSTNkZabUHb2vRud+72HDrHj1rLV9b7vJd9IaREsjnEUnTssVRBpOZQl8YwIYBcBasJHM52dbhoL7KEnQkkJLdKTFL9L8Rh5t1GeLt3b7QNtys34AvNu0oe/0RbBgp7pQLifdLzrmjMehwdg7AhgFwGmiaCRcQQ84aPlmJ7cJIiWeO4qNxN3/vNcXLp1PhVNi7ffvfxoz/6MAJHvYNI8Ucj2B+u4TMcwqtEmfnAGwYACdSYVqio5YGmWqvx3ZhpISj5MyTcxYJPFferjtxZuvuXXwKuVCiW72Fy6oE3OKiNIwUZ7jB/J9j0/ZIVRKoMIANA+BMmG305SSb9wFdpcWQM6QEM1/GWZbB2fyEc+Qk79ryTw4O/X18Z6/OhapJjBxT4+jZKmGJZaPTeeHJnCfx8DakOFS4RkTyghxposmC7cIANgyAUw2Gk2TE1CvGL9eo3dGRQEom8+Scpemcrfc5pw5wby3hhYzjxQ4sH+xbY1u3JkPae3d4y/dzfn2+27Tj0xD+e2nSymnSCskiT352mchUTkgCBA4pwnwcljguXfhEZ8rbLgwbBrBhAJwFvZXeFmL5eZu23EJYGlIiWZzL2XqPe3YX9+5cbvhoXtwA9/g+7gl93OP8KgX1qr2ua7OBbyHErf36/LB28+cPIt5PlbyXpXwvW1U1S1k5XVYxRVwuIdcjOp0bmgiNQ4rk5Vzf1Nwgbd7LOZgwgA0D4DSQFHMrzdbxkL4yOhJICcyDF+dwNgez8+C7s3lRw9z5fZ968F8pE+dX5U6vr9d2aTaovVdH79d3iL06dmw5YFD9tZs+vxf+TIWfT9VMReU0afl8Jw5LckN9AilsqoQmdE/OvqLWaQgSU2EAGwbAqchSk5MuGT/DHgmkeKPgLMliPfjoMe7NxbzIEe7xfZ+X4H8krk+VO72rb+/6y5QOLXy923X08vH2etGD23u38u3RYOq0ursPff4wqlqK+N8q/LwTV0qTlk8UlI3N5EWkoD6BvG0qhSR0TMo6r9RgiQSADQPgbGjN9P5Iy6/btWVxawMpvpURCwWcDRGco8e5N5byQsf+3Yt4TeL6lA/uXe1kly9X+Xw7pd2vw9o19fNq0YNNU1+v3wZ7fTfBq/rygZ+fO/hhdOJ76bLXqPALc+KnleKoNA7qE0gB96k9iW/GzzggVQstNhIqDGDDADgTJMWE5RIDT+s/XKHiYjCMFEs1QsZZE8s5fJp7fTk3ZDwvduCbPfiv8GJ68+50KXPKu/y+dlX/bPfx2nafrmz32cp2H69p997mdhV2tyt7vHv5h7sqpyRXzVK8UYX/duJnleJEgUdMBirFyBtTPyZ1k0iRYbba8HAOwIYBcDIURnrDQ/P3mzVlsWAYKfJ58HwJZ1UCZ38g9+oaXuj4As2D/xluaA+3q+3dzrVzO8OGc/ofyf+L7jemVYi5XTVD+F62suBC/LwWV8h3YmxkQ14W92B+vejUVQJZqtligwgD2DAATgZNM4+yiB5H9VVxhBkp4hXCUs7KRM6u69yAP3nBk3mxb+3B7GA4tjfnbme3AC+3s+1eE05Ab8/HOyunJFTNkr+tDf/DiZNFnnFZ7pGpeaNiaDHy9ODcD9GpKwWyJKwWBrBhAJwSkY6af9tUY50GC4aRolwZsSKFs/sa98JW7v2Z7MqI1zyVe/1gOKyH27W8wfBrbdjtXHv3m/7seDhdWJDq8GucuMqzjWyxmbzwZGyfwFT4p5i01UJ5otFsoeDCADYMgNNB0cyRaOvv27WeeDyHFFUWiNmVEed2ch/OyFud1q8QI+Gng+E4X879rm4Xvd+gwvnj4cA+nk/2vW17+OXJUrIv7fK1OD6HfWmH7ROumu+iU9cK5SkmixUrJABsGACnVOE0JTnsnOH9pWo4HFIEq9MWCTkbIjlHTnJvL+RFDi/0PPhp4vtww3u63ezodr5dQWyYHQ/fnlsx7mHVTMm72vALS9lSJeX+WlSMVrFLbZCoH5O2RqhIM1vRFQawYQCcE52F3hdu+WWbBlvVkHeuCEs4a+I4+y9wr67mhY515/d/Jw9+Nhh+2NXtkk+BVDgv3It9y4UcqZKa/t67j4dfupQtSZjXKk7jhiahVezkKhwS/1NcxhqxMgVdYQAbBsCJB8N8KTnyguETnNtA3ilyzrJ0zq4b3MDN3EdTeTGDC92LeNGGo3px7nR64/u5f8bH/dasinH3i3Y8/O+lbPn3O9wjUtzQoHDKrvCT+O/4GcvFygST1YKCBIANA+Cs6C3UvnDL7zu05RYo2TVYsDqkcBXhTSHcM3t57FO5oe7x/YrEg1kVjvfjhHR/uljtLWy4HSegh2fw7sopKVWLejz8Qqu4ClrFThpuSEIdfuYyiSrBbDVjrzCADQPgxCTI2Mbwh8vV2KqGFGaL8AJxXjUigHtjOS9y5LtWhF92caMgi9VeGveb0yvE3qmaISrE7uHCtIr/OvXs/vTUMxoUjlyQCEv6NiFniUybaLGhKwxgwwA4MxaS3h1m+eFPrQfObSBvXRGWcVYmsdvTLm7M2yI8qKiqES+/uPH2NswJ9PN8vOtddg8Xfi9bfI5HTIZ7ZCquPTtensSXjUz9LlmwWK6Nt9isUGEAGwbAiaFpJlpE9j1peG8pBsPI27+W2/SEc3Y392k1om+Re3DexQ1fzr0uhRsM/717OPpG1fTcd9k9XIgGRRV2L5u0YoqI3UERk4F1xY4STkiCR0xGnTTxHLk+ykKYKDQkAGwYAKfGYKXXPDDV2aApg8Ew8hYHlmWcVYmcAwHcm0t54aN4cf2KYyT8dhc3Xtce7lX20Y7KySU3Hn5hVPx0B0WyyJMtFqfn7aCAdNprUTgsqVxcVo0M6XSFPtxsM8CEAYANA+eGpJgwAdnjmL7yEhgeUuBFwkuyOVvvc87v4AVPcS/UgeViurjx6njzrk9mx8MZwhJoDxdoNRs/u0xUGjYW29tI2D0ytWJC7jdZihkKQ7iFMMGEAYANA6dHaaI2PTZ/vwWNYaTAWyPWxnAOn+beWsyLGOnO71t8Hvx0MBzRk3Oro9sFr3ez4XZuF7qVfbi5clJcqYyHX1IszpBXSpWUz9tYXCYqjReezHmCTRSl2RLmhSeXjc2slCz6Nkc5Q2kIgwoDABsGrgBFM1EiYvBZw0dYJYEUZCS8NIOz80axvpZ7yWD4UTe3y+9Uk/j7GMeVEeUjL1RJzy3d8fALo+Iq6bJKqRJ2Wpz35I4XhkMeJV6NCE30iE4vnyionCatnaOcojA8NhN67BUGADYMXAGTjT4aY2m8S1tuIVQPeW1LeJ6Msy6ac+IQ996s4nst9xIbju7NCepc+PdzLz6n6+Bxb1WlxMiqmTI7seF/TIufdYv52WXyzj7jyV0JjITdI1LKxedUSpNWzVR8kaMao9A/NNt0FI17cwDAhoFLkK0mp14x/We1BsfnkNctUFuRyt6Wu7SOFzbWnd+vZDw4/+IGu1jtWtEMhp+Ohy8PLxd2qnJqejEe4yiqbnH+k7uYDF5ECjc0EfXiIq4Ihya6R6SUjcuqmCyqmiGvlqWsm6serzA8MNswFQYANgxcBYpizidYm+3RlcdgGHmlCos5G8I5J/NGwtFDSqAa8a/3c13cAr2LSoXZnO9c5s7CivyHVTPF9tOXeL0WV0wWlU/Ifa5eDC1+19tyZaLSPONzKqaIq2TIq2Yp389WfSvQTFEaH5sJA1QYANgwcB3EOnLKZcNnK9UYDCMvz+Jszs6b3CvruKHjeXEDSliF2fdz4T051zsU4WA4L17cS4PKhR6z8/Hwvy8/V/6rXlwuPoc9dBeZivvPhVsZUY6f/cyD8/8O185VT1YaH5kJLUVT+G4AADYMXGUwTDMBidZmu3VoDCMv2yUs4azmc46eKJWR8NPw/TgP3n2x2kvbwx3LBC2pGB9SNVPqGDb8wuriZ/soEgX5A+O8NW0JKBm//p3c03lwqqRKhqJqpjL/Dsv72arquepxCkNeV5jCXBgA2DBwIZQm+o8bxv+swmAYedlIeOs9zoWt3CcTeXH9S8GD8wfDUb3YxWrn2xW9DZ9tx73Y3/PJwcopKQ4zHn71rbtKeduLn52AZqsUoYkw42fDYF54skdMRvmE3EqpkqqZiuePEVbLVtXNVU9UGB6xGyRwYwMA2DBwJUiKuZdp63BIV2kx5A95LvPk7Hm5g+e4N5eUzC7h1w2Gn3R3u9K+qGsSfx/jcL8xuUJM6R/jKOoqhfhZlcIjKs097/mdC5rxUwmOTmdLEcnCyunSKpmKqv88yv1+ngpPVhrQFQYANgxcEa2Z3vbEUn+LBhc3kH+c1dgUwjm7i/toWsnsEn7d+7mY3px7Rf1+7t/HOB5srJwUWzVL5vA2/O8r0OmySmkS9vldoqBcfHbZWHZszHX6TcZ5FzQ8YtLLxedUSBZVSpM+Xw5+IV/lqkYr9PdMNnSFAYANA5eDppkEKTHqguETvJ9DnkbOWZLJ7lC7tooXMZpXgjvUXp54P25YD7frHYqpJvH3c7oro8qHn62SlvmeQ/clXj8zzpPj/J7xs7Fx/m4KdmtbSAK7ocKhh8dP4p/uSovJKBefUzFZVDldlj8JfpUHv5+t+l+ueoTCcMds06ArDABsGLggVpI+w2ffz2GxGvL3peWjx7l355bag7l/L1Z72NXtUnEOhp9uW+tS5u7yvOd0EmfoSxT4IjS7tS3luU5FdLp7ZKp7RAovLInjCIuN84oQSe6RqR7R6Z5xWeUTBeyOiHRZ3tu4N/wdeJ/dIKEZJTfcyZsKQ4QBgA0DV0SmJ+fcMH65BoNhRMlZlMvZep97YSvvyUT30tih9nIbjurFud3J7YJXsdvwWS/u5aF529bSqjrrePiNd6Hz5LhS6rNaRY5nXFbZmIx8RX46Qn6SUOrTX154sntkmkd0RtnYTLYIkSSsmCqunN+F+Fcn+DWp+ZcKa1CQAAA2DFwTmmZupVl9Duoq4v0csjiXs/sq98YyXsRIXik+mPv3NomQHsX5fu5f29Zuz60Y9yBvPKxy6eTvbsv3Y7Z2LK2YKq6QLKqQKCifkPu3JUelFaslc0ISuGFJvIjUMlFpZWMyPPnZ5eJzyicKKiSLKqZKWP1Nl72tAT/Lp9kqP5nuismqInF4GQDYMHBVrCS96r6pxjqNOwbDLn5seXUC5/Bp7t05vOjBdjIS/rsmca+LW4B3SahwXjgBvp7BeyqnJLvmeLgglvx3/zhd9nSQnFe0+FuU+dmecVmesZl5Q+WMMtHpbKLSykSmvjxRafn/Go+YjLIx7LjXMy6Ltd6E3L/EV1wpTfKsAZz/3+Ed/x/5NFvVVaI9o7dISYqECgMAGwYuS5KM7H9aX3UJjNCF2xELBZxNTzhn9vCCp7DtiIQ+dhVuRE+36x1LaDD8V1+Cd21c+chLVdJz3l25XHyoXCVDVjk9L2nSSnne/NJUTpM+Td6gt9Cz3oLni1x1L6nujMEiYVUYLgwAbBi47mCYORBp/XmrtuwCSKHLtiNy8o4tr+WFjmMva8Tblwq7xxXb/bk3PKfrVObuMge9Toe8Mf/NUflKdecM+VNhqDAAsGHgwoh11LQrhs9wf85lp8LLUzlHTnHvzeFFD3WP72tvU+H8+3NuxXZ/7g3X6S4NLhdytHJKKvoSTpaP2IKE7jSmwgDAhgEgSfp2Gnt/rjJqEq5YFJaya9ROHuQGT+bx+9uhBz+9P/e4W8m9n3vJc7p5FePuV80Quci2NVfIp9kqH7H2iM4sJkioMACwYeDqqE30xkeWeptxf84FNwpLOJtCuOe38UIm2GM74vn7c3eL+f7c68fDF/uUDd5ZOTm+apYcHukE+U8O+2zuqN4iwlQYANgwAAzDpCrIcReNn63SoCbhckXhHXe4l9fxwsa42+1U+Nn7uZsd3c57lZYNu5315l4dXT4ysEp6LsbDDq/CuapuUt1xA1QYANgwAHnYSOZqss3rgB5rhl0rS7I5+y5yby/kRQ2zz6LwPxarPermdtmn9FT4r75E0KKK8U/wnM7Ru8IdJbpjBouIoAioMACwYQAYhtGY6dX3zXU2aMqgJuEqUXCWp3MOBLAbhWMH2W074h81iaDObgFepWzDZ9txA/uw64eTE9GXcOiu8CEdq8LYKwwAbBiAp6QoyKFnDdWWqbnQRFfIPDlnDZ9z7Bj3wR8OocJsTSK8p9v1DqXzfu5ffQne9Uns+uG0LOyXQFcYAAAbBs4ATTPn4q2Nd+k8sWbYRVR4fQT33E5e8CRe3ACHUGF2m8TD0lgz/Kpc6Fbm3oq89cMSFIgdSYWzVT0kuhN6iwgbJACADQPwPHorPfum8XO8n3ORk8sbwrkXtvJCx7rz+zmABz9dM9zb7XanUn0/9+J1Ou7FAeVCjlROScN42FHyYbbKS6I7AhUGADYMwL+Jk5I9j+P9nCtsUhNztgRzL23ihY925/d1FBV2j+/DCe5eamuGX92XcL85vULMrarpApxrtv98nK1qJdLu1ppzCBLP5gCADQPwD2wkfTDSgmvMLrBJTcDZEcS9upoXOdLO10e8ZJvEXbt4P/evvkRXj3urKiWEY7+EvT+by1F5i7V7deYcdoMEPvUBgA0D8E/kBvKP68b/4Bqzc2eRgLPjFvf6cl7kcMdS4adrhm+UzjXmAtzjGOD55GDllGTsl7DnqbC3WLdPZ8mxYSoMAGwYgH9B00ykkPQ7oX9vqQrbJJy5ILE9iHtjuf0vFba7a8xvXj/sw7sxuXz01SrpOVXRl7C/VMtWNRBpNmtMGTbSRtGQYQBgwwC8iJVkTvOtTXfryi2CNTrvVHj7Xe71lY44FbaHa8wF2S/hcW9NXl8C+yXs7tncryLNCo0pwUZaYMIAwIYBeCkyA738rrk2jm44a5ZmcfZe5t5azItySBV2j89bM2yvNYm/90tcGpy3XyIF+yXsSoWbiTXrNaYkqDAAsGEAXgVNM3ESctAZHN1w1mdzOawK35nHix7iGEuFX/p+zp5rEn/3Jdrzrk+sEHWlanou9kvYQz7IVjUVaTZpTWk20oqCBACwYQBeBUkxl5KsLffoyi2EOzpfV1jE2XmDe3uh46owa8OxvTn37HKbxL9zvqNH0NJKuMdhB3k/W1VfqFmuZqfCVpgwALBhAF6DhaA3PDR/jZqE82WhMO/Z3DJe9FDHVWF2m0RkL7ebdl6TeH6/RD/Px7sqJ/OrZsmgpKU4Ff5RqJmnMkZZCBNUGADYMACvR6SlxgQYP1iOmoSTFSRyOTtvcW+scNSu8HNhj25c9nEIFc6LD+/q2HLhZyunZqBAXFoq/JtIs0RtirGSUGEAYMMAvAGaZm6l2dru15dHTcLJpsI7brFTYUdcpvZC7Pboxuv6Ep3L3F5QMe5h1Qwx+hIlv0ztF5F2mdoUZyXNUGEAYMMAvBGSYjY8ZLdJuKMm4TxdYQln633uNUddpvZiTSK8p9v1Dvb+fu5f4QT0LvtwS6XEmKqZ6EuUZFdYWV+oXqg2xlhRkAAANgxAwRDrqdEBxmrL1JBIJ8l8KWfzE+6V9Q53ePmVRzcednO76ONYKvy0QHxpkOeTA5VTEnGgrsQKEr8INQvzu8LYIAEAbBiAgkDTzN0Mm/dBfXkc3XCOzJNxNoZxAzfzwkc7gwon9OFF9+bc6eR2wcsRbdjtrDfv2rjyEeerpGW+hwJx8atwQ6FmpdrIt5JmVoXhwgDAhgEoABaC3vbEXG8Ttkk4hwrLOesjORe28cLGuvP7OYEKszWJMIesSfyjQHxnYV6BWIQNxMXaFf5VqFmlNiZYcWIDANgwAG+DSEdOv2r8fJWaNw826ehRclakck8d4IVM5DmLCrvH+XEedXO75OOoKpxfIA70K/toa+WkWCxcK769wt/kquepjLFWAs/mAIANA/AW0DQTKST7nTJUW4rdao6fJVmcAxd49/9wjx3o0KuFX6xJBDnaNomX9SW4V4aVCzteOTUNC9eK49lcvVz1DKUh1EwYKZSFAYANA/A2WEn6QoK15V5dBZSGHT2LBI5+e/nlNYmInm43OjjK0Y03XmwuHxlYJS0LBeIi3iAhUM9RGcMthAEqDABsGIC3RW2iNj02f7dF64HSsKMvkdh+j3triZOpMI/vxw3u7nalvQOXhv95sbnMrT8qxNyumi5AgbioChLfC9hrc5FW0ggRBgA2DEAhyFKRUy4b/7NKg9KwI6uwnLMxnHtpg5PsU3vehmN9Ofe6uAV6O4MK5xeIL3T3uLeyUnxI1UwJTnK8e2rlqqcqDKEWAioMAGwYgMJA0UxILtH9qL7yYjil40bBWZXIOb2fFzLBaZZI/G3DUb04tzq5nfdyGht2O+vFvTiw7ONdlZPj8KLu3VV4rNxwz2zTUVBhAGDDABQKG0mf5lsb79J5LoBTOvL55YPnuQ9n8pzo5dzfpeGQHs5Tk3iuQMy9Mrxc2MkqaRkoEBc6dXI1kxTG+yabhqQgwwDAhgEoJGYbveaBudZ6jTtqEo57aGPnLW7QPF7sIOdTYXd+H879rs5Uk3hOiH1418aXj7xYJS0bBeJC5Ktc1Ti5/oHJpoUKAwAbBuBdEOupsYE4yOzYhza4V9fwooc6oQrn71ZztprEPybEZW7NrBBzs2p6LoT4rfJFjmqgVH/DaMVUGADYMADvBE0zj7NtHQ5ht5rD1oVXpHBOHnDKuvBfJ+h6uF1zuprE8y/qAtgXdRXjg6tmiCHEBcz/ctUDZPpLRquCVWF8kAMAGwbgHaBoel+E+cc/sVvNMbNAyNl9lRs0xynrwnk1CT/Ow65uF72dVYXzX9RxLvYr+/DPyonRVTPxou7NqZGrHiE3XDfZFCRFYioMAGwYgHfEaKVnXjd+ulKDE3QOeYF5QwT38jpe5HAnW6n2d00ixjlO0BXgRt3F/uWeHKicklw1Sw7ffX1XeJhMf8tkVaMgAQBsGIAiIUNJ9julr4Tdao6YpZncE4eduCPx1wm6js5wgq4A4V4eXi70GIT4dQWJHNUgqf6q0aqiKAof3wDAhgF4d2iauZNua7dfV34h5NIBV6rtvcK7N9vdWTsSeTUJpzpBV4AJMe/auHLhpyqnpECI/53queqhMlaFUZAAADYMQJFhJZm94VaUhh0yG8O411bzooY5rQqzJ+h6cx50cfbS8ItHm91vTisfdblKOnauvdgVHiU33DLZVChIAAAbBqAIURqpRXdM1deqsWnYwerCS7M4x4/xnkx04o7E0xN0dzq5QGn4BSHuUub2vAqxd6tmiHC0OT9f5qqHoCsMAGwYgOIgRUGOCTB8slLNgw07UOZLOVvvc28u4cUMdubBcLwfN7yH240OLlIa/sfOtQvdPIKWVIy7VzVdgAnxf3JUflL9JYNVSaIrDABsGIAihaKZ+1lElyP6KnhC51hZls45tZ8XOs6d39eZB8N8P45rlYZfWELcgxXiWFcX4i9y1H2k+gCDVUbSJIbCAMCGASharCR9mm9tskvnuVDJ/sN3WKaj1CS2PuDeXsiLGeTEg2HWhuN8Xa40/KIQ9/K4u7Ii/7HLXuX4Ikc1QMqe2JDj2RwAsGEAigONmd702FJvM57QOdhgmHt2Dy98tLMuGP7HpuE7ndwueLmsDbNXOQJ8PR5srJQQUTVT4lod4izVf7NVfaT6i0+vzUGFAYANA1AMCLWU/1Xjf1drUBp2mMyTc3Zf4z34wz2uv3OrMLtpOLyn2/UOrlmT+McS4ov9yz7aVikxsmqGxHUmxJ9kqzpLdKf1Fik7FcanNQCwYQCKAZpmEqTkgFP695bAMh0ny9O4AX/mXZ7r4/Q2zHnc3e2yj4urcP6EmHtxYNmHWyslhLuIEH+crWov1h7SmQUESWAqDABsGIDis+GgDML7gB53NxxnMCzj7LzFuzvbPW6A06uwe5wv515nl9ut9pq7zZcGlH20tVJilNNXJj7OVnWU6I7qLUKoMACwYQCK14YZ5lCU5edtGo8FEE3HWSVxZi8vbIzTN4bzNg335tzq5HYeNvxPIX68s1JSTNVMqbMK8cfZqjZi7QGdWUigIAEAbBiAYoYg6WV3Tf9bg03DjhI5Z1Mo9/oKXswQV6hJcMN6uF1rj9LwKyoTYexhDqerTHyYrWot0uzWmbMxFQYANgxACSA3UGMDDe8vU0M0HSMLRJz9gbyH/q7wfs493o/zqJvbJZSGXyrE/TwerK3If1Q1Q+hMQvxh3lR4l86caSNtUGEAYMMAFDc0zYTmEp0P6yssgmg6zPs5zrntvIiRLlGTQGn49WvXAn097q1g9xBnip2jMpGvwnvzpsI2Gi4MAGwYgBKwYYY5Em39ZZu2LErDjpJNodxbS3ixA51/MMyWhntxbrv4puE3Hubo6XF3WcW4+04wIf44W9VSrN2pNWfbUJAAADYMQElhI5lFt01frMGmYce5P7c/kPd4qju/nyvYMDcMm4YLdrr57uKKsXeqpue8l6Vw3KlwS7F2m86cbiOtmAoDABsGoMSQG6hR5w1Vl6A07CBZJGTvz7E1iT6uUBrmBndzu4IndAUS4jK351aIulwlNaOqAwpxfkFiB1QYANgwACUMTTN8CdnruL7iYoimg2QNn3t1NS9msEvUJOJ8OQ+74gldQXO+C+/6pPLh56qkpjuWEKMrDABsGIDSs2GGuZJibblXVw53NxylJrE9iHd3jksc3Ujow4vpzbnbxS3QG6Zb0Jxrz7s6tlzoscrJfPY2hyPUiJ92hXXoCgMAGwagNCBIene4uf6fGo/5EE0HseFDZ3lPJrlIaZh9QncLT+jeNj7cy8M8H22tlBBq/6uIq2WrWoi1W7XmNBQkAIANA1AqaMzU8rummus17nhC5xibhiWcU/t5EaNcYbcaWxoO78HBE7rCHau72N/j3qqKsfeqpufarRB/kK1qJtZuRVcYANgwAKVItpqcesX4n9VYKOEgWZLNubCdFzXcFZ7Q8fh+3Cfd3a7iCV0hhZgT0NP95ozykVeqpGXboRBXy1Y1EWq2as0ZUGEAYMMAlBY0zcSIyUFnDB8sV3Mhmg6RFamcwM28qGEuYcNxuEJXFDXi6xPLhR6vlGRfNeIPs1WNhZoNGrYggWtzAMCGASg1KJoOyrB1PKSvhIUSjpJVSZxLG3jRQ13DhnGFrkiEmK0Rl324uVJ8sP2c5/hVqFmtNiZaSQumwgDAhgEoRawkfYZvbbpb54mFErBh+1wocbuT23nYcBG8q+ME+pW5M798ZGDl1NSqWfLSVeEfBJrFKmOclTRTNGQYANgwAKWJ1kxte2Kuv0WLhRKO05RIcZ2mBDeip9v1jigNF9024k68K6M8H++slBBRNUNcKkPi97OV9QXqxSpjrIUwQYQBgA0DUOpI9NS8W6av1mGhhONkcS7n3E5epEu8omOf0OEKXRHHixPYp0zQkgpRV6qkpFTNkr2XrSzJZ3M/CDVzVcZoC5E3FcZnMACwYQBKFZpmstTkmADjh3hC50CZJ+ccO84LHecKG9bYJ3QX8YSueE7WXR3r+XhHRX5w3v61Erpa951AM0tpDDPbDBRMGADYMAD2YcMxYqL3cX1lPKFzrOsbu2/wHvzhHtff2ZcN9+Hc64q7G8W4kDiwT5nb88qFn66cnJA3JC5eFa6bq/5DaQyzEAYMhQGADQNgLzbMMEEZNq8DuvJ4QudYWRfDvbaSFzPIyW04zpcT1Bk2XNxNYu7lIR73V1eMDaqSllU1U161GMrE72ervhFo/lAaIyyEESoMAGwYALuy4ROx1t+3a8sugGI6VBYJOceP8UImOPdx5rybzB3dzsNZiz2cC13db0zxDN5bMe5BldT0oi0Tv5+t/DZXPU1pDDETRhQkAIANA2BXUDS98ZG5zgaNOxZKOFw2hXKvL+fFDHHit3TcsJ5uuMlcoivY+rjfnOEZvIudE6emFZUTf5qRO0QkDjKatCRFwYUBgA0DYFdYSXrWDeMnK/CEzhE3S+RwDp3lPZrmzu+PhRJIER6u4wT6uV+fVPbBxvLR1yq/sxNXTkl6P/xkH/7JIGWSnjCjJQEAbBgA+0KgJYecM1RZkvcwC37pYFFwVsfzLuxwDx/trMslOI9xk7nUHti5XejGuzrK497K8hHnKidGVUnLrpoprcquniigGSurZogrJUaWfbzD/cqIL64NnRKzI0yVZIQQAwAbBsB+oGkmXEB0PaKrsAhm6ZDhLpB9ui+sdvCmDxJGeyQ4mxDz+L6cB13cLnrDTUv1jV1H7qXBZW7P8Xy8q3zkpYrxwZWTE6qkZ1fNlLz3cjNWVs2UVknLrJQQWT7iQpmgpZyL/d3O+nDPele/Omh67C4IMQCwYQDsyYYZ5my8tfEurSee0DlmPlmpHhao3JQWOzB3xxcpY8smONWLOl5sb869Lm4BsGF7qE/4cAJ6c6+MdL81w+P+6rLBu8uFn6kQfaMi/0GlhNBKiZGVE6MqJYRXin9SIfZWufAzZR9vL3NnAffKCLfzXd3OPl0Jwj3r/dWVgeOj/nwgj9PZcIQOANgwAHYARdNbgs1fb9SUwRM6B0ylxaoBZwx30m0Sk+WBMWmUaPf/UsZ7JjhPh5gX3Ztzp7NbANar2ZcWu13oygn05V4azLs6xv3GFPdbf5S5PbvM7Tnut2a535zBuzaee2kwJ6C327mOzzz4WbhnvT+/3Hd4+Ia7shidDZvWAIANA1DaWAh61nU8oXPIlF2g8jmou5hoVZtoimZMlDXElDZRvL9GygSnmRDzIntxbnXCsmF7vvDM1ovP+bida/9XfP5twC+ucjvb7pNLvqMiNz2S8w0EJsQAwIYBKFVkemo4+4RODbl0rFRZoupwSHcmziozUM+Wt1opIsKUMVl8sFbqpHJOMSHmhffk3OiAZcNOuNv4bLv/XOk7MXrrY0W8HkIMAGwYgNKCpplkOel3Ul8JN5kdKu8tVXc/qj8fb5U/p8JPhZgmYsxZc6Unvk2bVj5hgOMvG+7hdg3r1ZxXiC/3HRy25rI4RGHRUjSFz2QAYMMAlIINP8omOhzSY6GEA6X8IlWnwzpWhY3US096ETSZaBEskJ36Nm1aOYcW4ng/LBt2eiGudrFHjyeLA8XBSiuEGADYMAAlb8MME5hkbbZb57kQlukYKbdQ1Wa/7gRbkKBfc9CLYFghniM98XXaFMetTPDi/LiPu8GGnT7vXezeO2TpVUmo2qbHzWYAYMMAlCgEyeyPsP60VeuB9WoOskHC64D+WIxVoqfJNw3RCIqMM+fMlZ2slz69QuIAx7RhX+6jrji94Qp5/2IP35BlgaJguUVDYkIMAGwYgBJDb6XXPzTXxXo1x1BhtdcB/fGCqfBTIabJBItgkexM/XR/RxRiXlxv9vTGJSwbdo0JcWD3zo8XnMy9KzGrIMQAwIYBKCEkemrBLXONdRr3edBNe1+m1mqf7kiURaSjSOot/lEyQZNJFuEC2WlH7BDzYvJObwTChl0llQO6+jycfVpwT27RoEMMAGwYgGKHppl0BTnpkuk/qzQ82LAdx3OBqtlu7YFIi0j7dir8/IR4lvS4w3WIWRsOwiE6lxPiro8XXhI/QYcYANgwACVhw7EScvBZw4fLcXrDflOZ7QrrjkRbxLrCqPAzIY4z5yyQnvo+bXoFx5kQ4xCda6ZqYLeujxeezr2PygQAsGEAit2Gg3OI7sf0OL1hz8/m2h/SnYixSPQU+W5WQNJkikW0XH7+h/QZ5R2kQ8za8O1Obudhwy6XSgFdvB/OPp4TBCEGADYMQDFCkPSVZFvrfbpyWK9mr13htvt07LO5d5gKvyDEqRbxAtnpumlTHaIywYvqzZ5lhg27sBCjQwwAbBiAYsRM0MdjrQ136DyxXs0uu8KNdur2R7xTQeKlQpxoEcyXnXKItWvcyF6cmx1xltmFhbhr58fzzwsf4VIdALBhAIoFvYXeHmKpv0XrgfVq9nZtbqGq+W7t3nCLQFuUKvyXEFOpFvFy+fmfMv6omDjQfgfD8X7ciJ6cG7Bhl06VgG6dHs3D2jUAYMMAFAtKE70kyIT1anZ3bY7dIKHbG5avwsXyPz3F0GlWyWp54C/ps+xWiFkbDu/Bud4Bh+hQmWj3YNbBrBsCk5ygSXx0AwAbBqDIkOlp/6vGz1djvZodhTdX9ds27a5QS66GIkiaLrYNUyRNZlikq+WBP6bPtM9HdawNh/XgXMdZZqRdxYDOLe5NP5pzGx1iAGDDABQluRpqxAXD+8uwUMJeUma+6ttNmnUPzVkqkqCKfdMqxdBZVtkW5dWmmQuqJg4uY4c2HNqDcw02jLApf6FTuwd/HMu5g8oEALBhAIoGmmb4ErLXcX3FxdBQe9kg8fNW7doH5lQFaSXpEjs7ICE0+1V322Ytez9xaBm7s+HunKuwYeRpKlzo1Or+jD2ZV7OMEhtF4GMcANgwAO9qw/ezCJ8DuvJYr2YfU+Gf/tSue2BOU5C2ElThfKSE5pD6fpusJe8lDSljVzYcAhtGXhTiRkGTNqWeS9MLIcQAwIYBeDcbZpgLCdYmu7RYr2YPXeFvN2nX3LekKih2KlwKPwy0jNTuVwc1zVxQKXEQbBix53ie7/jT7bGbUs9nG6V4VAcAbBiAd7Lh3eGW77dosF6tdOM+T1VznWbhbXOilLQSdCm48LMJManZpw5qnbnk/SS7qEzk27AbbBj5V8qca//L7fFb0i5kGMSYEAMAGwagkFA0vea+ucY6Ndarla4K192oXXDLFCcmzKWqwvnISd1RzYP22Ss+SBpWJqFv6dtwcHe3K7Bh5OVC/POtsWuSTyXpciyUlWZofKoDABsG4G1tmJl70/TJCjUXVlp6Kvz1Ru2C22a+hLSQtJ18mcsI7THNA5/s5dVKe0KcZ8PdYMPIq+Jxrn39m6NXJZ9M1udiQgwAbBiAt0ZlokYHGqouVXHmKiGmJR/uXLYgMe+mKVZM2sNU+Lk/JlHyPCFuW9qP6jAbRt4sxOfbf3dz5OqkU6l6AYQYANgwAG8BTTOpCrLvSX0lrFcrpalw7fWauawKE2aCsiMX/gtFXmXCJ3t5KVYmnvaGYcPIa+N+zvu7m6NWJJ1IZCsTNlQmAIANA1BQGw7NJTof1ldYBDctBRWut0mz+I6JL7WvqfALKEn9Ke3jTjmrPkgaXipCjJ0SSMGFuN6NkYsTjvK1WegQAwAbBqBgNswwV5JtLfboymHZcImr8DcbNUuDzIky0krSdv6lrST1JzSPvLOXv5dYCpUJ2DDyNo/qfL69MWJp4tFEXbaVsuFDHgDYMABvtuGDUZaftmo8sGy4ZFNjnWbBLRNfQtjzVPi5nxNaTugOq++3ylpcJXEwbBix8y0T394YuSrpJDrEAMCGASiQDW98bK6zQeOOZcMl+GzuyzWaP67bb1f4VcgI7QnNo07Zqz4s2cpE3mXmHpxrsGEEHWIAYMMAFDUkxSy4bfp8FdarlZgKK2us1cy8ZowSEWabA5nwUzSk8YIurEfuuo+TR3iUlBCzNhzeg3O9A2wYKVSHOBMdYgBgwwC8ErWJnnTZ+OFyDWy4ZKbCX+WpcLRjqvDTnxnScFEX0T1nbYlNiPNsuCfnekfYMPK2HeKvrw+bzz/I12ShQwwAbBiAl5OtJoefN76/VA1VLYF8vlI99YoxUkiaHFaF8zvEWtJ4SRfZO3fDp8mjSmJCHO/HjejJudHR7TwMD3m7cM9617o2eGH8oXhtNioTAMCGAfiX1tBMvJTsd8pQFTZc/PlohWrUBUNwNmF0ZBV+hp4039XHjxTu+iplvGdi/2IfD0f14tyEDSOFE2Kv2teHzOXvj9akmUiLM/z6AQAbBqAIbTg4h+hyBKc3ij2frVSPCjDcz7TpnOi72ELZHhmSRol2/S9lXNmEfsVsw705tzu5nfeC2yGFE+Ja14fMiN0dokzSE2YIMQCwYQD+smGGuZFqa7tfVwHLhot7KhxgeJDlVCqcj4myPjAmDRJsLe7KBC+6N+dOZ7cA2DBS2Ed1Z73/d2XA+OitT5SJJgITYgBgwwD8ZcNn461NdmlxeqP4Um2Zesg5w91MJ1ThZ0J815AwSLD1Pyljim9CzIvpzbnbxS3AG1aHFDqcs+0+u+w3LmpLsDLBgAkxALBhAPLWq9H7I3B6o3hVuN8p/c00m8ZMUc771WumbI+NyePEe2ukTiyXMKBYbDi2N+deF7dA2DDyrvn0st/oqE33FXE6wgQhBgA2DFwds43+M9hSb7O2DE5vFEM+XK4efNZwK82mdmoVzsdKE6GmtMniA1+nTSkOIebF+nIedHW7BBtGiiCfXfYbEbEhSBatsxkhxADAhoFLozHTq++zh+hgw0We95aq+5/W3063aV2moGihbVHmzGmSwzVSJxR5ZYIX58t91NXtsg9MDimSR3WfXPIdFLbmvjzWSFjwXQAAbBi4LhI9ueCWqcY6jfs8+GsRq3DvE/orKVa1maZcafBko8koc+YUycGaqRM9E4py7RqP78d90t3tCo4zI0WWDy72GhK+9o40WmszUJgQAwAbBi4ITdNZKnLaFeN/V2t4sOGi7Aqr+pzSX062Ko2UC37F5guxv+RIEVcm4vtwQ3u4XYUNI0UsxAPCVl2ThKmsOoqm8L0AAGwYuJoNM0kyckyA8ZOVathwEXaFB57WX0+1udpU+J9CTESaM6aKD9ZOneRZdJUJHs7RIcWQjy71HhC26oY0QoMJMQCwYeCCNhwjJgefNXy4XM2FyBZdV5jdIGFxXRXOx0zZIs2Z48X7vkwZV1R7iNlzdLc6uV3AymGkiDvErBCHrronQ4cYANgwcD0bDskleh3XV10CkUVXuBgmxBQRlrdlok7q5CKpTLArh4NwgANBhxgA2DAARWXDDHM3w+ZzUFdhEVz2XVN1icrvpP6Kq3aFXyPEsebsBbLT9dNmVEgc+O5rJTj3sXIYKUYh7he68oo4FB1iAGDDwFUgKeZKsq3lXh0O0b27Cvc8rr+SbMNU+CVCTJMJZsFC2env0qaXf8cJcbwf51FXt4uwYaQYhbhP6IprkjCNzYA9xADAhoHzYyHo03HWxrt0njhEV/goKy1WdT2qD0y0Kk1Q4VdOiJMswjmSE3lbJt5p7Ro3BEvWkOI93VztYs/eIUuvS8JxmAMA2DBwfkw2+lCU5bft2rKw4cKmwiJVh4O6s3yr3AgVfu0/iGCoBItgqfzsLxmzKicOLrwNR/R0w1oJpJhTJbBbrydLLomeKCxaVCYAgA0DZ0ZvobeHWOpv0XrgEF2h4rlA1Xa/7kSsVWaAChdAiGkq0yrdoLjcMGNuoYWYfUh3p5PbeTykQ4o3713s3iN40QXhIzmEGADYMHBiNCZ6zX3z1xtxlrmQKtx6r/ZIlFWio0l8VxZYiDOs0nWKS7+kz6qQUKhHdXw/zr0uWCuBlECqXezZLXjROcEDuUUDIQYANgycE4WRnnfL9L+1OMtcGBVutlt3MNIqhgq/tRCTWVbZanngj+kzyxdKiLmPu7td9oGrISXQIa4a2L3t/T9O5AQprFrsigEANgycEKmemnHV9PkqHKJ7u5RdoGqyS7s3zCLQUCQaEm8PexLcKtukuNI0c8F7iUPKvK0Nh/d0u94RD+mQkknZ8x1a3vM/kHVDYJITNInfXwBgw8CpEOnIcYFGHKJ7q3jMVzXeqd0TZsnVUARU+B0Q2JS7VbdbZy15P2lomUJUh3GRDimpeJ7v2PLe9P2Z1wVGOUFBiAGADQNnms+pyUFnDFWWqOG4BVXhBawK7w6FChcBJE0Jbcq96jvNsxZWShz0ljc4sHUYKdFUCujS8p7/waybIrOSRIcYANgwcBYbZhKlpO9xfaXF0NyCFiR+267dFmLJUUOFiwaKocWEeqfqZpOMeZULLMQ8vh/3CbYOIyWd8uc7NQ6avCfjisAkJ1GZAAA2DJzDhsMEZJcjepxlLkjKzFf9sk276bE5Q0XaSKzkL0okNlaIm2cufC+pYB3ieD+2Ooytw0iJp8z59o2CJm1Pv5hplNgoAh8EAMCGgYPbMMPcyyS8D+rLw4YL0BVusF37Z7AlXUla8Q1YDOTaFNuVN5pnLayaOKRA4+Ho3pw7nbFnDSmNDnGHxkFTWCE2iG0UgV9eAGDDwLFt+GKStdlunedC+O6bu8K7QszZakyFiwuSJnNsih2qGw0z51ZIHFig6vDDrm6XsGcNKYVUuNC5UdDk3RmXhWY5OsQAwIaBY9vwyVhrgx04y/yGvcINd2p3hlpz8Gyu2IWYfVS3Q3WjWeb8Km+8VBffhxvaw+0aqsNIqW2ZaHBn4vb0S9lGKbZMAAAbBg5sw3vDLfX/xFnm102FG+zQbQ+xZKkpTIVLBolNfUB91ztr+QeJw17fIeZF9ebcxp41pNTifs7ntzsT/kwLyDCIrRRBM/iAAAA2DBzQhjc9NtfZgEN0L4/7PNWv29iucKYSKlyiSAnNUe3D9tkrqiW+dg9xnC/nAfasIaV8mKNh3qO6LKMEE2IAYMPA8aBoevld0//WaHCI7qUq/NOfms2PzZkqykYyUOES/clkaBmpPa551Dpryev3EHPDUJZASnvt2oVODe5M2pF+KdeEDjEAsGHgeDbMzLlh+mSlBofo/r1M7fst2rUPzGkKPJsrrX9wQSsI/RH1g3ZZy6q9+lJd3lG6zihLIKUbj/Ptf749blPqhXRUJgCADQPHgiDpqZeN7y/FIboXp8Lfb9GuvG9OkpFWEiZcmihJ/UnN4245az9NHuWR0Pflb+mCcYYDKf1wz3r/dHvsupQzKbpcK2WDEAMAGwaOgcFKjws0VoUN/zN1N2pW3GNV2IK9wnaAgtAFaMN65a7/OHlkmZcJMS+qF97SIfYzIV6fcjZVL8QeYgBgw8AxEOmoIWcNlZfAhv9O7Q2apXdNSTICU2E7gaIpNWm4ro/pmbO+WtIwLB5G7PxR3fc3R69IOpGsy4UQAwAbBvYOTTNpCrLfKUOlxbBhNry5qhrrNHNvmuKluDZnd5hIyzVdtF/uxs+SR5dN7PfileawHm7XO+BKM2InlYla14bMjT8Qo80wkVZ8lAAAGwZ2bcMxYrLHMV1FnGXOy1drNTOvGyNFhMmG7y97xEBZbhpihgi3fZkytmxCvxff0t3r7BaIVWuIvaTmtcGz+fsiNWkQYgBgw8CObZhhHmUTHQ7pK8CG56q+XKOeec0UISSM+Oay359YWksa7xj4Q4Tb/psy5h+P6vh+3JDublfxlg6xm8McZ73rXB86h78/VpNhpWz4/QUANgzs1IZvpVnb7NOVW+jqKvz5KrX/VWMUpsKOIMR60vzQmDhQ8OfHSSOeX7vGi8aqNcTuhLj61YEz4/ZAiAGADQP7teHARGvT3VrPBa7rwdy5qs9WqkdeMDzMsuktdB740bBrG6Zp2khZrumj+gg2fZYy+tmEmMf34zzqhrd0iJ11iL1qXBv8R9zeCHWqkbTg8wUA2DCwOxs+FmP9bbu2rAvb8GerNCMuGIIybBozTUGFHeVHl2YrE5d1kf1yN3+e/JcQx/vlrVrriPEwYlfhnPWqeW3wjLjdoapkA2HGpwwAsGFgXza8L8Lyw58aj/kuqsL/Xa2ecNFwLxMq7HhQNKUi9dd0Uf0EWz5LeXqYg8f34z5Bexixu5Q551P72pDpsbvC1Slm0orfXwBgw8CObHhbiOWbTZoy812xIPGf1eoplw0huYTeChV2xJ9emqIpLWm6bYjrJ9j8Sf5hjng/tj18F8slEPvrEJ/z+d/VAVNjd0bkCTEu1QEAGwZ2Ml2jV903V1+r5s1zRRUeF2gIziEMVgpdYUcVYvpph/imPnagYOsXKeM8E/o/XS5xrQPGw4gdVia+uNJ/WuyuUCUqEwDAhoF9YCXpBbdN/1ntcjb86Ur1mADD/UxCa6bgwk7gxDrKdMsQN0K086uUCZ4J/TAeRuy9Qxy7O1SZzD6qw4QYANgwKF0MVmr2DePnq1zLhj9Z8VSF/+oK49vI4cmrTBjvGRJGCHd+kTLWI74PTtMh9twhrnN96Iy4PZHqVAuJtWsAwIZBqaIwUtOuGD9dqeG6jA1/sFw97ByrwjoLusJONR6madpAWR4Zk4cLd/4nZUyZuD6cB12xbQ2x2w5x9auDpsbsDFMlmzAhBgA2DEoRsY6aeMn48Qo11zVU+MPlqv6n9TfTsEHCaZ3YQtnuGRKGC3d+lTK+bHQfHONA7LxDPDF66yMFX2czUvg8ArBh/C0ApaIO2WpybIDhI9ew4Y9WqAedMVxLsSlNUGFn/qnWk+YHhsTJ4gNfp0z2DPNFXwKx38Mc57z+d3XA2MjN9+VxOsKETyUAGwagFLwhVUEOP2/4YJnz23C1Zerh5w1B6Ta1iSIpfOk4+Q+2kbJEmjJmSo7WSZzo8agH+hKIPVcmvrjaf1TkpkeKeBNpwe8vgA0DUMLSwPCl5MAzhved3YarLlH7nTTcTrf91RWGCzu/EFspgm/OmS0+Xpc/sWxQN7cA7JdA7Pd082eX+4yI2BAki9baDKhMANgwACVqw+ECwveE4b2lzmzDVZaouxwxXIi3KYw0hamwKwkxSZOx5uy54hPfxUzyvNHV7TwKxIj9dog/ueQ7MGz1FXGI0qqjaAq/wgA2DEAJ2fDjbKLbUX2VJU6rwuUXqtof0p+Ms0r0KEi43k84wz6qizFnLRKd+i58oseVzrjHgdixELf75JJvv5AVV8WhaqseE2IAGwagZFyBuZtBdDykr7xE7awq3PWw7gyfVWEC7+ZcdUJsoWwJ5tyFwpN1n4wpc6kDrAux58rEx5d8/UKWXROHaW1GfGQB2DAAJWHDt9JtPgd1FRc7pwp7HdCf5VvlBkyFXV2IbRSRbBEuzDn+7eMxZS92hHUh9jwhfj+we/fHiwOEjxVWLSoTADYMQLHb8NVUW9v9uoqLnE2FKy1Wtd2vOxxlEemgwiC/Q0zFm3IXZh3//v44z4BOsC7EnlMlsFuXxwtO5d6TmFUkTeJXGMCGAShGG76QYG2+R1d+oVOpsOcCVbs8Fc7VkAQJFQZPsVC2OGPWovTj9e6OLnO+PZQLsedHddUCe3R+vOB07n2ZRU1iQgxgwwAUnw2fjLM23KHzXOBUKtzhoO5krEWoJW0YC4N/TogtlC3RmLs4/fg3QSMhxIidVybeC+zu83DOmdwHeVsm8FEGYMMAFAMUzRyNsf66XVfWWWy40iKV137dmbhnXWG8nAMvCjFBk6lm4ZK0498HjfY8jw4xYtcT4ooXunR6NP+c4KHcosGEGMCGASh6rCSzP8L601ath1PYcMVFqnYH9EejregKg9cJMUNTNJWoz1mSfPTHO2PKX0CHGLHrVA3s3u3xorOCB1IzKhMANgxAUWOy0jtCLPW3aDzmO0NBovVe3cFIS66GyusKw4XB67BQtnhd1srkEz/eGlP2PNauIXY9If7gYs/uwYvOCx9hywSADQNQxOgs9ObHlnqbNGXmO0FXWH8i1irUUugKgwJNiNnTzbYMg2hD6tmfbo0tiw4xYudr1y72aP9ozmnBfSUrxPiIA7BhAIoIjYla/9D8jYPbcPmFqhZ7tMdjLDI9usLg7YSYoqkck2xD6tkGQRMrBXTmQLwQO075C518Hs45lnNHaFYQFNblANgwAEWB0kStvm/+eoMD2zCrwnt1e8ItORqSwFAYvD0kRWYaxDszLrW5P6NqYDfOWS9YF2K3qRzQ1evBrINZNwRGOUFhDzGADQPwzsgM1LK75toOa8Nl5qua72FVOEtNWQmMhEEhJ8QkTQlM8qM5t70fzq4S0A0TYsSeO8RVArq1vT/zWM4dmUWNDjGADQPwroh01LxbxurrNO7zHFKFW+7VHWJPbFA2Ev0I8A5CzNAkRcotmvPChx0fzcubEEO8EPsV4koXurS8N/1I9i0phBjAhgF4t5EYk6sh/7hu/HKN2uFs2GO+6uet2t1hFqGWIiioMCiCCTFN0zqbMUD42PfJ0k8v+bmf84F4IXYbj3MdWt2bsS/zepZRYqUImsEnIIANA1AoG85Sk/5XjV+sVvMcyobd56m+26JZdd+UoiBteEkCitSJNTb9TUn4iIgNX1zpzzvnDetC7DYVL3Rufm/a1vTADKPYhg4xgA0DUDgbTleSky8b/rPKwWz4+y2aFfdMfAlhsuHdHCh6IdYTpseK+Flxe+vfGo3bHIg9p8KFzg2CJm5Ou5BhkOBRHYANA1AYG06Rk+MCDZ+udBgb5uWp8PqH5hQFaSGwTA0UlxCbSWuyLndz2vkmd6dUutAFNWLEblP2fIf6t0avTTmdphdaSQIfiQA2DMDb2XCilBx5wfDxCjV3nmM8m6u7UbPiLluQsJIQYVC8QkzSZK5RdiDresdH8z682IuLzWuIvYZ71uuHW2NWJp2M12SZCSs+GgFsGIC3sOEEKTnsnOHD5WquI0yFv9moWXDbFCsmzVimBkrgFyRv0YTMrA4UPh4ZsbH29aE44IzY84T4x9tjlicdT9TlWCkCv78ANgxAQW04TkIOOm2otswBbLjOBs2CW6ZoEWG0YioMSm5CTLHv6gxhquTlSccaBU2ufKErznMg9hnP8x3r3xq9IulEsj7XBiEGsGEACmjD0SKy70nDe0vUdj4Vrr1Bs+SOiS8h85/NwYVBCTuxhbRlGsSHsm56P5xdFec5ELtdu3a+fb2bI5cnHU/S5VhJGz4rAWwYgDfbcKSQ7H1cX3WJvXeFF942JcjwbA6U7pCYUli1l8UhIyLW1742pNz5jnBixA7jfs7nh1ujVyefTNLlWCgb9hAD2DAAb7DhMAHZ7ai+0iL7nQrX3cgWJGLFBLrCwB6c2ExZo9RpG1LO+jyc/dGlXlwsJEbssjLx8+1xK5NPokMMYMMAvNmGn+QSnQ7rKtirDdfewE6FY8SE0YaZMLAXIbZRhMikuCz+P3t/AR1Ltx3mouOeY4Y4ZMeJrwNO4hu/xH6x342dm+QlN3HetWM4W41qMTMzMzMzMzMzM28xU4taUqvVjPW/IfX/6+yzodTqKknd0vzGGmecccbZ6urqVVVfzTXXnFM2Cyn/qtMQWtbBUEkh/us/7LEIWS9bZx9BDjEANgwA30SGfDd2KPnrYo4K2vCP/e5UOLifv3rxfQUJcGFAdYRYJpNxJfyPrL3k7Yb/OeLxD1pI0LUOhqqNn6//X3/QbRK8Vrp6eyCUiiBlAgAbBoCvIJV9178r/otCzq8Eqlzj5d+PZ/n13G2b+z5XGH4tQMWE+L4gsYwhZLWeTVrNJ/+bLuNfgvprMFRs/LjuL/9dj1ngWvFH1p4AhBgAGwaAr9kw0r0j/p/57F9WJRv+kS/zX8ax3Dt5s/TvEyTglwJUWYs5Er48k/hvx/x+t037Fxr+CiQMhqpVmQhYK16+3RfJxHDNAmDDAPAzSGRI66bo/85TLRv+pzF3KjxDl3CEiAxkGFAHIZZnEvddzPutFv6HPttfbfgJSBgMlRLif9Nl4rtasHy7B0IMgA0DwM8gln7XtC7+rznsXwpUlQoS/yyW5dnFXzyV8sWQKwyokxDLEIQvFe1yT2uOh7Smwv9pu84vNvw1lGCDoTJl1/7yX3ca+a4ULrF2+VIh3FsBsGEA+B6RFGlcE6mIDf/Yj/m7MSzndt7C6Q/b5uAXAtTPiWU8qXCauRm3VUueCP6XHfqQTAxDVXKI6//y33SZuH3Mnrha5Uj4cIsFwIYB4HsbrlkR/eds9i8FvL4N/3bkjXkDd/RAwhGBCQPq7cRSRMoQ3owwlqM2Kv9yxPu3Wqg/qoOKEzBUojHHv+jQs5xPGrlcBiEGwIYB4A6BGClbFP5Z5u0vvrYN/0YI07iOM7ArZgkgVxh4I04skIqP+Zc9F3PBa6X/bcjl7zUTf1T3FyBkMF49Qvw77VrGs3GDjCUQYgBsGADubLh4QfinGa9pwz/yZf5W+I1xLXdoT8yGbXPA2xJiGYIIZeIT/mX72ZTTYsaf9Fr/3WYCdOuA8brjR3V/8dutmmZzCYOMpVsxTwb3XABsGHjP8MVI/qzwT1JZv+D/air8jyJuDGq5g7tieYIE3JaBN+nEAqlok31cftRvu5DyZ/320K0DxuuO/63u//mdNi3T2fh+xsKtmAd3XgBsGHi/8ERI5pTw/53yajb8D8OYOtWcji0xkyeTwf0YeONOLGOLeau3B+VH/Q6L6X/aZ/sbTQTInYDxihHi32nTMpqN7QMhBsCGgXduw+mTgj9KuX0VG/6VQKZmJbtjU3TFQ6SQIQG8DyeWyKQsMWf99rCOPuK6lPWn/Xa/0aTxv4ETw3i9lAm9maieizkQYgBsGHincEWy1AnBHya/dGz4R77M3wy/iwp3b4tv+DIwYeBdCbG86ARfKtzlnDbSR90+Zv+XQad/1Eq9r08MWgzjhVMm/uK3WigGMzE9F3M3Yo4MkcFFCoANA+8LjgiJHxX8QSLr5/1fOldYv5bbtyNmCeQqDC4MvDMnvrdiGSITSEV73LPm0wnflcK/GfP9vU79X274G+jZAeOFc4j/cRvNcDamlzHPEnNhUx0ANgy8MxsWItHDgt+PZ/2c38vZ8D8Iu9Gp5nZsia95CISFAQgVyxAZXyrc4571Xswn7zToTkf+QbfJrzb+BOLEMF4yZeKftGnpz0Z3X8yxxFy4LQNgwwDY8PPmCmtVcbq2xdd8mRT2zQHAD04svY8TM4Ss+Zvt0sNe24WUf9tt+ovQxw7Giwlx/V/8ZiuFNhXWeT4DQgyADQPvCLYQCR/k/6u4l7DhH91FhZmalXcq/EOLDbjbAsAPQvx9RvGdFvOkgk32cdlhn/NS5v8Ycv9nHbq/0vC3UH0CxgukTPyDFpL+THT3+dyNCHKIAbBh4H1wK0SC+vj/PObmx89vw78ZfkOr4nRsiZiwbQ4AHgsVy+6cWHjIu+g5n4vbrNWdjvwP/Xa/1UL9+fq/AmmD8dw5xAazd5vqIIcYABsG3osN+/fy/+nz2/DfCWGSyjlNa6JLrgyKqQGA4k4slIrOBczp682q40H/1aK/HfP/3Xadn4dudjCeuewabSq87XSSKWJDhBgAGwbeOCwB4t/Le24b/pVAJrGc07whZnARyBUGgKc7MSJGpBwJ/5B3MXa1krvfbrOQ8qd9dn+/mfTz9f8LNtvBeI6ya3+/hUScCGo6Gb8W3YIQA2DDwJu2YT7i3cX7nahntOG/F3Knwq0b4ms+Au3mAEBJJ/6hIpsEkfIld4WKm0/HQ9fLyJMhf9Rj8ZstlPtaxaBxMPAcf7eZSJkMaaCPXghvpCDEANgw8Fa54SOu7bzfjrj50bMlSPyklNO4JrriQQUJAMDJjD/NoGBulBz2+qzkUydD/7jP6h+2kCGJAgaejTlaqT8ZDyg/6j8VXEsRKVx9ANgw8DZt2Lmd94+ex4Z/wZ/5P/LZpYvCU7ZMArnCAIC/E9/1tGOLefvcs8nr9fKj/uC1Uupk6L/tNv31pg+QQQEDFyH+jWbC/xh2yz/opPMvQYgBsGHgTdrwd87t/Oew4Z/zY/6XHHbBvPCYJRNLQYUB4Fm1WCaWSdgS/gn/auZ6s+Z4OGit5G/H/P9lp8GvNX34cd1fQhIFDCzjlxv/5r8OOecfdJ7wr6QyEGIAbBh4WzD5iGMb7zfDcbbhXw1i/tdcdv6ckH77fVQYZBgAntuJH6LFYpnkQngzfrWWv9/lupT9N2N+f9Rj8Y/baL/SCEWLYSg5frXxJ/+/Ec/iw547IYYIMQA2DLwlrvky6ybe3wu9wVGFfznwToVzZ4VHLKkEcoUB4JXkWIJIOWL+Afd87Gql9LAvZL1Ufzrq/zvo/C869H6t8Sc/qvtLMDwYTxp/p1njf4545B90HvMZEhBiAGwYeDNc8WTmjdzfCMHNhn/en/mfsm4zpwT7TKkIXBgAXtuJ78pQyKQcCY/Ou5xnbrefTWXvt3kv5xHHA/+gy+TXmj5AtBiG4uPXmj78lyGn1J2mfe65BFImALBh4M3YsBl+Nvzz/sw/y7jNmBIc3EhFEgQyJABARZxYnkQhQaRCmYgt5p3wL6evNiqPBkPWyrSnIv5Dn+0/aaX9WuNPfg6qF8N4bPxiw1//xwH79N3mA96ZWCaBmzwANgyADf9MgsR/yrpXYaZUvm0ObpIAoFpa/L0Yf59eLJSKL4WsxZvd1tPJ1J0mp8WMD2P+/2efzT9r1/2NJo2fg1QKGN8Yv9L4t/91yDlrv/WQdwERYgBsGFB7ztgy4zru3wnBqsK/FMD8T5m36ZM/VWE4twCg6nJ8j/S+HsWtmLvLOR2/Wq2lD8dv1TosppMnQv6s3+5327R/uQH23sH4SsrEfxt2ydhrOeCdgRADYMOAWj8Lv9tnyvRquH8nGJMK/9iP+acZtykTgt3r7xMk4NwCgNqZsbzRHU8qPBfcbLKPJ6/WGuijaTtNnsu51MnQP+n9vrUHFGuD8VBl4v8acEjeadyDHGIAbBhQaxvevZLpVHN/PfgGS67wn6Syksf5DyoMMgwAaq7F3xcw5ksELDHnmMeYY241nYyn7jS5fMzSGA/8971W/7iN9utNGr/U8NdQzBhyiDP3Wo+gygQANgy8Wxv+5UDmn2WwUibuKkhArjAAvDEt/iTJ+E6OeRLBMY8xdb3ReDKWttPstZxvMBPz58Puf9ht/rvtOn+vmfgLDX8Nm/DeYQ7xfx9yy93vOIIcYgBsGHiHNvxLAcz/nMVOnRDsQa4wALwPP5ZvvxNJJWwx75jPWLrZ7buYLz/qT9iu814pMJtL+Jsxv/9Pn/U/aaP9UsPfgBm/k/HrTR/+65Bz0k7DNoculkngSgHAhgE1s+GNSymtShkb/rEv80/SbpPHBXuQKwwA70+LP40ZcyUChpB1yLtYuz0cvVypp49m7bUGr5WazSX8+bD7/9Fl9HeaNKDZx5tv3fzHvVZRm5VbnGMQYgBsGFAzG148k5LKOb8W9ORc4T9MZsWOCLavpCJIkACA93wb+WnVNplcjgVSEU8iuBaxNznHA4zFquPBxO1614/ZWlPh/33I7Q+6TP5xK+3vNRN/teEnv1D/v350l3YMIeS3MH6h4a/+pM86fqt2m3MikorhqQCADQNqY8NzJ1KNUs6vPsWGf9Gf+ceprNgR/vYVJEgAAPDZXQX5JOH4rg2ePHh8wr9cZO32MxYqjwaTtxv8Vgot5xPJE8H/bdD13/da/V6HwT9sofxK49/+uB725Knx+KWGv/6zfruYzep19qFQJkK+g6cDADYMvEUb/jk/5h+lsCKH+JuX30eF4TQCAPCoIsvTKiQyqVAmZom5dP7lGvtw6nqj83ym4mggZbsxYLXIbiFVczLsL0a8/kOf7e91GPx6I+RXqGHKRMPf/FGvhe9qwfzNtkAqBCEGwIaBN2jD/yyG5dvNWz6XCCBXGAAAJW473/005/iuH55MzJHwLoWsYx5ji308x9waZCw2nYwVHnTFb9V6Lucaz8b9zajfn/Ra/6MW6i/U/xWkVaj++Pn6//Wvugzdl3PuhRgixADYMPCGbPjHvszfjWI5t/HmTiR8MaQKAwCAy13op2kV8vYfYplYeJ95zBHzzwTMDfbx+NVq8+lE3n5H5Eal+8ccw5mYn4z5/5dBpz/oNv2dNu3fbKH83WbCrzb+5Bfr/+rHkIWsGuPH9X/5r7sMA1eL124PRDIxzHMAbBh4Czb88/7Mf5PA8urkzZ9IQYUBAHium9LPJB5/3wdEnnwslIo5Ev6Z4Hr99nDyer37fK7meDhrry1ms8ZvtdB2IU1vOkpjLODPh9z/Y7/9H/aY/16H/m+3av5644efg/4grxMh/qs/7rXK3G09FVxLERnMbQBsGFBdGx4/lPxN8SM2/GNf5u/HsXy7+UunP6gwuDAAAC99v/oeeYrFw/68axGbzr/c4tCXWLuTV2u95/MN9NHiw57UnaaI9Qqv5TzbhVS96aifjPn/tyHXP+m1/r0Og3/QQvrFBki6eIkcYtpU2MjlMl8qggkMgA0DqmvDg3uSvyjk/Eogmg3/TtSNWwd/ji7hiUCFAQBQOUWW/VDf7a4zyH3PPJaYeym8PRMwj3mMPe7p8u3+5PV678V808l4+VF/1l5b4nZ90FqJ/X1E+a9Gff+03+73Ow3/USsVmobgO/6416r8eIAl5sJcBcCGAdW14bkTCaGM/a16wz/2u1Nhuxbu5JGECyoMAICa+PEnlvxTUZaHk0V3QyyU3pW2OOIxVlj7Y1crbadTlUeDufsd8Vt1gaslbh+zLeeTdKejPoz5//mw+38csP+33Wa/16H/T9t1fqdN67dbNf9BC+k3mjR+renDLzf+7X3V5L+AZIyvjn/dZZS738EUcWBmAmDDgOra8CkbcWjj/XbEzY++psL/Ipbl2MabPAYVBgDgDXrzQ9038feiLOZJhCwx54x/vcM5Wb7dn7peH2AsdpxN19FHSg57s3Zbk7brI9crfVYKnBYzzOcSDaajqZMhfzPm9+dD7v9l0OlP++3+fY/lH3SZ/MsOg99t1/mtVurfbyb9etNPfqHhr370LkPO/6Hfrvp46FbMg/kGgA0DqgtfjJQuCv9z1u1nyRI/9mP+81iWQysPosIAALwrRUa+iCjLg8oCqYgt5l0Lb8/41wfc8y0OfeX2YPFmd4a5OXa12nex0HY6WUcfKT/qz93vTNtpjtusDVsvD1wt9lrOc1hMt5xPMpyJoU6G/mTM/y9GvP7vIdc/67f7ox6L3+80/mftuv+4lfb3m0m/3PA3b6nE8q82/sR0Ln6WuSWUQlkJAGwYUGFkCLJ/I00YF/yfGbe/HPhpXeEb53buxKGELbx7MIAKAwAAovypK/+gyz/NwRBIRVyJgC3mMUWcK+HthfDmVHB9wr884l3sc8+3OSdr7MP5m+2J67Xhy+Xei/m2s6kG+ljV8WDJYU/+fmfmXeC5IXarJnS9zHel0Hkp03ohxWw2Qfe+VsZfjHj99yG3/2vA8Y97rf5Nl/G/6jT43Xbt32ql/HrjT36+/n+pYK7zj+v/8s/67YoPehgClgxqSgBgw4CK398lMuSIJataFjm28wll3J+UckwauKmTgo/nd9vmQIUBAAAUd+WvJi5/ac8P6RkPqczybGaBVMSR8OWFMva4p5vs42XWXcLG8OVy/8Vi5/lM08l49fFQxdFA0UF3zn576k5T3GZtzGZN2EZ5wGqx70qB+8ccl8VMp8UMm/kUi7lEk9l4velo7akI2lQYaSJYYzzgr8d8/58Rz/857PHnw+7/bcjlPw04/sd++z/tt/vjXqs/7DH/dz1m/67H7P/Vbfp/dBn/fpfR73cZ/etOw9/r0P8XHXr//IfxT9t1//c27f+9/afjH7fRfquF8pv347dbNX+vQ/8vRr1Sd5t2uCdimQSeIgDYMKD6N/G7CDFPjOwxZdN0yeSRZIMhveHfWTIkSAAAALyKVf9sBPp7gZb8INA/3Q5479DyYsw3Ys6VkHV+F5C+ovMv97lnO5yTTfbx6u3BR9be4s3uLHNr6npj/Gp1mPFxkLE0yFjqu1joOp/tOJtuO51qOhmvp4/W0UfqTkYq7yLWvUUH3UUH3fn7nVm7rWk7zWk7TfKRtF0fu1kTvVEdtVElH6FrZf4rRX4rhX4rRcFrpZm7Lb0X83T+pQhUGAAbBtTOiaWyuyEDDwYAAFBPjf52TPpzsf50iD/xbHmvE55UyJXwuRL+nWeLuNci9sO4Et1eCJhnguuHQedfHfEYh9zzA975MY/BFHGEUrHsfnERfhoAbBgAAAAAADV2a9QkkE+H7IfxU+BMAmDDAAAAAAAAAAA2DAAAAAAAAABgwwAAAAAAAAAANgwAAAAAAAAAYMMAAAAAAAAAADYMAO8BlN3ZcHIAAAAAAGwYB9WQSqWSbyCDCrrA6yGTyZhM5urq6vTU1OTkxMOYmpra3Ny8vb2VyaBtKQAAAACADWNAIBCcnZ2trKzMzc3NfMH8/Nza2urZ2alQKAQhBl4eOp1eW1sTEhLs7ubq6uL8MNxcXSLCw3t6em5ubmBmAgAAAADYsJKIRKLZ2dnCgoLQkBBfH28fb6/Php+vT2hISEF+3trqqkAgAO0AXhKpVFpfV2dtZUkhk4gEjc8GlUJ2d3NbmJ+HVzUAAAAAABtWksXFxYjwMEMDfQqZRCISvjUM9PVSU5IP9velUimcNODF4PP54WGhFDKJoPHhq4NCJtXW1rBYLLBhAAAAAAAbfjI8Hi81JVlXR/tbqiEfGvfD2MhwYKCfx+OBdgAvxu3tra+PN5GggTI/83JzLi8ZMC0BAAAAAGz4yaysLDs5OaKrxoMQEzQ+pKQkn52dgXYALwaLxfLxfsSGs7OzGAywYQAAAAAAG34iQqGwpqba2MjwURV+GBbmZvNzc2KxGMwDABsGAAAAALBh9eb8/Cw2NkaLpqm4DZOIhJLiouvrKzAPAGwYAAAAAMCG1RipVDozM+3q4kwiEhS3YYLGBw93t82NDdhLB4ANAwAAAADYsBrD4/Gqq6uelCYhHwb6ej09PVwuF+QDABsGAAAAALBhdYVOp0dGRtA0qU+1YSqFnJqaenx8LJNBeBgAGwYAAAAAsGH1ZGhw0MbGWpFqEl8OV1eXmZlp6MQBgA0DAAAAANiwWiIQ8NPT0nS0tZRQYYLGB3093braGiaTCf4BgA0DAAAAANiw+rGxse7u5vrU/XMPg0jQiI6KhL50ANgwAAAAAIANqx9isbiiosLI0ABFLyhkErp/WFlZzsxMC4VCUBAAbBgAAAAAwIbVicPDw6DAAAqZhNJ2zsfH29BAH12Xy8rKrq+vQUEAsGEAAAAAABtWG6RSaV9vr421FYpeaGtrNTU1hoaGoFeccHVx3tzclMlkcFYBsGEAAAAAABtWF7e4ycvNMdDXQ3ELd3e3paWl7u4ua1RpplLInR0dXA5H9S0E+QS1OEgQO7BhAAAAAAAbxh+ZTLa2uurv56tJpXxLLDSplMzMjNN7IiLCNVHDw7Ex0cdHR6oWHn4QSolEwufzb29vr+9hsVh8Pl8qlaqCdD4cgEwmEwgEbDabyWTKj5PNZgsEAqlUKrtHFfz44VDlR8vlcm9ubpjMaybz+6OVSCSyH8D3ULHb8MPBSyQSgUDAYrHkZ/r29vbL86wKU/fhPD/MipubGw6HIxKJnukkAwAAAGDD7wWhUNjR3m5laYniFsZGhl1dnRwORygU1tbUmBgboViIpYX52Ogon8/H/dn8qRZ8Cooayv93Pp9/sL8/PT3V1dVZW1tTWlKSn5+Xk5Odk52Vl5dbUlLc2NjQ09M9NzdLpx8LBIIX1iD5Z3G53IODg8mJia7Ozvq6utKSkoL8/Nz7g8zNyS4oyC8rLampru5obx8bG9va2mQymQ+6+ZIaJP8JRCLR8dHRwsJ8f19fQ0NDaWlpUVFhXm5uTk52bk5OYUFBeVlpfV1dd1fX9NTU/v4eh8P59JXjtWxYfvB8Pv/o6Ghubq67q+tuPpSW5OXdHXl2dlZ+fn5ZaWlDff3gwMDy8kcG40Kumy+vxQ/n+fz8fGlp8eE8FxTk5+bmZGdn5ebmFBUWVlZUtLW1Dg8NLS8vX15eisViWEkAAAAAwIafxvX1dWpKMnqZYU9Pj/X1Nbl7LS4ueHq4o+y306RSigoLLi8v8X0eSySSk5OT4eHhlpbm5uamh9Ha2jI0OHh8fCQSiT79RIlEcnvL2t3dGR0Zqa6qiouNdXdzNTUx1qJpUilkCpn06dDT1bEwN/Py9EhOSqyrrZmcnDw6OmKzbyUSyfNZBYIgQqHw6upqbW21p7u7rKw0NjbG1cVZfpCfHaF8aFIppibGzk6OEeFhebk5bW2tc7Ozx8fHHA7nvgvgMwoQgiAi0d3RbmysDwz011RXJyTE+3h7WVlaaGvRvjylFDJZR1vLwtzM3c01Jia6qKiwu6treXn57OyMx+PJzfglbVgqlXI4nOPj47HR0erq6sSEBC9PDzNTk/vp8Pl51tXRtrWxDgzwz8hIb25uXlxYOD095fP5L/PiIZVK2Wz2wcH+xPh4Y2NDRnq6n6/Pt84zlUI2MjSws7UJDAzIyspqbWlZmJ8/odMfXj/gFgcAAACADT/C0tKiq4szepnh/Py8q6tLecCJwbhIS03V1dFBKTwcGBiwubkhkUhwPE46nV5cXOTgYG9ooK+vp/swDA30bW2s8/Pz9vb25IExmUzGYrFWVpYbGxtiY2MdHex1dbTJJCL6dyQSNEhEAplE1NfTdXN1SU1JaW1tWV9f4/N5z6EUYrH47OxsfHysrKw0NCTYwtyMpkklk4iKNAIkEjTIJCKVQjYxNvLy9EhNSens6Njc3GCz2c8kQEKh8PT0dHJyorKiPDIi3NbGWluLJj+l6Af8cFY1qRQLc/OAAP/s7Kzenp6d7W0suvYkG5YvDmxvb3d0dKSlpjo6OOjqaFPIJEXmA4VMMjIy9PHxzs7OGrx76Tr+7KUL91eO29vb9bW11taWpKREF2cnA3096n1pQ0XOM4VMMjYy9PbyyshIb29v21hff74pAQAAAIANvxFkMllV5SNlhk2MjSYmJh6qCAuFwpbmZgtzM5THs7mZ6eDgAI+Hm0dKpdKBgQF7O9v7ksdfUQErS4ue7m7O/e6946Oj1paWiIhwC3MzTSpFiUbTRIKGthbN1sY6Ljamu6uLwWDgqBQIgrDZ7LnZ2YL8fC8vDyMjg0cLOaMMEpGgRdO0s7O9O9Tu7rOzM3zj2fKjnZmeLsjP8/H2MjE2olLIyh2t3Nh0tLUcHewTExP6+nrPz8+VO1rFbVgmkzEYF319fQkJ8XZ2ttpaNCX6y5CIBF0dbWdnp5zsrLm5Wc7zbBIVi8V7u7stLc1RkRE21lZaNE3lWuGQiAT57I2Jie7s7Dg5ocvfEuF2BwAAADYMfIXz87Pg4CD0MsNxsTHHx8cPa8QIgqytrfn6+FApZJTCw8VFRTgmSwiFwurqKmMjQ5QCcBUV5dfXV9vbW9nZWXa2NjRNqtKK+alV2NnaVFVWHB8f46IUCIKcnJw0NjT4+/kaGRp8Ve6VEc37Q3VydMjLyz04OMBLiO+Olk5/lqPV1nJ2dsrLy11eXhYIBE/Nc1XQhs/Pzw8O9svKSp2dnbS1tJTus/hg8/p6uoEB/v39fSwWC1+/FIvF8/NzyUlJtjbW2Keu/Gi1aJoO9naZmRnr6+vQEwcAAABsGPgKUqm0s6PDwtwM5ZmqrUXr6+v9LMrL4XCysjJ1dbRR/qGPt9fGxgZeXZoFAkFFebmhwTdj2Fo0zezsrL6+3vi4OAN9Pewy8alVWJibFRYWbG9vY1QKHo+3traam5NtbmaKl1l+dqi6OtqZmRmbm5tyxcR2zvkb6+t5uTkW5mbPd7QREeGjoyOXl5dPmiqK2HBGRvrE+Hh2VpapiTFGD/7sTc/N1aW5qfH87AyX6S2Tya6vrwcG+oOCAnV1tHGcug+rHNFRkWNjo9fX19A1HQAAAGwY+Bmur69jYqJpmpooT1MvT4/d3d3PNg8hCDI4OGhlZYnyD3W0tTo7O/FaU37UhqkUsoeHu7ubK/p2QKWVwsTYKCszUx52Ve4rCIXC6amp2JhoQwN9fI3ns6Gvp5uRkbGzs4Mlw1UsFs/NzSXExz330WpSKZ6eHvX1dRcXF4pX5VPEhv39fMNCQ4wMDXA/fhKRYG1lWVdbe3FxgdEvEQS5urpqb2tzcXZGWWzBOKgUspenR0dHhzznB259AAAAYMPA98zMzDg6OqC4giaVUlJc9NVOy+fn5yEhwejP77i42JOTk5exYSJBg6ZJfT6fIGh8MDUxLi4qOj8/V6KUsjy9JDoqSk9X51nl8m4QNExNjIsKC5TuPYEgyMbGemxMNL5R9m9GWylkWxvrurray8tLBc+tIjasr6erRdN8puMnEjQc7O26uzoxpkzc3t62tbW6ubo869SVC7Gnh3t/fx+bfQspEwAAAGDDwPd+WVlRYWyEVjnY2tpq9BuVg8VicU1NDUoiL0Hjg5mpydTUJC4Ji4/a8EsMgoaZqUl7e9vt7dMECEGQ09PT9PQ0xeOs8joM9/Wzvh8UMlHBihPyxFxzc7Pu7i4lYvMIghweHqalpjx3VPiz72tladHd3cVmsxU5YEVs+NklnkwK8PdbWlpSeoZLpdKenh43VxeUxjdfLRxBpZAfSq0pPis0qZSgwIDFxUXIIQYAAAAbBu44OTmJiY7SommiCEp4eNjOzs5XyykgCLK5ueHp4Y6SkUkkaBQW5OOylw67DZNJRB1tLUMDfSNDA1MTY1MTY0MDfR1trSfF5IgEDT9fn6f6BJfLra2tMTU1edRa5Km01laWPj7eUVGRyUlJWZkZ2dlZWVkZiYkJYaEhHu5uVpYWujrajybCEgkaXp4eKyvLT938x2QyS0tLjI0MFTXv+8xUYyNDC3MzK0sLG2srKytLCwtzY2MjeSEzxf+Ov7/f/Py8IhnPGG2YSNCgUsh6ujpGRoYm95PBxNjI0ED/qRUntLVoOdnZZ6enSiwXSCSS1dUVH28vlD2sn+yHo5maGLu6uoSFhiYlJmZmZmRnZaWlpcbGxgQFBtjb2RkaGjz6dwgaH2ia1KSkxJ2dbXyrHwIAAABgw+qHVCqdmpp0dnJEefbr6mhXVlZ8NU1CDo/He3QvnadSQoajDRMJGnp6uk5OjmGhIelpacVFheXlZXV1tTXV1aWlJVlZmTHRUe5ursZGhorIhPy0FOTnnZycKJh/edf4em3Nx8f70b9PpZCdHB3S09Pa29tmZ2e3t7fo9OOLiwsGg3FxcXF0dLS2tjo1OdnW2pqdleXp4Y7yJvPwB8vKSq+urhQ/+QKBYGhoyMnJUZFtcyQiQV7wOCU5qby8rLmpqbOzs6+vr7u7u7WlpaqqMjs7Kzw8zM7OlobayvvTwiA52VnHx0ePnlulbZhCJpkYG3t5ecbEROfm5paVldbUVNfV1VZWVhYWFqampAQHBdnaWOtoK1qAwtLCvK+3h8t9cgyeTj9OS0vV09V59CTb29kmJCTU1daOj4+vr68fHx+fn58zGIzT09O9vb3l5Y99fX2lpSXBwUHGRoaPHra+nm55WalyCT8AAAAA2PDbgc/nl5WVGqKWGbaztZmemkIJ1MlkssHBARtrKxQpMTI0aGttVXD5G3cbppBJLi7Oubk5A/39q6srh4eHFxfnV1eXLBaLyWQyGAw6/Xhzc3N0dLS8vMzP10dbi6ZQwqiD/fj4mIKtp3k8Xn1dnZmpCfqfNTYyjI2J6e3tPTg44PF4Dy2X5fsX5f9FKpVKJBJ5Q7WRkeGY6Gh9PV30P+vl6bG0tKjgdjoEQQ4ODuLj4hTZiUjTpAb4+1VVVk5NTe7v719dXXE4HIFAIBaLhUIhj8dlMpl0On11dbWrqys+LtbUxPhxwyZo2FhbDQ0Ocrlc9ANWwoblWyGjIiNramqmp6e2trZOTk4uLy9vbm7k8+G+HNvBx48fOzs6sjIznZwcFUlgIBEJAf5+W1tbT9qdxuPx2tpabWys0eWVpkkNDgpsb2/f2tpisVhisVgqlX45KwQCAYPBWFhYKC0ttbO1efQ8uzg7DQ0NPlPVZAAAAABsWD04Pj4ODgp6ZA/cXZnhI5RWtAiC7O/vBwcHoUgDlUJOSUmm0+kYA1FK2LCurk58fNzIyMjp6emnfol8woNMXF1dzc7OZmVmWllaPCoTVColMzPj4uJCEZk4OaHHxcWieDbxPh25oCB/c3PzoT0byl+WHzafz19dXY2Pj9NFDS4aGug3NjYouNNLKBS0trRYW1mhK5q8okJmZsb8/Pz19bVQKHw45s+QyWQSiYTL5W5vb9fUVDsr4JdkEjE5Oenk5AR9wjzVhskkopOjQ2Vl5cbGBpPJFIlEcq387GgfDvjk5GRwYCAyIlxfT/fRT9GkUlpaWhR/5ZPJZJubm+FhYejRfQMD/YT4+IWFhdvb7zuEo1yJMplMJBIxGIzWlpZHE5G1aJrJSYl7e7tQXwIAAABs+J2CIEh3d7elhTl6UKq9ve3R6BGHwykuKkJvZefi4jw7O4tx487TbJigYWign5qSIq8y9iA9KCcEQRCpVHpyclJVWfmtjnefDhtrq+Xlj1Lp48mXKyvLHu5uKH/QxNgoPz/v4GBfnk+i4FlCEEQkEs3Ozvp4e6G81VAp5KTExKPDQ0W85/z8PDoqCl3R5Av3tTXVp6enDwf86LmVyWRMJrOtVaHiCRYW5jMzM+jx7CfZMI2m6e/n29PTfXV19am4ox+wQCBYXl5OiI/X09V99CMiI8L39vYUlEuBQNDU1GhpYY5y/NpatLjY2NXVVcVbk8j/bzc3N+3t7Y+eZ1sba3y7RQIAAABgw+rE7S0rPj4OXXrcXF3W19cebUcslUqHh4bs7ezQ84/r6mpvbm5ezIZ1tLWSkhLX19eequByIS4qKjQxNkI3LQqZVFtbo0jMdX5+ztHB/lt/jUQkpCQnbW9tKVEbWN4zubCgwNBAHy1120PRZImxsVEHezv0wLCJsVFFefnJyclT290hCHJ9ddXYUG9tZfnouS0rK0VJWH+SDZNJRH9/v/HxMTabjbLQ8a33jY9LSxHhYY+m0FhbWY6NjSqYPHNychIVFYl+Afr6+kxMTMgzRp50nu87UTNqamqsrSxRfkpNKiU/P+/i4hxsGAAAAGz4PTI7O+OEWmaYSiHX1FSzFPBXBEGOj49DQoLRVmYJGhER4QcH+1iSJRS3YQ2ND35+vvPz83I1eaqxSSSS7e3tsLDQRzd++Xh77ezsPPqlVldXPD3cvxob1tD4YGlpMT6maAryV9VneHjYztYW5dc0MzUZHhrkPxYFFAgEGRnpj2YMx8ZEb29vKbctUiaTnZ6cJMTHaT/2KZ4e7ru7u7jYsKWFRVdX5+3t7VMng3w+CIXCsbExN1cX9E2Q2lq0yooKJqrBP9DX24uebW+gr9fS0sJkMp+k7w/HLJVKDw4OkhIT0Xe4urm6rK2twl46AAAAsOF3h0AgKMjP09fXQ3lMWllaLC8vPxoYliMSiaqqKh8tPDw9PY2lNZriNqyrq9PU1Hhzo4xJyGVCLBb39/Wh+4pcWcbHxx4NPzMYjNzcHDNTE01NKpVKeRiamlQjI8PS0hIGg6HcoT7se/P28kSPAra1tj6a9HJ4eOjp4U5EDQwbGxkOKrDFDV3UJibG7e1s0c+tthZtdnYWpQqYgjZM06Smp6UdHx0pOJm/esy3t7fFxY+kA5GIhPi4uKPDw0flksfjJcTHowSGiQSNmJjog4MDLMcskUgmJiacnRxRThFNk9rZ2QHJEgAAAGDD7469vb0Afz+UQBeRoBEbE31yQlc8gXV1ddXN1QVFyMgk4n1Pu6vntmESkRATE727u/vUdfzPvhGTyYyLi0Vfy6ZSyFVVlY9mgIjF4s3NzZqa6tTUlMTEhIeRkpxUVVVJpx8rLT1yuFxuSEgwSl4ykaBRVVn5aKR/oL/fytIC/dwmJMTLN0RiObccDic1JRk9PEwkaAwODqDUM1HQhq2tLIeHhzEKn1QqnZuddXdzQ88m9/by/Pjx46OvfFtbW64uzuhlWAYG+jEes1zi09PT0IP9iQnxx8dHYMMAAABgw+8IsVjc09Nta2ON8jDW19NtbWmWrywrLmSpqSnofuPq4oyl8LCCNmxkaDA4OIg93IUgSFdXp4W5GbodxsbG0OnH6J8lD4je3NwcHR3t37EnH0eHhzc3TCzW/uBqERHh6KJWkJ93hdoDRSwWF+Tno9e+NdDX6+vrw+XcjowM29raoLtsd3cXymcpaMMxMdGH9/FajGZ5cX5+93aEmj18lzo8OvJo0ktbWyt6ub2gwICdnW2M70jywx4YGLC1sUHbDGpjvbCwAJUlAAAAwIbfEVdXV1lZWehFal1dXRSvUPvw3B0bG7O1sUavQtVQX/ckyVbChgP8/ff29jDaj5ydnR1fH290y/Ty9NjYWFdEJh4KeH2KEpmsX/3LdzaMmtX6aD2429vb2Jho9FRpby/Pzc0N7Jb23XffnZ2dxcWiVZ3T09WZQM1CUdCGW1qaOZhrXcunX2lpCfpuRX093UdbYQsEgvS0NJT3RjKJWFhYcHnJwCVeu7+/HxIcjFJcQpNK6enpVqT5HwAAAAA2/BaQSqVLS0veXp4oaRIUMik5OVmJ1XAGgxEeFope5TQsNOTg4EC5XTuK2DCFTCotKVFwJ9OjMJnM9PR09H1Idna209NTGIvHKaG/D0gkEoFAEBYWitGGj4+PggID0GtyKVIGWEFEItHo6Ki/v999O2S9z4atjXVeXu7pfbtjLDasr6e7MD8vxRx9fyhKaGVpgb73tLm5Gb3q8Pn5eWhoCPXbl4merk5rawsbD4OXz+GsrEw91LffivIyJpMJNgwAAAA2/C4QCoWNjY3oq7TGRoadnZ1KNKkSCATV1dUmxkZodWTNzcbHx5ULRCliw4YG+n29vTweF5dHu0AgqK+vNzExRt8d2NvT86w9vR7ixzKZTCgU3t7eXl5entDpe7u7a2trs7OzgwMDzs5O6GXRHrXh+8IXHiiBcHnVsyc1eUb/Ure3t5OTk7U1NWWlpQ+jvKysuqqqr7fn/PwMPQitiA27urrsbG/jVTNhdmYavRILQeNDVVUVetG99fU1by9PlPNsZWkxPDSI1842Ho9XVVWFflUmJyU+mu0DAAAAgA2/Ea6vrx8tM+zp4b6+tqZEMqtMJpubm3NHbTOhRdMsLytTzqgUsWFHR4eZmWmhEJ9lX6lUOjg4aG1thZ5K29TYqHT6B4r+yrs/MJnM4+Pj7e3txcXF8bGx3t7ehoaGstKSrMzM+Li40JAQXx9vJyeHR8uiPWrD01OTzk6O6EWjW1twi1k+VPO9vb1lMpk3n8DhcB4apqD8c0VsOCIi/PgYN8/b2Fh3d3dDf+soLCxEn94T4+OODg4of8TF2Wl2dgavOSwUCjva29A3RwYHBe7sbEOdNQAAALDhd8HM9LSjwyPBreKiomulMg0QBDk9PU1IiEfJiSQSNEJDgjc3N5XYS6eIDfv7+Smn8t/6RnOzsy6oYVctmuZdlVlsC80PaQ8ikejy8nJjY318bKyjo726uqqwsCA5OTk6KtLfz9fF2cnWxsbczMzYyFBXR4emSSWTiCQiQZGau4/a8ODAgB3qtjZTE+Pe3l58o+AIKuj/VhEbTk1NOTs7w+uADw8Pfby90G04OzuLwUBL+e3p7kZvPuLp4b64uCgUCj/rGq0cIpGov7/PzhZtI52bm+v6+hrEhgEAAMCG3z5isTg3Jwe9aICRocHszAyWsg9NTY3m5mYoD3sLc7MhpfrBKmLDEeFhinfHVYTV1VUfH2/0vsdFhQVXV5fKvT9IJBI+n391dbW5sTE0NFhTU52ZmREWGuLs5GhibKSjraVF09SkUqgUMolEJN6Lr4K9iJ9qw93dXehJsdZWliPDQ6pTm1YRG37UTZ/E2dmZn68vlowUBEGam5vMzUxRDtvczDQtNbWqqqqmphr7qKqqjImORt/8Z2drc5ddDWUlAAAAwIbfPPv7+z7ej1RIiI6OotPpWErJrq2t+Xh7oezS06RSCgsKLi8vn8OG4+Jij4+PcVzz3d3dDQ0JRqm0QCYRc3Nznqpc8qDdxcXF8vJyb29vYWFBeFiona2NjrbWvfd+PdyrcT8ISo1Hbbijo8PC3BzF0uztbCcmxpXumfcGbPj8/NzPzxf9CkI/z2KxuKa6Gr1PDZGgQSGTqBQyXgP9gOWZypOTEyKREMLDAAAAYMNvGbFYXF9fh76ZRldXp6uzU+k2Y3Jub29TU1N1UOsweLi7bW1tPdVZFbHhxMSEs7NTHB/qR0dHUVGR6JnWGRnp5+fnin+oRCI5OzsdGx0tKiwMDQl2sLfT1dEmk4jKBX3xsuHm5mb0mKWTk+PMzLTqlOJ6FRv2x2bDAoGgvKwMPVL78sPC3HxkZFgg4IMNAwAAgA2/Za6vr2Oio9Cryfr6eG9ubGAsRyWTyYYGB62tLNGb7ipRQ0phGz7D8aF+enoaH4dWFpeg8SElJVnBumP3bdjYU1OTWVmZri4uBvp6lHu3egHjedSGGxrq0V+WXF1d5uZm8drd9T5tmMfjFRcVGqA2RX/5YW5uNjQ0qDpRfwAAAABsGH+kUun8/LwraudkKoVckJ93dnYmFosl2GAwGEFBgRTU8rfBwUH7+/tPCg8/asNEgkZqSvI5rjZ8cXGemJiAbsNJiQmKpGeIxeKjo6OWlmYvL09tLdrLSPAz2LAQbFjp88zhcAry89F734ANAwAAAGDD+MPjcqurKk1R6+bqaGtlZmaMjAzPzEzPzs5gGTMz02GhIejZBQb6eqOjo09adlfEhtNSU5+UtKCIDSclJqDXL1PEhnk83selpaysTCtLC/T3BMUHiUigaVINDfQtzM3QzzbYsOrYcGEB2DAAAAAANvziHB8dRT+W/EqlkG1trL08PXy8vXx9vDEOK0sL9K5mBI0POdnZDFQ/e6oNy5ul4Z0pcfJ4pkRy8skJHcWGeTze1ORkTHSUoYG+8iFhggaVQjYyNLCxtnJ3dwsMDIiPi8vKyiwrK21oaHBwsMfYfQNs+AVsmM/nlxQXq1qmhL2d7fTUpOr8sgAAAADYMM5IpdKJiQnHx2xJHlslEQm4DEWcz93dbWVlRfFqbq+SN3x09yIRhf4ikYm6i04sFs/OzISHhaJ3eP5WgrWVlaW3l1dEeHhmRkZ5eVlrS0t/f//09NTKysrh4eH5+fnV1RWLxQoNCcFiafe76JrQmxSCDWO3YaFQWF5eZmRooEI2TNCIiYmW1yUEGwYAAAAbfpsIBIKiQpXbuCOvbdz2lL10CtlwQsLpKZ41Jfb39yPCw1B2HxKJBHTlOjo8TIiPU1CF5dFfJ0eH4KCgjIz06qqq3t7eubm5nZ2dq6srgUAgz+qW3iO7R95kISIinIyagPF4hbX2dnMzM/Q+f1NTk1BTAqMNV1ZWGhmiVVijaVItLMztbG3s7Gyfezg5OkZHRU1OTmKsJAMAAACADas0e3u7fr4+j9YcfflBJhGTEhOPjo4U3EunUL3h2Bh86w1vbm4GBgZoUinf+kQKmVRYkP+t8slsNruivAy9vuxD32MXZ6fYmOiKiorh4eH1tbWrqyuhUCh33wfr/epBSqVS7Dbc1dVlaWGO8hdsrK1GRob5fB7YsNLnWSqV1tXWmhgbo5/nsrLS/v6+wednbGxsb29PnjEMNgwAAAA2/DZBEKShoR59/9wrDlcX53mFF98V6kUXEb6/j2cvuqWlJS9PDxQB0tKilZeXfbUzM4IgkxMTzk6Oj+aoWFlZZmSkDwz0b21tMpnXIpFIvmytoKDw+fzQUKyZEn29vTbWVug90gb6+1QniKiONowgSFtbq7k5WgzexdlpZmaax+NKXgT0Fy0AAAAAbFjtub6+Dg8LRQltvu7Q1dGuq6tlsVh42bC/v9/6+rpEIsHl7MlksomJcQcHexTl0tfTra+v/+pXYDKZaakp6I1ISESCm6tLc3PT0dEhj8d7kgQ/cHV1FRDgj9GGx8fH0ZPLDfT1Ojo6OBwOjuYkk8lQFO3t2fB33303ODhoa2ODctg21lajIyNQ4QEAAAAAG8YBqVQ6Njpqa2P9wqVtnzRCQ0MODg4UyW1QxIYdHOxnZmbw2uklEok6OtotUCN5pibGXZ2dXzoigiBzc3Nurq4o8kQhk7w8PQcGBlgsFpYQ3c7OjqeHB8aaEktLi+7ubihHS9OkKv7qoggCgeDo6Ghqamqgv7+/r+/70d83Nja6vr7O4XDQZ4Wa2vDC/LwbauVvA3299ra2p/amAQAAAACw4a/A4XByc3P0dHVUVoUJGh9MjI0mJycU8VdFbNjQQL+7uxuv1XwOh1NSXIS+AdHGxnp8fPzLvWUikaixsRG917GtjXVnZ6fcL7Ec8PjYmL2dLboXPmppOzs7vr4+KLWQiQSN3Nyci6cUxUNBIpGsrq7m5uZ4enrY2drY2lj/MGxcnJ0iIsJ7e3vRzVtNbXh/f9/PzxflPFMp5NKSkqurK7BhAAAAAGwYK5ubm/7+fo/W/X3dQSISchRTFkVsmEwi5uXlfmtP21M5OzuLiAhHb2ft5ua6uroq+aKdNYvFys3NQemzQKWQkxITDg8PMVa2EovFdbU1j6aGP2ppV1dX4WFh6Ek1oSHBe3t7uGxSZLFuigoLzExNyCQikaDx2aBSyG6uLqsrKyhJL2pqw7e3tzEx0eiTKjYm+vDwAMfNoAAAAADwHm1YJBK1t7dZWVqg6QJBg0wiaVIpzzrIpMf2kFlarKwsP7r1TREbJmh8cHJy3NraxMUk5uZmHVGThokEjfDwsMPDwy8/7vT09K6l87eb2Oloa9XUVN/c3GB0NQaDkZyUiN4tTxFLE4lEaWmp2lpof8fC3Gx2dkYkEmH3y48f77YnooRIKWRSf38fSvqsmtqwVCotKMhHX7Gxsbaam53F5TzLk3Zk3wD2zwEAAIANv2UYDEZaaoou6kNXT1c3NjamrKy08jnx9/dD715BJGjU19Xd3t6iP5gVtGEKmVRfV4vdMnk8XuFjdZrJZFJ+ft5XQ9GHh4eREREoX9zQQL+jHWt6qFQqnZub8/Rwf7Tb86OWhiBIY2OjCWqMmUImfauAxlNf1R5NQSFofOjp6X57NowgyMjwsI21FfoSR0FB/sXFBfaXOolEfHnJ2Nra+vjx4+InLC0tbm5sXDIYire/AQAAAMCG1QmZTLa4uOjp4Y725CZouLm5zs/Pc7lc0XMyNDT46E6+4KDA3d1d9PCwgjZM0Pjg7Ow0NTWFpU8EgiALC4/sdrqL7+po9/b28HhfKcF7cHAQHobWtsNAX68N82YpNptdXFxkpEA940ct7bvvvltdXXFydHi0g+Dy8jJGhVpfX/f0cEc/tzRN6uTkJEp8VE1tWJ6BExgYgP4CY2tjPTk5gbHXCYIgu7s71dVVMTHRgYEBAf5+n47w8LCKinJ863MDAAAAYMOqgkgkqqurRc8lpVDIKSnJdDpdkWpWWDg9PY2MiEBPlLSytBgbGxUI0KpKKW7DFDIpOTlpf39f6VJrl5eXaWlpjzaQc3ZyXFtb+2ri7/HxcXRUJEpsWEdbq7KyAkucFUGQ4eFhF2cnRVqrKGJpbDY7IiIcPdGcpkktLSlmMBhKK9Tt7W1hYcGjgWF7O9uNjXWUyam+NiwWi0uKi9HPAIVMykhPOzk5waKqF+fnhQUFlpYWd/lKX7RPp5BJ5mamnZ2dUL8CAAAAbPgNcn19FRkRjr4jSk9Xp7Oj4wUehHw+v6621szUBOVgtLVoFRXl6PvoFbfhu1IVJsa1tTUMBuOpe9QQBGGz2e1tbbY21ujBSxKRUPCNNIk7Ebm4SE5OQknnpZBJsbEx+/v7yvUKkUqlOzvbwcFB6K8ZT7I0mUzW2tpibmaK/qccHewHBvqVmzkikWh8fNzN1eURgydoZKSnXZyfv72aEj+sPCy4ODujTzBra6uenu5HM4i+9VNeX13V1dbaWFuhfAqRSMjLy8WrTggAAAAANqxCDN8nJqKLgru72/r6OsaCBgo+mOfn59HTNogEjdCQ4K2tTZRo7pNsmEjQcHJ0bGtrOz09VXxZH0GQ29vb0dFRXx/vR1uWmBgbT09Pf2spn81mPxoBtbS06OrqUkIrBQLB1uZmelraoxHWp1ra0dFRQIA/+iI+lUIOCgyYnJy4vWU9af4IhcKPS0vRUVGP7vkzNDQYHR1BzxNQXxuWH3xWViZKyRH5+1JwcODs7MxTO3HIZDLGxUVrS4uTowP60RKJhLKyUibzGmwYAAAAbPhNwePxkpOTtLVo6A/astJS5vVLPAURBDk/P09OSkJ3IDNTk8HBga/m4Cphw/KtSC7OzqWlJevrayh/9uEgxWLxyclJZ2dnUGDAo7pGJhFjY2LkOZdf/csSiaS9vd3SwhxF1yhkUlBQ4MBA//X1tUwm/e47RJGTyWKxpqYmU1OSTYyNFO+roqCl8Xi8stISI8NHTrK2Fi00JLirq5NOp8tfNh49vSwWa2Z6Oi421tBAH/2wSURCWFiovCfLW7VhiUQyPj7m5uqC/uKhp6sdGxM1NTXJYin64iGRSPb39+vq6lxdXB59o9PX0+3v64W+dwAAAGDDb42trS13Nzf0RVhLC/P5+fkX204uEolaW1rumrqhqmFeXh5KqeCn2rDcq0xMjGOio9taW9fW1m5vb6VS6ae1peT/XSgUHh4eDA4OZGdlOTk6aNE0H7VMM1OTuxZ03w7rIgiytrbq5emBLk/aWjR3N9eK8vK1tVV505AHPvtrCIJwudy1tbXa2toAfz8DfT30n1g5S7vff7ng6+P9aJlqmibV2ckxOytzbGz07OxMJBJ9emIfkMlkt7e3y8sfa2pqAvz99HR1Hj23pibGra0tj2YIqLUNIwhycXGemZmh/1h0X1dHO8Dfr6W5+fj46OHF48u/jyCIVCq9vr6amppMT0uztbF+9Bckk4hBgQGbGxsvsEAEAAAAgA2/HEKhsLGhAX3/HIlISEtNPTs7e7FHIIIgGxsbXl5e6Cbh5Oi4ufnNUsFK2LB8aFIplhbmIcFBhYUFba2tA/39k5OTs7OzMzPToyMjXZ2dVVWVcXGxjg72ero6iigmlUKOi43Z3d39sunGp9ze3uZkZz3aC5BEJBgbGYaGhtRUV8/NzR4cHFxdXt6yWLf3sFisy8vLg4ODubm5hvr60NAQUxNjJTqqKG5pt7esmppqC9So9sOR6+pou7m6pKWmNDU2jI+PLS9/3N7e2t3d2d7eXllZmZme7unuLikuDvD3NzUxfrQMnPylKCY6ant7G/3cqrsNy/fSTU9Pe3l6PPprUsgkG2ur1NSU3t6era2ty8vL29tbDofDvef29vbq6urg4GByYqKkuMjDw11XR/vRaUwkaFhbWba1trBYN6DCAAAAYMNvitPT05iYaPT6vsZGhkNDQy+8PHrXJjonR0/3kUTJ1taWb+XRKm3D8mf/3SZ6CtnQ0MDG2srVxdnTw8Pd3c3Rwd7UxJimSZV3RFPwr9nb2Q4MDHA4nEfTA+bn59F7THxqlgb6el6eHnFxsbk52RXl5dXVVdVVVeXlZbm5OfFxcV6ensZGhor8KYyWhiDI/v5+Qnzco+kiD+eWTCIa6Os5Ozn6+/tFhIdFR0VGRkYEBQV6uLuZm5nSNKkKhrE1ND7Y2dn29fUqkkut7jYs36/Z0FBvid4i54eTrEml2NpYR4SH5+XmVldVNTY2tDQ3Nzc1VldV5uflxsfFurm6KPg6Jy/wl5ebe3h4+OhbBwAAAAA2rE5IpdLpqSlXl0c27AcFBm5tbr7wUxBBkNnZR1q7ETQ+BPj7fav3LxYb/kws5HJMIhIUN+BPV65LSkrOz88VqUzH4XAaGxssFYizPjgxmUTUpFL09XSNDA0MDfT1dHXu+/kRn5QXgcXSfghbTvn5+ihYsOLTVw4yiSgfSpxhE2OjsrIyBc+tutuw/KI4OzvLy8tTMAVc/uKhRdM0MjQwMzW1MDczNzM1NNB/6usclUKOjYleWVnBWM8YAAAAABtWOThsdnlZmbGREcqDUIumWVpSgqVerNLc3t7Gx8ehx631dHX6+/q+uukNLxvGMmia1KSkxJ2dHQVTru905/Q0OyvL0ED/FQ9bCUvjcrlDQ4MeHu5KZGUoNwz09UqKiw4PDxU8t2/AhuVvsLu7u2mpqYqXB/n0pU6J1zmaJjUiInx+fl5+lYENAwAAgA2/Keh0eng4Wv8zjfseV6OjI3w+7+WfggiCdHZ23u2lQ02WyM7O+qpPKGLDJsZGZqamzyRw2tpaEeHhqysrQqHwCbojkWxubiYmxBvo6ynhLgrtFDQ2ejSZ+KmWJhfizs5OdzfXR0sT4PIVsrIyj4+OFN/R9TZsGEEQiUSyvr6eEB/3TDPkU4E2MjSIjY1ZWlqSJ0qBCgMAAIANvzVmZ2ecHB1QltRJREJUVOTe3t5r7SLf3d319fVB9wk/X9+NjY0vCw8rYsPBQYFFhYW+Pj4K5rw+IUFCVycyImJubu6pETUEQUQi0fLycmJigpGhAcaEhy9/UBtrq6LCgujoKPTtek+1NPmRM5nMrq5OP18fXR3tZxI1KoXs6OhQVFS4u7uL0of5rdrwwwxZWVlJTk6ytDBXOjX88fPsYJ+fn7e6ugoqDAAAADb8NkEQpL29Db2RmJYWrbGh4ZbFeq0HIZvNvt9Lh+ZtdrY2ExMTX2Y0KmLDCQnx6+vrY2NjiQkJ5mamirQsVjCfNSUleW5uVr5z7qlnT647a2tr+fl59na2eIWuaZpULy/P+vq64+Pj8rIy9CLBynkhgiA3Nzejo6NJiYm4ixqJSDAyNIgID+vs7Dw+PparsOJHyGazfX180G24oCD/6uoSr9nOYDD8/f3QJ5XS51kkEm1ublRXVXq4uylS4+9J59nUxDgyMqKrq/Po6Ei+sgEqDAAAADb8Nm24r6/X0tIC5bno4uz08ePHFysz/CVSqXRwYMDezu5+z883KzZMT09/mY2giA0nJiacnp7y+fzt7e262lo3zKv8NE2qh4d7bW3N7u4On89XZHfXt34dsVhMp9N7e3qio6Luqsxi0B0SkWBuZpqRkT41NXl5eSmRSAYGBqy+/dNTyKSqqsqbG2VqaSEIwufzd3Z22tvbQ0NC7t5kCPiknQT4+1dXV62trcrrQD9V0UQiUUxMNMrvq0mldHS0P1r6Q3G4XG5EeDjKywzG8yyRSC4ZjInx8fT0NGsrS1zePbS1aH6+PrW1Nevr68qdZwAAAABsWJ3Y3t6Ojo4yNNDXpFKoFPLD0KRSdLS1rK0sGxrqb26Yr/gsRBDk5OQkMzPT0sJci6b56UFSKWSaJtXI0CA1JeXoa/mjCtqwvI6yTCZjMpljY2OZmZkuzk4GBvp3EqOAgGrcp1fKj8TV1SUrM2NycoLFusGuEfKjumuqvLVVU1MdHBxkYW6mrUVTPApIIZP0dHWtrSwjwsObmppOTk4e2jGcnp4mJiYYGxvRNKmf//Q62t7eXrOzM0oXEHg48rXV1eqqquDgIBtrKz1d3Ttde4rTk0hEHW0tUxNjby+vwsKCxcUFLH6GIEhvb6+Hu5uujvZnE56mSdXX0w3w99/c3MQxKeh++aXd2dlJR1vry0tMT1fH18d7dnYWy3lGZDKJREKn07u6OhMT4h0d7A309RRfTNDQ+EAgaFAoZPk8CQ4OKikuXpifZ93cyGvIgAcDAACADb9x+Hz+zPR0fl5ebExMdFTkw4iNiU5LS21va724OH/1vlPyPUN1tbXJSUkx0VGfHmdCfHxpaelDXuNn//BJNvwQbDs/OxsdHSktLYmOjvLwcLe1sTY2MtTR1qLcL3g/WBqVStHV0TYzNbGzs/Xx9oqPj6uoqBgfHzs7O33qCr4iZsnlcldXV5ubm9LT0wL8/Rwd7M1MTXR1dT4tzSs/Kh1tLSNDAytLCzdXl7DQ0IL8/O6urq2tLQ6H82mgWiaTLS9/LCstTUiIj/7krMbFxmRlZoyMDN/c3Cgd2H44cqlUKj/yzs6OvLzc8PBwNzdXWxtrE2MjvYeDJ/zUfakUsq6OtomxkZWVpYuzU2BgQFpaWn1d3ezs7PX1NXY/u76+7u3tyUhP+2wixd/VbM4ZHx9XpG7xUz+xp6c7MyM9Nib600+Mi43JyckeGxvDfp7lv+ZDf8Ti4qKYmGgvL087O9svz/NdzTUyiaZJ1dPVMTE2srWx9vTwCA8Py8vL7ezsWF9fg3gwAAAA8L5sGEEQHo93cnKyvb29+QlbW1uHh4ef+dMrHqRYLGYymfv7e1tbW58e5+7u7tXV1UO8E6MNfyoWl5eXW1tb4+PjnZ0dlZUV+fl5aampCQnx8fFx8fFxyUlJ6elpBQX5dbW13V1dM9PTOzs7NzdMsVj8TGdMbpZsNvv4+GhhYaG/v7+utrawsCArKzMpKVF+YPKjysvNLS8ra25uGh0ZWVlZOT8/FwgEX/UbsVjMYDB2dnY+PaU7Ozt0+jGXy8Xri8iPnM/nnZ6ebmysj42NdnS0V1VVFhUWZmZmJCclPZzVpKSktLTUgoL8qqrKlpaW4eHhpaWlw8NDNpuNV5xS3vb58PDws4m0s7NzcnLC4/Fw//nkpTaOj462v/aJ+J5neTyewWBsb2/PzEx3d3fXVFcVF/3MeU5IiE9JSc7MzCgsKKiuqurs7JiamlpfXz87O+PxeODBAAAAwLuz4YeH6FdRneei/EieepDK2fCnHycUCjkczvX1NYNxcXpyQv+Bk5OTs7NTBoPBYrG4XK5IJHoBjXg4KrFYzOPxWDc3lwzG+fn5yQ8HJj+qi4uL6+trNvtWKBRKpVKUU/SSP738s6RSqfyUMpnMy8vLs7Ozk8/P6tnl5SWTyeRw2I8eP74T6fkm/MufZ/kk4XK5Xz3Pp6enD+f5Yfaq1PUOAAAAgA0D+KC0DX8mT+gi/sALvxsoeGAq+Palmmf17b3lwnkGAAAAwIbBhrHaMAAAAAAAANgwADYMAAAAAAAANgyADQMAAAAAAIANA2DDAAAAAAAAYMMA2DAAAAAAAADYMAA2DAAAAAAAADYMgA0DAAAAAACADQNgwwAAAAAAAGDDANgwAAAAAAAA2DAANgwAAAAAAAA2DIANAwAAAAAAgA0DYMMAAAAAAABgwwDYMAAAAAAAANgw8FwIhcLKykojw2/aMIlISE1NOT8/BxsGAAAAAAAAG35ryGSynp4eO1sbMon4pQpraHzQ09WpqqxkMplgwwAAAAAAAGDDbw0EQY6PjkpLS9zdXC0tLSwszD8d1tZWiQnxKysrQqEQbBgAAAAAAABs+A0ilUpPT0+Hh4ebm5sbf5b29vaNjXU+n4/cA+cKAAAAAAAAbPitgSCITCbj8/m3t7csFuv2EzgcjkQiARUGAAAAAAAAG377Tvwt4OQAAAAAAACADQMAAAAAAAAA2DAAAAAAAAAAgA0DAAAAAAAAYMMAAAAAAAAAADYMAAAAAAAAAGDDAAAAAAAAAAA2DAAAAAAAAABgwwAAAAAAAAAANgwAAAAAAAAAYMMAAAAAAAAAADYMAAAAAAAAAGDDAAAAAAAAAAA2DAAAAAAAAABgwwAAAAAAAAAANgwAAAAAAAAAYMMAAAAAAAAAADYMAAAAAAAAAGDDAAAAAAAAAAA2DAAAAAAAAABgwwAAAAAAAAAANgwAAAAAAAAAYMMAAAAAAAAAADYMAAAAAAAAAGDDAAAAAAAAAAA2DAAAoOogPyCTySQSiUAg4HK5LBbr5uaGwWCcPQUGg3FzcyMUCmUyGYIgWA5JIpGwWKyLi3MFPvTi5uZGJBJh/FAAAACwYQAAgHekvzKZTCAQXF5ebm1uzs/PDQ8NdXZ0NDY0VFdXVVSUFxcXFxUV5uRkZ2VmKD5yc3NKS0qam5vW1lb5fJ5ybioWiw8PD/v6+kpLSrKzsh790JzsrKKiwubmps3NDYFAAEIMAADYMAAAAPAVAxaLxRwOh8G42NnZnp6a6uzoqKysyMzMDA8L8/bytLO1MTE20tXR1tamaWtpatHuBk2T+tShrUUzMjQICwsdGRm+ubmRyWRPOk6BQDA/P5+WlmZjbaWjraXgh2rRNI0MDWJjomdmpjkcDggxAABgwwAAAMBPJZjJZO7u7k5NTTU3NebmZEdFRrq5upqaGNM0qRQyiUQikogEIkGDoPEBr0GlkH19vIeGBm9vbxV3U6lUOjc3Gx4Wpqujo8TxaGvRIsLDpqenuFwuCDEAAGDDAAAA792DBQLB4eHh+NhYVWVlQny8t5enuZmpFk2TTCLi675fHTRNamhI8MbGhlQqVfCYT09PExMTdHS0lf5QXR3thIT4w8NDsGEAAMCGAQAA3q8HC4XC7e2ttrbW5OQkd7e7MLAWTRP3APCjQ09Xp6OjQ/FI7fDQoL2dLcaDNDY2Gh8fF4vFMBMAAAAbBgA1Q57WeXV1dXp6enR0dPgUTk9PLy8vORyORCKBqNi7RSaTcbncnZ2djvb2qKhIczNTmiaVRCS8pAF/OogEjYKC/MtLhiJzEkGQivJyQwN9jB9KIhLq6mqflKEBAAAANgwArw+Px1tdXW1tacnLy01JSU5IiI+Pj1NwJCTEp6Qk5+XmtLa0rKys3N7ePnXrEvAGkEgkx8fH/X19iQnx5mamFDLphSPBX7Xh9PS009NTBW24sLBAT1cH+4fm5eUyGAywYQAAwIYBQG0QCoWjo6Mx0dHWVlZaNE0KmUQmEZ86tLVo1laWUZERAwMDSuzlB9QaNps9Nzubm5Pt4uyso6316h6snA0XFBTo4mHDWVmZ5+dnYMMAAIANA4DaMD095e/vp61FwyoxBA0tmqa3l+fc7CwUXn0nyGSy6+urrq7OAH9/A339+4jwBxUZYMMAAABgw28HBEGkUqlEWR6aXcGZ/JLr6+vEhHgdbS3s8qFx/58UMikxIeHk5ARO+JtHKpUeHx/X1dU6OztpUimq48FgwwAAAGDDb0eCuVzu6enJ1tbm4uLinLIsf/y4u7NzcX4uEAige+pnLC4uuru54hvS09fTnZqaEolEcKrftgrv7+8XFxVaW1mqVEgYbBgAAABs+I0gEon2dnc7Oztzc3OjoiL9/fx8fLyVGwEB/nGxsUWFBb29PXQ6XSwWw4PqgcGBAVsba3wTPYkEjebmJg6HDef5TavwXl5eroW52StWjQAbBgAAABt+s/B43MnJiaTERDtbW309Xer9BnWlB5FI0NSkGujr2dnZpqWlLi4u8vk8eFbJ6e7qsrK0wH3bU0VFOZPJhJP8VlX44OCgoCDf3MxUZVUYbBgAAABsWI0RiURzc7PBQYF4bU7X+ORBRdOkxkRHra6uCIVCeFx99913XV1dlhbmuNtweVkp2PBb5ezsrKSkxNLCXJVVGGwYAAAAbFiNOdjfT05K0tPTfaZnpIG+XkFBwdnZGVQBAxsGngqLxWppbrK3s73vr/wBbBhsGAAAsGEAZyQSSVNj43P42aeFwOxsbWZnZiA8DDYMPAmxWNzf3+/h7kalkFVchcGGAQAAwIbVldPT09CQ4Oeu1kQhk0qKi6+vr+GJBTYMKIhMJtvY2AgJCaZpUlVfhZ/aFg5sGAAAAGxYJZBKpT09PZYW5i/wpHR0sF9bW5NKpWDDYMOAIlxfXxUXFRobGaqFChM0Pujp6rS3t3M4HLBhAAAAsGF1etwmJSZoa9Fe4ElJIZOam5vY7Nt3/tACGwYUQSwWTUyMe3l6UshktVBhTSolNCR4Y31d3n8HbBgAAABsWD2Yn59zc3V5sUr+oSEhBwcH73wvHdgwoAgMBiMrM9NAX08tVJhMIrq7ufX3993eKvq6CzYMAAAANvz6CASC2toaUxPjF3tkmpoYj46OCAT89/zcAhsGHkUmk42NjTk5Oj7j3tYfVJJMIlIpZJomVYumqa1Fe9LQomnq6mhbWJhHRUYMDPRfX18r3nsSbBgAAABs+PU5OTmJjYnWomm+5FpqUVGhgptswIbBht8tTOZ1amqKjrbWM12JJCJBR1vLzMzU2dkpMCAgNiY6PT0tNzenuLiorKxU8VFcVFReVtbR0bG1tcXj8Z7Uhh1sGAAAAGz49YNPc7Ozri7OL1nPn0jQCAoMWF9fe8+9msGGgUeZmpp0dnqWwDCZRDQxNvLz9U1PS6urqx0aGlpcXNze3j45OWEwGCwWi81mcxSGzWbzeDyxSCT34CdNP7BhAAAAsOFXRiwWl5eXGRrov3B+oZmpSX9fL5fLBRsGGwa+CofDLsjPe46MYT093eCgwKqqqtnZ2cPDw5ubG5FIJJVKZfcgGFDia4INAwAAgA2/Mqenp4GBARQy6YVtmEImFRTkv+dkCbBhAJ2tzY2gwAB8222QSUQrK8vc3JylpSUmkylSKpqLL2DDAAAAYMOvTE9P98uUGf5yeHp6bKyvv9vCw2DDAApisbi3p9vO1gbHGaJJpXh5ejQ1NZ6enkokYiwBXbBhAAAAsOE3wu3tbXxc7Evun/t06GhrtbW1stns9/n0AhsGULi5ucE3TYKmSQ3w9xvo72MymU/a5QY2DAAAADb8lpmbm3V0dHju4k0oIyws9Ojo8H0+vfr6+qytrXA/+bW1Nbe3LBACdWd/by88LAzHVsyOjg69vT03NzcqpcJgwwAAAGDDr4lAICguLnrdqv6GBvrjY6NCoeAdPsAW5ufdXF3wLeWho601NDT4zgs5vwFkMtnM9LSrizNeL0t6ujolJcXn52eqpsJgwwAAAGDDr8ne3l5wcJAmlfK6zatyc3Pe5166i4uLuLg4Lfy6YZNJxJDg4N3dXalUCkKg1giFwubmJgtzM7wmRmhoyLrCrZLBhgEAAMCG3wUSiaS/v8/OzvYlywx/dbi5uiwtLYlEovf2DBOLxYODgx4e7rgUDaCQSc5Ojv39/e82D/stweVy8/Pz9HFatzE3M+3s7FTZiQE2DAAAADb8OrBYrIL8vJcvM/zl0NfTbWpsuL29fW/PMARBbm5u+vv7wkJDDQ30sayJGxroh4WFdnd3X11dqeBSOPBUmExmTHQUXrXV4uJi9/b2VHbFAGwYAAAAbPh1Hj8bG+sB/n6vniYhX8ZNTIg/OjqSyWTv8Ifg8/krKysNDfWZGRnxcbHRUZFRTxmxsTFpaakNDfVra2scDgdU+G2wv7/n6+uDS9Kwrq6OilduARsGAAAAG34FJBJJe1sbXlmJuOx2n56eEgje4146BEGkUqlQKLy6uqLTj/f39/eewtHR0eXlpUAgkEf+wAPeBpOTk46ODjhlIrkuLCyocgt0sGEAAACw4VeAxWIlJsRr47d/C+PQ1taqqa5+z1Vy5SIrUwqQ4LdHa0uLOR4vq2QSMSEh/uDgQJUXXsCGAQAAwIZfgdmZGadXLTP8+SBoBAcH7e3tvsNkCQD4kqKiQux2eJcmoaNdUVF+dXWlyoIINgwAAAA2/NKIRKLc3Bw9PJ61RIIGmUTERYiNDA3Gx8eEQiE8yYB3jkwmS05KxGULnaWFeV9fL5fLBRsGAAAAGwZ+yt7ero+3Fy4Wa6Cv5+jgoKujjcuSbkFB/uXlJTzJgHeOQCCIiAjHZenG2dlpfn5OlZOGwYYBAADAhl8asVjc1NRoZmqCS0DX18e7tKTE2ckRF7d2dLD/+HFJIhHDzwS8Z66vr4ODg3CxYT8/383NTRVPQAIbBgAAABt+US4vL+PjYrVomrjYcElJ8draWmxMNC5/UJNKqa+vf4eFhwHgU46Pj/18fbHbMJGgERUZebC/r+IXFNgwAAAA2PDLIZVKFxcXPdzdcQnlGhkazExP8/n8hoZ6UxNjXPQ6Ijx8f39fKpXCjwW8W7a2tjw9PbBfTSQiISUlmU6ngw0DAACADQPfc2eu9fV4pUkkJiScnJzIZLKtzU03VxdcFnatrCxHRob5fB48z4B3y8ePH91cXXBp1l2Qn3dxcQE2DAAAADYMfA+dTo+JjsIlq0FXR3twcIDP5yMIIhAI0lJTcalerK1FKykugr10wHtmbm7WxdkJ++sllUKurKxQ/TLeYMMAAABgwy/H1NSkg70dLkFcX1+fnZ2dh9YPIyMjNtbWuBQeDgoK3NjYkEgk8HsB75OZmWlnJ0fsVxOVQm5oaFD9RHywYQAAALDhF0IqlZaWFBvo6+Gy3a28rJR5ff3w1Lm6uoqOiqJpUrH/cRMT497eHhWvkAoAqm/DmlRKS3Mzh8MBGwYAAAAbBr6736h+5O/ni8v+ORtrq/GxMXmaxMPzrLm5GZeMZBKRkJOdzWAw4JEGgA1jteEWsGEAAACwYeCH501LcxNethodFbW7uyuRSD596qyurnp5euBi226uLpubG1BZAgAbBhsGGwYAAAAbxofLy8vwsFBNKgWXjW51tbU3NzefPXKur6/T0lJx6UunRdNsbm5ms6HwMAA2DDYMNgwAAAA2jBmpVDoyPGRjbYXL/jlra6vp6WmhUPjZI0csFre1tVlaWuDyKQH+fru7OyreQwsAwIbBhgEAAMCG1QA2m52fl6uvp4tLmeG42JijoyN5NYnPHmnra2u+Pj5UChn7p+jp6gwM9EPhYQBsGGwYbBgAAABsGCvb29vBQYG4pEloUindXZ3fKvjAZrOzs7L0dPHR7vS0tIvzc3iwAWDDYMNgwwAAAGDDyiMSibq7u/FKk3B3c93e2vwyMCxHJpMNDAxYWlrgYsMuzs4fP34Ui8XwIwJgw2DDYMMAAABgw0pydXWVmZGhh/lJI2/0WlFRjtLaCkGQk5OT4OAgXJIlDPT1mhobVb93AACADYMNAwAAgA2rLqurq95enhQyCfvD1crKcnZ2ViQSoTxsJBJJXV2tsZEhLqXc4mJjDvb3odQaADYMNgw2DAAAADasJE1NTaY4lRlOTEigHx9/K03i4cG2s7Pj6elBIhKwf6ijg/309JRAIIDHGwA2DDYMNqzIyVQauPQAAGz4bXJ7exsdjU/DZH093daWFjab/ehNk8/nZ2Vl6uBReFhHW6u6qurL2sYAADYMNvzObVgmk4nFYj6fz+Vwbm5uGAzG/v7+2tra/Pz81OTk6MhIf19fV2dne1tbW2vrZ6Ors7O3t2dwcGBifHx+bm5tdXV3d+f09JTJZLLZbD6fLxKJpFIpeuwDAACwYfVgdHTE1sYah/1zBA13N9eF+bkvywx/9R49PDxkZ2uDy769oMCA/f09KDwMgA0rYcP3XWzYLyA0WEKMYMNPMmCBQMC8vqYfH2+sr09PT/f19jY1NpaWlGRlZsbGxIQEB3l7ebq6ONvb2VpaWpgYGxno6+nr6X42jI0Mzc1Mra0snRwdvTw9Q4KDoqMiU1OSCwsLamqqOzs7xsfGlpeXD/b3Ly4uuFyuVCqF+DEAgA2rJVwuNykxUVuLhstjNTMj44ROl93fEx99th0dHUZGhOMSkzYyNBgeHuLz+W/+RowgiEAgOD093d3d3dnefnzs7NDpxxwOR6rAj/Iyz+nb29uDg33FDn776OiQxWJJJZLvnufg5Q9viUTC43Gvrq7Oz8/p9OP9/f2dnR1FjnB/f//6+ho9S/7Lr398dLSr2N9HGS3NzTbWVrhse83Py/v4cWkb2/EoMnZ3dvYUnLdfjO3trcTEBG1tLbBhlNnF4/GOj4/n5+d7enqqq6oyM9LDw8K8vbwc7O3MTE10dbSpFDKZRCQRCSQigUjQkA/00yUf8n9CJhHJJCJNk2pooG9tbeXu5hocHJSUlFhUWNja2jo5Obm1tcVkMtVUi2UyGZfLpdPpCl2eOztnZ2d8Pv/NhMZlMplQKLy6ujrY30e/io8OD5nMa7FY/GYuIqlUen19fXhwoMhPv7u7e3p6quLJmWDDT2Ztbc3N1QWX/F1DA4Penp5vlRn+qoiXl5XhspeOSNBISUk+O3vjq58ikWh1dbWxsSEjPT02Jjo6KvLRERMdlZqSXF1VubKy/OptSm5vb2empyvKyxMT4hU8+OTkpOLioonxceb1tUyGz0ZJBEFkMtnNzc3u7s78/NzAQH9zc1NlZUVeXm5WVmZKSnJcXGx0dJQiRxgfH1eQnz80OMBisR49twKBYGF+vrKiIiU5KUaxv48yPD08dDCrofzacXSwDw8LxXg8iozYmOi42Bilv7uNtRWZRAQb/nI+i8Xii4uL6enpurq61NQUXx8fOztbUxNjHW0tCpkkF19cKlp+diblfqxF0zQ00LeytPBwd4uKiiwpLu7r7d3a3ORxuXJTVItTLRaLtzY3Gxsb0lJTFJmiMTHRGRnpLS3Ne3u7iiyHqjgSieTw8KCnu7sgPy8hPg79tpyUmFBYWNDT3X14eKh4LEBlPZhOpw8ODhYWFiQmxCv000dHp6endXd3n52dqez2fbDhp17/ovq6WhNjI1xujl5enuvr6xKJRMFrQyqVjo+NOTk64uLiZqYmS4uLEonkrf5YAoFgbm4uKjLCyMhQk0qhUsgKDpomVV9PNyQ4aHRkhP16pehubm7a2lq9vTz19XQVP3hNKkVbi+bu5trY2KD0rUce/eXz+dfX19vb2xPj421trYWFBdFRkd5enlaWFvp6utraWlo0TZom9f5Dn3B4WjRNRwf7urrak5MTlMnPYrF6err9fH319XSf9PN9a2D3QvnQuN/8SiGTsB/Scw9cbhRvxoYfInlra6vt7W1ZWZke7m4G+no0TSqZRHwO/VVEjqkUso62lpWlZXhYaGVlxdTUJJ1O53JVZW3qW3A47NHRkejoKFMTY8UvT00qxczUJDkpcWF+ns1mq2mqHoIgXC53bm4uLS3VxtpKW4umwBcna2tpWltZZmVlbmysq+/LgEQi2dvbKyoqsrez1daiPenOb2tjU1lRfnx8rJrWATb8NBiMi7jYGC2aJi7rrSUlJdfX14pfFfLCwzEx+BwAkaBRV1f7VgsPS6XSlZWVyMgIpfcdkogEL0+PyYlxHu8VIsQCgaCzo8PB3k65Kn4kIsHWxrqlpQWljvW35hifzz87O1te/tjT3V1cVBQZEeHk6Gigr/ewZIzdG4gEDTMz04qK8rOz06/6Oo/H6+7qcnJ0wKWIIb5DQ8WO5wWkTd1tWK4v+/v7oyMjZaWloSEhZqYmVAoFl7cFHM1YR0fb3c01PT2tvb1tdWXl+vpa8VjJCyvR1NSkj7eXcq1YtWiaIcHBQ0NDiiwQqSA8Hm9yciI0NERXR/tJN0MiQcPQQD89LXV9XV2F+OTkpLi42MLCXIlrh0QkWFlaNDY2PPWpBDasioI1Ozvr5uaKS5DJ3MxkenrqqZeEUChsaGgwNTHG5RYcFha6u7v7JgsPc7ncwsICI0MDLOpGIZMSE+J3d3dfPt9ra2vT388XS78VEpHg7e21vLys4MKc3IO3trY6Ozpyc7JDQoLt7Gx1dbSfKWxGJBIcHOwHBwe4XyvOsL6+HhDgj0vbcxjv2Ybls3p3Z6ejvT0lOcnNzdXQQF8FX7E+PdtaNE0ba6vwsNCqyor5udmbmxtVixNfX1/nZGfr6+li2TMTFBi4sLCgdlIolUrX1tZiY2N0lY2zGBkaZGSk7+3tqd2TVyAQtLe12dvZKq1AJCLB3893dXVFBZcFwIafJlhVlZV4pUmkpabI03afGrrb3d318HDHJaphZWkxNDj4KrHPF3iF9ff3w/jeoqHxwc7WZmR4+IVPkUwma2ttsTA3w6ih2lq01laF6veJxeLt7e3GhoaIiHBrays9XZ37ZfbnXTvWpFLy8/IuLi4+OzypVNrZ2WFpafHyi9cw3pINSySSo8PD9ra22JgYWxtrbS2a6gSDHz3nFDLJxNjIz9enpLh4aXFRvr1ERX6Cvb298LBQLC+rGhof9HR1ampqVDNMiAKHw6mpqTY3M8VydzI3M+1ob3+ZujQ4QqfTY6KjMfbE1dXR7uvrFYvFYMNqDJ1ODw8Pw6Wkg56uzsjIiHJbLEUiUXpamrYWDvuBaJrUoqJCBoPx9mx4fX3dCXM5LY27nY76bW2tL3zb4vP5BQX5WEIvn3oMg3GB0vRbIBAcHh729/fFREcZGxm+gAR/enixMV9piygQCMrLygwN9MFEwYaVQywWMxiMiYmJtNQUC3Ozl5zV+I679AltrQB/v4729oODAxWpArS5sREY4I8lxK5xP6/i42IPDvbVK3uYTj+Ojo7CaISaVEpaWurR0ZEafXeZTDY+Nubs5ITxUiIRCW1trSq4JgA2/ATGRkfxKvfr5+uzvb2t3PoXgiATExN2tra4pG8GBQZs3O/ke2M/1sePHx0d7HF5b2lsbHzh7Orb29vMzAxdPDqtREdH0en0rx78fYmcq8mJifT0NFsba5om9eWNITw8bGdn5zMb5nA4uLwMwHiHNowgCJvNXl7+WFFe5unhrqOt9QZWGMgkoo21VVpq6ujIyNXV1asnTuzt7YVhiw3Lh5OT48LCgno9faanp11dXbEboa+P96Ja7WLn8XjlZaXYgxR6ujr9fX0qWGwObPgJEdmsrExcBIWmSS0uKrq8vFR6NjCZzOioSFyi1KYmxj3d3VyVb6z1rmyYxWLhZcMREeHHx8dfHjyCIPt7e/V1tX6+Pk/dC/ISNpwPNgw2rEz46vT0tLOjIzIi3NTEGK8qIiryK+jqaHt6eNRUV+9sb79u6VYGg5GSnIS9XqGOjnZXZ6capeqJxeLKykpDAwNc0hQ7OzrUaBc7nU6Pj4vDbh0ODvazszMqmDMNNqwoa6ureJUZtrSwGBke5mO4BYjF4traWlwKD5NJxNTUlPPzc7Dh92PDdwU3lpfTUlOsLC0wLvmBDYMNqwgSiWR/f7+kuMjB3v5VFjpeJkhsZmqSmBA/MzP9ir3BBQJBSUkx9jAhkaCRnp52cnKiLk+fi4uL2JhoXHZhamvRCvLzzs5O1SVZYn5+3sfbC/sbZkRE+M7ONuyiU1fEYnFpSbGBvh4ueWDBQYHbW1tYVrsQBJmbw626ha2tzdra6hurLAE2/C0b5vF4c3Nz4WGhrxgSBhsGG8bdz1ZWVjLS081MTdRlqxyWohNBgYGDg4OXl5evUoINQZDBgX5bG2vsX8fZyXF5+aNaPH1kMtnU1KSbqwsut00SkRAZEb65uaEW310oFLa3tdlYW2H87lQKubgY08I42PArc3Z6GhoSjEu9J5omtbSk5OrqCstsQBDk7Ow0OSkRl95aZBKxob7ujRUeBhv+qg1zudzx8bGQ4CBcZg7YMNiwKjjK9fX16MhIVGSkgb7eO6lDokmleLi711RX7+/vvUpvs8PDA38/X+wvHtraWt3dXWqRLMHjccvLSo0MDfD6Ee3tbMfGRtWixtzl5WVeXp4B5tUAC3Oz7u5uxfvvgg2r3ALcwP17MC73WUtLi6mpKewXgFAoaGtrtbK0xOWofHy8d3Z21LQzENiwgjYsFApHR0aCAgNUISoMNgw2jIsKX1xctLa2+Hh7qcgL3kuWm7AwN8vPy93d2Xl5Iebz+WmpKdj7QBEJGhkZ6fJioyr+TDk6OoyNicZlu85DskRNddXNzY3qf/ft7e2I8DCMAUEiQSPA329paUkFt9CBDSuqJrm5ubikSRA0PsTFxdLpdHkzeoxrVZubmz4+3mQ8cph0dbR7enreUuFhsOHPbPhOhUdH/fx8tbVoqhM/AxsGG8ZyD7y8vKyvr3N2dnqfjVqIRIK5mWluTvbe7u4LVyeQyWRdXZ3WVpbYv4Wnp8fqqqqn6slkssnJSQ93Nzy3ZhI0oqOjdnd3VTwOJZPJJibGXV2cMT44aJrUzIz042MVrSsHNvz4PNjYWA8MDMDlbqtF0+zu6sJrmYDNZqempuCVLJGaknJ6cvJmwsNgw5/asFgs/vhxKcDfH8fABtgw2PDr3pkZDEZjY6ODvd1bqh2hxK9jZGiQm5Oz87IRYgRB6HR6UFAg9mQJczPT4aEhFSml/O1YOK++vs7c3Azfn8/Cwnx0dFTF66yJxeL6ujrsHXBNjI2amhpVth032PBjCQkCeUICPm2xPD3ct7a2sAeGH+5HQ0ODuLydEwgaHu5ui4sLr5KCBjb8rDZ8dHS4v7+fnp6G1/rGC9hwIdQbBhtGVeHz8/P6+rp7FSbBb2RsZJibk/3CKRNisTg/L1dXVwdrnTVtrfKysiuV3Fn1wNnZaUZGuh7mL/tlHKqsrFTFG/Ld3NykpiRjj6Q4OzlNTEyobJ402PCj84CZmpKMS/yVQiaV4z3vr66uQkNCcCn4Ymig39Souu9tYMNK2/Da2mpNdbW1laUK7rX/qg3zeDy8SrjAeJM2zGKxWlpaHB0ccLn1vY1hZmpSWFBwcLD/YkmZCIIM4FFZgkwiRkfdJQyobLKETCZbWVkJCgx4jvkWHBy0ubmpyquyKysrvj7e2B8fUZGR8u1JYMNqyerKioe7Gy4aYWdrMzMzje+LkUwmq6+vNzE2wuUlNS4udv+LNrlgw2ptw+HhYbW1NR7ubqrpDV+1YYlEgsvCHIw3acPyDHhvL89XK5VN0CASNEhEwlfHayXlEwkaFhbmFRXlZ2dnL6ZWW1ubfn6+GDNVNDQ+uLg4T01NvW5LERREIlFXV5etjc1z/LjmZqYDA/0q+91lMllzc5O5mSn2+VlaqtJRcLBhNCQSSWVFOS4VVUhEQmJCwtHREb5NNREE2dra8sajJvZd4WEb68nJCZW9LMGGlRiODvbOTo7aWjTVNK3o6KgvX8AQBJmcnHR2cnzbhWPBhpXzkvn5u2rZL1lBgkwiamvRjI0MrSwtHB0c3N3c/P18Q4KDwsNCo6MiY2KiY2KiIyPCQ0NDggIDvL29nJ2dbKytzExN9PV0Kfe35hf7pWxtrNtaW6+vr19GiBkMRmpqqg62O5WGxgcjI8OWlhaVrfJ5v5M+B/c0iYfdRMVFRQwGQzW/O5vNTk9Pw54mYWCg39fXp8qpmGDDaNDp9MAAf1yCavp6unV1dc9RS+X29jYnOwuXC5WmSa2qrFCLgi9gw4rXJVXZPUYUMiknO/v8/PzLJ/fFxXl6epru8zx+YKipDUskkrW11ZjoKFwuDUXmp4mxkbuba3hYWGZGekVFRWtr6/DQ0PTU1NLS4tra6ubm5u7uzt7e7t7e7vb29vr6+vLy8tzc3NjYaFdXZ01NTX5eblxsjI+3t7WV5Z1PPL8WEwkabm6uPT3dt7cvkfPG4/EaGxstLMwxfjX5reDs7BRBVDFhYGNjIygw8JlupGQSMTIiYmtzUzVXZTc3NwP8/bAHJgL8/dbW1lQ5IQRsGI2Ojna89pB6uLvNz88/R/64WCweHBy0t7fDJZDm7eW5t7cHNvxmbFiVh4WFeW9vz1cbzN4XwfgYFxdraGgAEWKwYTmHhwdZmRk4tj9ACdd5uLulpiTX19WNj4+vr68fHx9fXV1xOByRSCSVSqT3yGRS2SdIf0AikfB4PCaTeXZ2tru7Ozs729HRkZuTExQYaGxs9NzzmUIm+fr6TE1NvUCVBqlUOj095eHhjt0UgwIDNjbWVdMIO9rbLS3Mny/xxsnRcWRkRAWrakgkkq7OTuwt6ChkUmlpyfX1tSqrBdgw2gJBfFws9uri8qmQlppyenr6HPnjCILs7++FhYXiUjxLW4s2PDT0BpIlwIZVfOjp6mRmZhweHn41d0heIHljY6OqsjIkOMjJ0cHaytLM1MTUxFjpoa+ni1d0R1dXxwTDkSg+TEyMjY2NlP7nWjRN7Mv0KmLDt7e3dXW1z7oZlEwiGujr+fv5FRcVTU9PnZycsNnse/2Vym/dchS8LSMIIrdksVjM4/EYDMbq6mpDfX14WKiZqcmz5vFr0TRTkpN2drafu3QXgiDHx8dxcbHYc7HMTE0mxsdUcCWdy+VmZmbgYgLfGkaGBrU1NSqYU3tzc5OXl4u9vI+ZqcnI8LBqNt0AG34EmUy2uLjo6uKMy53XQF+vs6ODw2Y/01S4vb0tKiw0xNw1Uf7kS0lJPj09BRsGG/5qhp/G/SQhk4hUCpmmSdWiaT51GOjrOdjb5WRnbWyso6yWIAgilUpZLNbq6urIyEhPT097e3sbBjIzM3DZmUcmEWNiohsbG9qen5aW5qamptbWVuX+uT8eFaZVwYZFItHU1JSfn+8zFcwmk4gmxkYB/v5lpaVLS4ssFksikTzVgNHNWD6fuVzuxvp6S3NzVGSEpYX5820EtDA3a2yofwHB4vF4ZaU49Csmk4jVVZUqmKe3urrq6+PzrMnfVAo5NSXl6OhQ1RIJdnd3oqMisb8JBAYGrK+vqXg3A7Dhr8Pn86uqqozxqNVA0Pjg6+O9sbEhkUie6TqXSqXjY6OODva4uLutjfXc7Ky6Fx4GG8bzZk2lGBka2NnauLu7+fv5hYeFRUdHxcXFJiUlpiQnpaQkKz5SU1OKi4p6e3vodLo8VIB+YuUOIblHjI3JyQknRwdcUrGbGhtvbm7EKk9eXh72WaQKNnx4eJicnPRM25homlQPd7fS0pL5uTnm9bX8Rv1MX1Y+n/l8/sb6em1NTUhw8DPV1SaTiL4+3gsL8yLR85Z3lclk/f041FkjaHwIDQne3d1RqdRhiUTS3NxsgXfTjS+Hl6fH4sK8SrXhuPOK8XHsaTBUCjk3N0f1m2+DDX+d09PT6OhovBZHKsrLb57zHR1BkIuLi/CwMFwa5unqaNfV1ap74WGwYVwswcHePiI8LCcnu7a2pqe7e3JiYmlpaXNzc2fnbvPQ4cHB4eHB4VM4OjpiMBh8Pv/lq07OzEw7OzniYsMtLc1fTXdWKRAEKSgowL4T8dVtWCgU1tfVWZibP0d8zsTYKCEhfnh4+OzsTB4CeIGviSCIRCK5urqan5/Py82xsrR4jh1aWjTNtNSUw8PnjTgiCHKwv49L9NTE2GhqclKljJDJZGZmZrxAARNDA/2enm6VylHkcjn19XXY3wRMTU1aW1tVtmAI2PAjr0TT09POzk64hFotLczn5+aeO9QqkUjqamuNjQxxKAZHIkZGRuzu7kilEvX9EcGGld7SQaNpWltbhYWFlpYUDw8P7ezsXF1dsdlsPp8vEokkEok8jRILL+McYMNvwIalUsnszIwnHvu0Psv5IZGINtZWJSXFOzvbL/96Jr8ERCLRyQm9trbGxcX5OZJA7noqNTU+d/qBUCjMwkMZSURCdXWV6gRiEARZW1sNDgp8gWLtJCIhOztLpQKo5+dnGelpWBdkCBqenh4z09Mq24IObBgNPp9fVlZmiFOZ4bS0NPkUf9apIC887OXpicszw9rKcnBwgMfjqm94GGxYuRapDg72iYkJHe3tW1tbHA7ns+xJXNIoXwuwYXW04YuL86SkRNyDcxQyyd3NtbGx4fT05FlTIx79jWQy2eXlZXdXV2BAwHPEIP39/Rbm54XPGXS8a0qHU7JEZET4/v6eiiSYisXinp5uezvbl6kY7eLiPD8/ryJVNRAEWV9fx/4mQKWQExMT5I0GwYbVj+Pj49CQYFyyDgz09Xp7e7jcl9BKLpebk52tp6uLyxJbUVGhytYDBxt+jqpMjg726Wmpvb09e3t7XC5XfvN6G226wYbV1IaFQuHQ0BDufVgoZJKPj3d3dzeDwVCFhzSCILe3rInx8fCwMB1tnK96A329kuLi525Qd3x8HBQYgP1ncnCwn5ubFYvFqnAFMZnXxcVFL1DR7/tghI52a2vLy9iCAmsy0v7+PuxvAgb6elVVlVdXV6r/KAEb/go9Pd3WVpa4vA76+vhsrK8/3/65z26pU1NTDvZ2uNRU8vPzle/8Axt+8zZMIZNCQ0J6e3sODg54PN7b82CwYTW1YTqdnpaaiu/mOQqZ5OfrMzw8dHNz8/LJ6yg/FpfLnZ+fDw0JxreYF4lI8PRwn56eftacVJFIlJeXi32yGRoadHS0s5+t/tKTfpHtra3IiIhnKmPy1QstPS31hE5XhdA4n88vKizQw7zF09bGekhNaraCDX8lwhoXG4vLBaBJpRTdd1x8scl9eXkZHRWFy8Hr6+kODg6oYD1wsGF8n5RGhgaJCQlLS0tvMh4MNqy+NiyVSoeHh1ycnXDMGCaTiB7uboODA7e3t6qjwg+/l1gsHhsd9fH2xmVl8tMMqJLi5+39iyBIf18f9mQJTSolNydbXpv/dX8OiUQyOjri7OT4Yo21CRofPD3cFxYWVCEIRT8+jggPw37pPdRWAxtWPxYXFx0d7LFfABoaH8zNzIYGB3k83ovNA6FQWF1VZYJHYTgiQSMtLfX8/Bxs+K3aMIlIsLWxLsjP39vbe7Hd9GDDYMOKXwVZmZk4BoaJBA0ba6vm5qarq0vVfDwjCMK+ve1ob3dxdsK3FLG7m+vy8vKz5qRubW0GBPiTMW44I2gEBwetra1KJK+cLMHj8SoqKnDZmP6kqhodHe1c7uvfW0ZHRpwcHTCKEIlIyMvLvbi4UIsnC9jwzyAQCEqKiw309XC58wYG+G9ubr5MmoQcmUw2PT3t6uKCSzTFyspycXHh1e9KYMPPNOzsbKurq46OjlS8RRDY8Pu04anJSVcXFxwzhg0N9AsLC46Ojl7ynqzEPfzi4qKyosLM1ATHi11bi1b/zHUzLy8Z6elp2OebnZ3t6Ojrtyk+OaHHxEQ/X3uUb+3Yyc3JefXuVyKRqLS0RF9fF/sV19vboy6tbcGGf4b9/b2goEBcVqnuGnOXlLxw8jiCIOfn54kJCdj7ZMq/QpVKNgcCG8blVaexseHs7EyVzQBs+N3aMIvFSktNxbHGApVCTk5K2traUvG+QvL2HEeHh2mpKfjGxb29PFdXV54vPMzn85ubmywtzLHndTQ01L96nbWJiXEXZ6eXTJOQB1ODAgNWlj++brLE2dlZdFQU9piav5/f2uqqWqRJgA1//j7U1dVpY22FywVgamI8NTX18jX27nvnNJmbmeJycfr5+mxubqpIzRewYRyDZPJ9vupynwIbflc2LJPJZmdnXF2c8XIRIkHD08N9bm5O9YuePpRdW1tbDQwIwDE2SdOkNtTXP9+tTCaTzczMeLi7YQznEwkaKclJdDr9FX8psVhcXlaGyyrxU4eNtVVvb88r3l7uV5in3FxdsKdJFBcXqUU1CbDhz7m6uspIT8frdTw+Pu7khP7ytnFfMHzNw90dlxVGQwP9zs4OVdjhCzaM19DX001LTT08PFT9ApBgw+/Thnk8bllpCY6VrYwMDevq6pjP2RD0OaIzzc3N1laWOOaKREVG7uxsP1N0A0GQo6OjqEgcijC4urqs3scUXzM4Gh1Ffv6mG1/NaSkqLDw/P3+tr8/n82tqqk1NjDHnQBsPDg6qURoe2PBP34fWVlf9fH1weRfX1qL19/W95P65T2Gz2RkZ6Tp4uBSFTEpJSabTj1WkHDrYMPYfNCw0dHFxUV1yucCG36ENHxwcREaE41XZ6n7Oh6ytrapXfjyCIHt7e3GxsTimi9jaWA8PPePGbh6PV1RUiD2kqqerMzDQ/4r3qKmpKVfMwVGlL7fw8LCtrVdbkj05OUlJTsI+6wIDA9fX19XIHMCGv0coFLbcJxjgcgF4enhsb2+91jK0TCYbGxu1sbbCazPywsK8Wqwwgg0/OizMzXp7e+XBfrBhsGEVtGGJRDI0NOTkiFvHDWMjw6bGRnXc/8Dn89vb2mxtrPHSMh1treKiZyy1JpPJ+u+a0tlgn3I5OdkXF69T0UggENTW1GApzUQiErD8ZDY21mNjY6/VguTjx6UAfz/sLehyc3NUqtE02LCiXF9fx8XF4lL2nKZJLS8vf8VVOQRBrq6uwsPD8Gqn19TUqDq948GGsdyjk5OTT05O3lW6MNiwetnw7e1taWmJEX6VreQVT9VxtyiCILs7O5ER4Xj14yASNMJCQ59vKwiCIDs7Oz7e3tj13dnJ8ePHj68SH6XT6Rh3oltZWpiaGCv9OqdJpdRUV7/KM1csFvf29thj7uFlbGTY3Nz8ws9NsGF8mJ2ddXZywiUaYWtjPT09JRS+5ko0giCNDQ0mxsa4KFR8XNzh4aFMpk576cCGvxyWlhYTE+PvMEcCbFiNbPjw8DA6KhIv/6PRNOvuKovdqOmcFwgELc3NFubmeN0E7O/ql40+X/0yLpebmpKM/eejaVK7u7tevs6aVCqdmZnx9vJUuqIChUxKTk6KjYnRx9DILTIyYmdn5+XTDJhMZklJMcYqy0SChru72+TkhHo9a8CGv5OnSeTkZOOyf45EJMTGRO/t7b36FqX19XUvTw9cCg9bW1nOzEyrV7IE2PCX9+i83O8LoYMNgw2rpg3L6xK4ueJWZtjD3f3jx4/qW0YQQZDDw8OAAH+8ToiOtlZdXe3z5Y0gCNLT021tZYl91uXm5Lx84wYul9vc1GRtZal0cNTCwrynp6ettdXO1hbLHxkZGXn5ZImDg4PYmGiMKftUCjk+LnZne1u9NmqDDd9xfHzk7eWJy+3GQF+vob5eFXLUWCxWLk6Kf1c7ubSEybwGG1ZfG7a1sZmfm1PxYqtgw+/chsVicWNDA16NJ2ia1JqaGjWtmP7pOSkvLzPEqcIG8S5dKolOP36+c3J4cBDgj4O++/v5bmxsvHCyxPn5eUZ6GpZ7b3R01M7OztLiYmCAv9Kb8ilkUllZ6cs/c+fnZj09sBak0tfTrSgvv7y8VK/rDmz4btNGe3sbXgV6XZyd5+dVYs+ZRCIZHByws7XBaV+g+yvucgUbxr5kkRAff3x8/D4zhsGG1cWGeTxeamoKXmkSNtZWi4sL6l5JEEGQ9fV1H28v/OLlbutra8+3Cs/lcrOzsrAXNbKxvttM9pKr7fLSUoEB/kqvqWrRNBsbGzgc9tnZWUYGpoKtYaEhW1tbL5ksIZPJcGlWYGVl2d/f/1o1tcCGlefq8jI2JhqX+y+JSEhKSpTXI3v1eXC3oWF7Oxin1np6ujo9Pd08Hldd5jfY8M98Cz3dZ10eBRsGG8aFo6MjXMKKBI0PZBIxPi728PDwDcx5DoeTmZGho43PDcHQQH9qcvL5up1JJJLOzk7syRL6erq1NTUvuR9dIpH09vRgCSE52NvNzsxIpVKBQNDchKkzn7W11fDw0Eu+DHA4nIz0NOyVDQMDAlZXV9XuLfS92/B906NZVxdnXO6/ero63d3dXK6qKCOLxSoqLDA00MdlM3JiQjydTleX8oFgwz9zj3awn5qaerf758CG1cWGR0ZG7O1scZnzujrab+YN8N4vO7D75UPUpqmp8fl6KiEIsry87O3thXHXCoVMSkyI39/ff7E1SS6XW1CQr3RA937Heez+/r7snrm5OQ93N6XFWldHu7ys9CXzDdbX1/z9fLG70MMGFfW6yt67DfN4vJpqHNquPJTm3dzcUJ1XIqlUOjY2hr1ayveJp7Y209Nqs5cObPjTe3RoSPDOzs57az4HNqxeNowgSGVlBV4Jsra2NiMjwy9flOD5/NILp80tBI0PaWmpJycnz2fDZ2dnyUmJ2tg6OGhofPDwcJ+ff7l+2ru7uyHBwUpLvJ6uTnVVlTyYjSDIxcVFbGyM0oV7KWRSdFTU9vb2y0SgEARpa22xMDfDvk2zo6NdHa+7927DJycncbExWCoLfjp3y8vLVKr5p/yuFB4WikuyhK6OdlVlpbp0NwUb/nSHb3Z2ljq+rIMNvysbFgqFyclJ+LSgI2j4+/stLy+rV/85lJ/y/lEVi1dGtZeX58bGxrOmDtfW1Jhhy0DV0PhgamrS3d31MteaTCbr7u5WumsVkaDh5OQ4PDz0kC8rFovv3u4wrM26ODtPTky8zMvAfZpEOvarz9PD4+PSkjpGXt61DUul0onxcbyaHtna2iyrXikfiUTS0FCPpa3Op3l4kRERu/chRrBhNbJhbS1aQ0ODehVCBxt+hzZ8cXERGBiAy0IWhUxKSko8OjpUu5byKPeE4uIiI5wC5ybGRtPTU8+XOiyTySYmxl0xV8rT1KQWFxddXjJe4Fq7vb3NzMhQOjR2H8qN3NzcfHAABEEwJksYGRq8WOurnZ2doMAAjL8XiUjIzc09Pz9Xx2fNu7ZhkUhUWJCPpUT2pyM5OUkF+xAiCHJwcIDlgvysxc7Q0JBa7BUFG/7kK+iODA+/86RhsGHVt+G1tTUPD3dc7lTynMurq8s3M+dFIlFHRzuWOrifvSH39PQ833I2giD7+/sREeFYY413zfNC9nZ3X+B3XFtb9fX1UT7NV1entKSE8bNLcFdXV8lJiUqfBAqZlJ2ddXZ2+txfXyqV9vf329thTao00Nfr7OxU0/Skd23DR0eH/n6+uPSn0NfT7ejoeL59CRjDw1lZmTrYUrge1tyLigqfr8092PBz2LCpifHHj0vvPGkYbFj1bXhsdNTB3g6vOd/ZqaI3ZKV/zenpaQ93N1weWJpUSnV11bNuMeRyuXm5uXq6WINNFuZms7Ozz70gKRaLW1tasJSAkJcV+0wERSJRfX0dlvrZ/n6+a2urz73EcdcOvaQE+8qDp4f7wvy8mja7eb82LJVKW5qb8CnzTtDw8vRYWVlRzRw1BEFGR0fwKjzs4+31fG3uwYafw4ZdnJ1ebCsG2DDYsNJH29bWin0Tz0Ol4cnJCfVqn/komxsbeFXMpJBJOTnZz7qijSBIX2+vjbU19gy9hob6536xubq6zMJ2yw0MCFhfX/+suKpUKp2dnfX09FA6A8HI0GBgoF8kEj3r1Do4OIiPi8W4gYpMIqakJB8dHanps+b92jCTeR0ZEY7LnUWTSsnKzDg9PVXZ1gZHR0dhYaGaeGxP0dfT7e3pUZ0qcmDDj46Q4KDDw4N3HhgGG1ZxG5ZIJJWVFXjlxbq7ua6srLyx9ZDT09O4uFi8SuPHxsY8923h4OAAl4pd4WGhe7u7z+dYCIKsra2FBAdh8YG8vNwvV00RBDk+Pk5MiFdaNMkkYmFB/rOux94r+wz2ingG+no1NdXq1bMWbPiOqclJvMKlJsZG3d3dHI7qrsqx2eyyslJcnjQkIiExMeH09BRsWF1sOD4+7vmqKYENgw3jAofDycVjYV0+QkND9vZ239icv+vBkZmBS84bkaARFBS4s7PzrKeIz+enpaVi13djI8PJyYnn2/MnEon6+/scHR2UFnd9fb3u7u6v7s1gs9k11dVmpsqX13B3d1taWny+lwE+n9/a2mpjbYVRhxzs7YaGBtWuBd17t2Eul5ubk6OH+TnxkDywvramyrkyUql0amrK1dUFl5wzczPT6ekpFV+FBBt+GOnpaWq6yRds+P3YMJN5nZ6ehtecT01JfntvgBKJpKSkxEBfD5dT5Onhsfac/ZnllSXa29oszM2xh2Dq658xWYLFuikvK8VSeSkwwH99fe2ri8NSqXR8bMwNQ3kNLZpma0vz81nm1dVVXm6uvp4ext8oNCR4dWVFTZOG36kNIwiyubkZ4O9PpZBxiZUWFxddXV2p8gxAEOT09BR7YtDD07GosEDFvzLY8MPIyEiHYsNgwypuw2dnZ4mJCbjdoIoKVfwGpdwP2tLSYm6GT2q1k5Pj/P2Gp2c94L29vQB/f+xRmOS7ennPlZB6cHAQGxujdAz7rtVA2TdbDdyV19jbi4mOwlJeIzU1hU4/fqavv7u7Gx4WhlGHtLVoBQX5KlhWC2wYDaFQ2NHRjn1d4Ic0CePpqSmRSNW3awiFwvq6OlwKDxM0Pnh7eW1sbKjyXjqwYbBhsGE1suH9/f2oqEhckmKJBI2ammoW6+bt2fDQ0KCdrQ0utwU7W5uxsdHnLrzI5/Nzc3OwT0JvL8+P9+X8n+Mgp6em3NxcicrGbs3NTEdGRlD20HM4nPKyMiyZip73PfnEYvFzfP3R0REnRweMOmRuZtrT062+aRLv1IYvLxkZ6Wl4pUnExcbS6XSV3T/3sxHxDVxsQL7RtbOjXZULGIENgw2DDauRDW9sbGDcxvTpAbe0NKv+Tl8lmJ2dxesebn1XEazvuc+SRCLp6elRusHbzx5t/3McLYIg9XV1xkbKx4mCAgM2NtZRArdSqXRkeBiLcZqaGLe1trLZ+D+GJBJJWWkp9q4L968r6l3H893ZsEwmW15e9vbyxCWDVluL9mWJQZVFIBAkJyfhEn2hkEnJyUnPt3YDNgw2DDb8rmx4ZWU5wN8Pl+w1IkGjt7fnjZVXk7O2topXKyULc7Purs7njmjclWtYXfXx9sJYWUJHW6u0pJjBwP8+xmQyk5OSlJ54NE1qbk72Geq2cgRB5GWdlD4J2lq0/Lw8ed0qfL/+xcV5dFQkRh0iEjQy0tNOTk7Uuo7nu7NhsVhcX1dramKMi2f4+vjs3ld+UYvbLoIg4+PjeFXScHV1mZ+fU9lHDtgw2DDYsBrZ8NLSko+PN4VMwsWGR0aG32S7mb29XR9vL3xy/EyM29pan/vOhiDI2dlZQnwcxoxwIkEjMiJ8a2sL9/S8qakpN1cXpU+ppYV5e/vjy6Qikai0pFjpECyZRAwPC1u736yP79efGB9zdnLEOKP0dHXa29vVOk3iPdrw5eVlBE5lhmmaVJTcedXk5uYmMjISl6+vr6fb0FD/Mi3UwYbBhsGG37YNLyzMe3p64LJkRyYRx8bG3mS7mZOTkwB/P1xs2MjQoLGh4Vnb0cm5y5otLzM2MsS+7W9qCudaRveSWqK0pJKIBD9f34WF+Ucbb933wBp1wuCd9vZ2g4M41y8TiURlpSXY0yQ8PTyWltS+3em7s+GJu+CoLS53E1sbm/HxMfVqyS2VShvq8dlLd1e/PSbmhE4HGwYbBhsGG8bI7OyMm5sr9k4N8lX1qampN2nD19fXISHBuDy/DPT16mprXiCaI5VKh4YGHR3sMf649wHINnyvOzqdHhkRofQ7GE2TmpmRoWCxi5OTk+joKKVXP3S0tSorKq6v8extcXFxERMTjf0VNCsrU62rSbxHG+bxeGlpqbhUL793wej9vT31eh+6b7pzl8WFy4qkpYXFwvz8M210BRsGGwYbfj82PDMzjaUm66fD0EB/dmbmTdowj8cLDwvDxYb1dHUqKypeoA6dvM5aaEgIlULBOg8zM87OcGv8JJPJJiYmXF2clT6fRoYGrXeb2xTKvRaJRFVVVUbKxsiJBI3oqCgce/LJZLL5+XlPD3fsaRId7e3qFRYEG/5uc3PTxdkZr1tJfV3tCywz4c7NzU1OTg72xRH5XrrSkhLmtSp2YgQbBhsGG1YjG56ennJ1ccbFho2NDOdmZ9+kDUskkqioSFweYdpatPt9aYwXmMZcLjc7Owv7VPTwcMexY4hAIKivrzM3U75LnKury+zsrIL9JqRS6cTEuCuGHGUba6vJiXG8UocFAkFTU5OFBdbeKB7ubvPzc+rbdOM92rBQKGxoaMBr/5yjg/3c3Kw6blsWiUQ93d14lVt2dnJcX19XwcLDYMNgw2DDamTD4+Njjg72uNyULC3MFxcX3qQNIwgSEx2Flw2XvJQNy2Syjo52S8zipa+nOzg4gFeN5LOzs7S0VCy32dSUZDr9WMGDQRBkd3cnKjJC6TYcmlRKbW0NXnt1Li7OszIz9LDFxUgkYlJiwsHBwRu43N6RDZ+cnMTGxuDS64ig8SElOUle7kTtJANBkO3t7cDAACoee+k0qZT29jYuV+XMAGwYbBhsWI1seHR0xN7OFp++Ena2Hz9+fKs2nJiYgEuemxZNs6io8GXuDPJkCezVMIgEjby83IsLHPrMy2SyhYUFfz9fpU+mthattbVF8W1tCIIwmcySkhIjQ+U3FIaGhmxtbeIytzfW10NDgjFuqdfX062qqry+fgt9H9+LDUul0pmZGXc3V1z2LGtSKV2dnepb3Z3H4+Xn5+GSLEHQ+BAbG3N8rHKFh8GGwYbBhtXIhkdGRuxwsmEHe7vl5eW3asPp6ek0TRxqxtM0qXm5uefn5y8zjUUiUUZGuhbmaJSHu9vq6ir2H1cgENy1pLWxVj5NwsV5cWHhSRExkUjU39+PZQ3ExNhoYGBAJBJh/NUkEsnw8LCzsxMRW26So4P90NCgutdWe182zOVya2qqzUxNcFlj8vRw37hPD1DTGYAgyMjIiDXm/kAPHT6np6aEz9zhE2wYbBhsGGwYbPjOhvHooESlkHOys89fqhQAgiDd3V3WVpbYkyX6+/qw79m6vLzMzcnR11e+tlpmZsbp6dO29CEIsr6+HhwUqHRAmkwilpQUY9/7yOVyq6urMCaOkoiE0JDg1dXVN5A0/I5s+OjoKCI8TOl8nc+2jjXU193estT657+4uAgNCcal85OujnZ1VdW1iu2lAxsGGwYbVhcblslkg4MDtrY2uEx4VxdnXMKHYMP4sr295efrg3GjJIVMKioqury8xHjYGxuYrNTQQL+jo0OJmOjNzU1mZoY2hsJWoaEhm5tYkyUYDAb2xrRaNM38vFwcq3yADb8EQ4ODtjbWuASGra0sl5eX1b3QtFQqra/DrfBwRHj4zvY27m1ywIbBhsGG34MNSySSnp5uvFarfLy9Njc33+SEV2sbZrFYGRnpOthua0SCRmhoyPb2NhYdRBCkr7cXS1tWb2+vpaUlJWKiUqm0o73dytICy2LsyMgIxq2E6+vrfn6+GN9MTE2Mu7u73kaaxHuxYZFIlJmRjleZ4eSkxDfwMnS3rWH3rsknLonU1laWqpY8BDYMNgw2rC42LBaLu7txs2F/P9/trS2wYVWzYZFI1NbWir2yhKODw+TkJBYd5PP5+Xm5St9gKWRSenq6crtl7naxb20FBvgrbaIG+no11dVYCpvKZLLOjg5rK0uM8UFPD/c30ILufdnw7u6Ol6cHLpUsDfT1Ojo6FKy2rfovCfn5eXqYH5byDRmFhQXYV6/AhsGGwYbBhsGG36QNy2SyxcUFL09PjCGY+57S9ViK/e/s7AQGBiitBMZGhg0Ymlqz2eysrEyly1tRyKSE+Ljd3V2lC5tyuZzMzAwtzLMoNTWFTj9+MylJb9+GxWJxZUWFkaEBLvdZdze3paUl7Ds6VeTGOjw8jFcCibubK16VX8CGwYbBht+bDeOYKQE2rJo2jCDI8fFxfFwsxjqnVAo5LTXl6OhQJlNSBzs7O5TOVSASNNzd3aamlA9OS6XSnp4eWwx5Gh7ubjMz00p7yObmZgCG4PRDgbnm5mb1raz1Hm347OzM388Xl3yAu4swLfXk5EQdywx/lb29veDgIE08Cg9ra9EGBvpVpz0j2DDYMNiwGuUN9/b22uBkw36+Pltgw6pnw/KwaFlpqbER1v0qvj7eHz8qGZZis9npaWlKb6mnkElxcbG79x2SlTt1P7SqDlZaSwyf0hH6y0/v6uzEnibh4uw0Pzf3ZtIk3r4NS6XSkeEhvG6yuro6lZUVB/v7l5eXV+rP5eXl/t5eRno6LskSRIJGXFzsyckJ2DDYMNgw2PCTkMlkQ0ODdjjVlHBzc11fXwcbVkEblkqlgwMDDvZ2GFXMwsJ8cHBAuZ0qdxvIfH2VPoAf+k1gqqHEYrGys7OU3stEIhKys7POlPrtuFxubm4Oxm1URIJGakqKCvYZABv+JkwmMyszExfbu6snokULDw/Ly80tKix8G6MgP9/P1xev/nwG+nrjY6NCoUoUHgYbBhsGG1YXG5ZXQMet3rCDPdQbVk0blu/eDgnGWtyTpkmtqKhQQknl1UuwZCk4ONiPj49jzJYUCoWdnR1Y0hS9vb2Um+R7e3thYaEY2xnq6mg3NDS88GMRbBgTa2trfr6+uFTVlT8VtLVoero6b2nQNKm45A3Lz09uTvblizS+BxsGGwYbfjM2DN03FP9NU1NTNPEonE/TpBbk57/8neGuE2peLsZOqESCRnh4mDxd4UmffnV1lZ+Xa6Cvp/RHx8XG7O/vY5xdMplseXk5MMBfaSs10Nfr6+19qpRLpdK7FnROjhiThh0dHcbHxwQq1nILbBjt9au9rc3K0gIv24OhYNtMVSg8DDYMNgw2/D5t2Nraamlp6a3acHx8PC7bYLS1tYqLixgvHry4q/Xb14elJbJ8mJuZzs7OPqmuAoIgG+vrYaEhSm+VoZBJdXV12K99BEFOT0/T09KUvjzlsaeLi6c11uZwONVVlRhb0JFJxNiY6O3trbeUNPzGbfji4iIpMRGXMsMwFC8909HRweG8fgU6sGGwYbBhNbLhiYkJJ0cHXCIXJibGc3Nzb9WGY6KjcTlL2lq0kpJixmss5e3s7Ph4e2P8FhQyqamp8UnPGpFINDQ4iCUyamNtNTU1hYsF8ni8xsYGLNE6j7tyv4tPeh+g0+kpKckYnyx6ujplZaUM1VgEBhtWiIWFBVcXF1zKDMNQNBeNSklLTT06OlK6FCLYMNgw2PA7tOGZmWk3V3xu14aGBrOzM2/ShsVicVRkpLrbMI/HS0tLxb5fJSoq8uDgQPHjv7m5KSsrNTYyVPpCSIiPPzg4wGVqyWSymZkZL08PpSP9BnfdodsV30ook8k+flwK8PfDmDRsbWXV09PzlmqrvXEbRhCksrLS0MAADPVFB0HDxdl5dnZGKBS+7qUCNgw2DDb8Tm3YQP+t2jCbzQ4LDcXFhvV0dSoqyq+uXqFlEoIgPT091lZYaz1ZWpjPzswonpi3v78XEx2ldJqEjrZWXV0ti8XC5YzJkyUSEuKx1HrLysyQl3xV5BOFQmF3dxeWftTyu4Gvj8/S4qISXanBhl+Hy8vLkOAgjO9AMJTdbVqP1y0DbBhsGGz4Pdjw7OyMm5srLjasq6M9PT31Jm2YwWAEBQbiYsN3DX5rqpnM61eZxjvb236+vhh/bpomtaWlRfErcXx83N3NTemzZ29nO3ZXNAm3QI9IJKqpqVG6+jKRoOHn6/Px40cF3wdYLFZBQb4+hh2E8lIk6Wlpb6y22lu24fteL93Y+6HDUO4SjYgIPz4+BhsGGwYbBhtWkPn5OQ8Pd7zaJI2Pj79JGz4+Pvb388PFho2NDBsbG7D0N8Z0i7u5SU9Lxbirh0wiZmSkKxgclUql5eVlJsZKqieJSIiKjNzc3MRx6xiCIAsLC54e7kr/oFaWFt1dnQomTx8eHkRGhGMMEerr6bU0NyvX+ANs+BVgsVjR0VE0PMrQwFBimJoYz83OisVisGGwYbBhsGFFWFpa9PH2wmU1j0jQGB4eVoXKNrizt7fr4+2Fiw2bmhi3tra+VslYoVDY1tqCPWIVEOCvYBWj6+vrqMgIpcut6unqlJaWMPC+kTKZzJTkJKVdRUdbKz8/7+zsVJH3gfGxUWcnR4yTx9HBYXp6+u2lSbxZG15aWnR0sIfCaq81SERCfl7e5eXlK14wYMNgw2DDamTDq6sr2Pf3PBxwb2/Pq29deA5WVlY83N1webRZmJt1dXW+VpBPJpMt3odFMSZL2NnZDg0NKbKTbH5+DkvREhsb676+Xty3jkml0qamJjMzU6UfteFhoWsKvA9IJJKy0lKMZZ4JGh8SE+IPDw/f5MLLG7RhoVBYU1Oj9IIIDFyGna3NysrKK1aWABsGGwYbViMb3traDAkJVnqH02cH3NbawuNx396cn5mZwWUOy4uFDQ4o2dwYl8lJp9PjYmO0sPXV09PVqaqqurq6Qv8WQqGwsqJCaRckEQmBAQHLy8u4x0QRBFleXvb18VburUDj/n1AkSbVDMZFTHQUxkwkLZpmc3PT26sm8WZt+OT+GsOr2zAMpfc3tLW2vmJ2Edgw2DDYsBrZ8N7eXmREOC7pbUSCRlVlxWtlxD4rQ4MDdrY2uNwW7O1sx8fHX7GdGIfDKSkuNjI0wLgOGR8Xu7e3hx55OTk5iYmJVnrlQZNKyc3NOXueLtbX19cZGenKpVBr3CdLVFVWMh9rUj0zfVezBeOqgoOD/czMzBtruvFmbVgikYyPj7m6OOOyGwMGlptUwt2SysFrhYfBhsGGwYbVyIaPj4/j42JxiWIQCRp5eblvb84jCNLc1GSu7Kr6Z8PZyXFubk4sFr/WWZLJZL29vRgLfhE0Pri5uc7Pz6P0KJbJZNNTUx7u7kRlszJMTIy7ujqfKSZ6l0Ld1mplaaH0bI+Ljdnb20PJXhCJRNVVlUoXWn74oMTExLeaJvEGbZjD4ZSWlGD81WHgMhwdHaamJl8r9gA2DDYMNqxGNnx5eZmWlorXnE9NTTk5OXljc14qlZaWlBhgq5D1005m7u6rq6uvmMyGIMjm5qavrw/G0JWBvl5vbw9KqgCPx6uvr7MwNyMoq90B/v7yc/UcM0omky0szHt7eSrfIc/GWt4h71sfcX5+hqWw8cOOvfr6+tfadgk2/GSOjo7wSj6Dgb3qZ2VlxaMZXWDDYMNgw2DDXC43LzdXT1cXlzkfHha6v7f3xuY8m83OVHZJ/csRGBCwvb39uqeIzWanJCdjTB0mEgm5uTnn5+ff+i7Hx8dpqcq/aJFJxOLi4ud7kCEIcnR0lJiYqK3sL0ulkOtqa9jsrz+kEASZn5/39vbC+NbhYG8/NjYmFArAhtWDgYF+pVccYOCeLBEWGrK1tfUqpY7AhsGGwYbVyIbFYnFZWRle3UM93N1WV1ff2JLuyclJbAzWbWefLK/HHh4evu4cRhCks7PTEvMj293N9VubtmUy2fz8nD+GciVmZqaDg4MomRi4vBXU1FSbYciBCQ8P29nZ/uqEF4lEra2t1laWWDJSSERCZETExsbGm6yt9gZtmMPhpCQnwf451RkW5majoyN8Pv/lrx+wYbBhsGE1smEEQVpbW/BKirWztZ6amnxjRdbW19eDAgNwWfmkkEnZ2VnPtC3sSezv7/v5YW1Kp6er09/f99WsPIFA0NLSjCU7OTwsdGtr81nfrCQSydjYqIuLs9IHaX6n7ANfnfBMJrOwIN/QQB/jSm9RUeHZ2dlbTRp+aza8uLCAvbg0DBwHhUwqLMh/lcLDYMNgw2DD6mXDo6Oj9na2uMx5E2Ojjva2N5bjODk54erijEvzak0qpaqqkslkvvr5EQgEqSmYkyUIGvn5eQwG48uvc3Nzk56epnRtNSqFXF5W9mjFBuyTf39/PywsVOlkBiqFXFJc/NVH7eHhQWxMNMakYWsry1esTg02/DSEQmF+Xq4e5ls/DNz30q2vr7/8Xg2wYbBhsGE1suH7BhyreLWW0NHWKikp/qoeqSkikailBYfmbQ+FY7u7u19l1e7LWdrS3Ix9TcDHx/urD5qtrU1fH2+lLdPG2mpoaOgF9oLf583nKJ0UTiRohIeFyhtHf/pnpVLp3Nysp6cHlpcoIkHD28trYX7+FSuQgA0/gcPDQx9vbyispmqDSiG3tba+vDqADYMNgw2rlw1fXFwEBvjjYsNkEjExIeHg4ODNLOze3NwUFhZiXO9+GMZGhlNTUyqSA7q6uurt5YUx5m1ibDQ8/BVt7ezssLK0UG5S3W99CV1fW3uBE4UgSH9/v52drdLz38HBfnRk5LMzIBAIGhsb7+ppYLuakhITDt/Q1fSWbVgqlfb29mLME4fxTCMiPOzlLySwYbBhsGH1smE+nx8THY1PRIOg4efn+3Fp6Vk3P70kdDodr3rMd7sMPdzX19dURG6uri5TU5K1sdXK0KJpVpSXfVb5gcfjpaelKn3StGiaeXm5p6enL3Oi6HR6RES40vPfyNCgsaGexfqZpjM3NzcZ6WkYpw1Nk1pTXcVisd72Q+SN2PDlJSM9LU1XB580CY37B8A7HwT83iuMjQyHhgZfeFUObBhsGGxYvWxYJpMVFxXq6eFTZM3ayvIVOw/jfmY+Li15YVvv/qIeM11Fzgyfz29qwiF+GRUVubu7+6m5Li8vY0kSsDA36+hof7FkWbFYXFFRbqBs+F+TSsnMzKDT6Z+egc3NzcAAf4zTxtbGemJiXCIRgw2rwZ1icXHBy9ND6RIqX+79cnZyDAzwDwoMeJ8jMMDf2soSx/Mp37/8kqEIsGGwYbBh9bJhBEEGBwZsbaxxmfbaWrTKysrrZ97/9DKIxeKWlmaMvvipODY3N6nOjiiZTDYzM+Pu5opR2lxcnGdmZh7qKkil0pqaGhNjI6WnvY+398LCwoslyyIIMn3XP9lV6SVufz/fpaWlh5KmMpmso6MD+5p57GO97sCGVQWBQCB/s8QrTcLC3KylpXlpcXFlefl9juWPH0uKi81MTfA5pQQNT0+Pjx8/vuSqJdgw2DDYsHrZ8Hfffbe3t+fr443LbYdI0IiMCN/ffws9OFgsVkpKMl5pEoYG+pOTE6pTOFZeUSE6KhJjZQkTY6PW1paHe/X19XVCfJzStRSoFHJaasrR0dFLWiD9+DgmJlrpInpmpiY9PT9ty8flcrOysrSwTRsqhVxbU/OGW9C9KRs+OzuLi43BscxwfHzc4eGhRCKRvmPW1ta8PD3w2pVoZGjQ2tLCfsErCmwYbBhsWO1smM1mJyUmYqwG9WlcY3Z29hWbD+PF8sePOKZJeN4lDa+rVKiPzWYXFxcZGRpgvDBzsrNOTk7kX+3j3UnzJBGJSr8ztLx4BJ3NZldUlCsdz6ZSyPn5eQ93+52d7aDAAIzTxs7WZnJy8g033XhTNjw3N+fkiFuZYS2aZn9/H5/Pe+f2wGazM9LTdHASMjKJmJaa8mLbEcCGwYbBhtXRhkUiUXVVlbGRIV63nYryclWoqosFgUBQXFyEVzUJAkEjKSnx+PhYpc6JVCrt7+/D0iNDPoICA+QlICQSSXt7mxWGJAEXF+e5ubkXtkCxWDwyPOzs7KT0YXt7ey0vL8tksrsiFX1YTymRoPFO0iTegg2LRKKSkmIDfT28AsNenp47OzvyyfSe1QFBkKGhQWtrK7xOrIvL/7+98/xqatv68PsfHpLQewsgvfdeBQsEpAkIKlKkSQliQToooNJbaAomBCKBQEjb2ecdmju4nuM9R0xWwt7J7xn55PADu6y1nzXXXHNGLy4uWqxLM2wYNgwbZp0N6/X6yYmJqMgIUtGNmOio+bm5a2kOT4rdXQLd2v5bidnNta3tKdNWCDRNi0QbGelpJu5GBt8ImpyYUKlUx8fHtTU1Rjfd4HE55ffK9vctvWagaXp9fS0/P8/o7RFPD/eXL1+oVCqFQtFQX+9p2plUZ2enpqYm60i+t34b/l5mOInUTOHoYN/c3Mz2WAIpxGJxfn4ekUaghkMt35IlLLXxBBuGDcOGWWfDhhRSgtPOt6zH9jb2FodSqVT9wr4bQYGkohIREeETE+NM6LvxN05PT++VlZlaC8zZqaOjXS6Xr6+v5eXmmOKUAwPPLX+XaJqWyWT1D+qM3gowjFaJRLK1tVlQkG/iOLpxI2hw8LV1FGaxchumKKqvr5dPqLW9oZLIzMy0lXW3NxqtVtvT3e3v50fk3nI5dgUF+RbboYMNw4Zhw6yz4T///PP4+Liurpbgdl9OdtbK991zNr6029vbph8v+0s7iW8dy9YYmAZKUZSwr8/Euhlcjl3hzYLNzc3h4aHIiHCjw2Tfj33PX8sWsUajGXj+PCT4htHbI/Fxse/fvx8bG42LjTElUMjjcrKyMhcWFqy7BZ2V2LBMJrtz+xapmcLBnldaKtjb+0xRFNTB8DXd3NxMT0sjVWrNx9trcnLSMosN2DBsGDbMRhtWq9UDAwMhIcGkkiV8fbw7OzvYuOOnVCr7hcKw0BBSm5+uLi4PHz5k5mxA0/T29nZaaoqJFxsYwB8ZGXn4sMHoM3kO9ryamvsSieRa7hJN08tLS+lpaaa04ehob2tsfGxioS0XZ6dvpxL/WsAYNsxE9Hr97OxsbGwMwboH/cI+5lRhZALn5+ePHhJrB8rl2NXU3D88lMKGYcOwYdjwP/3Za6urmZkZDg72pM7SZWVmWLjCIxE2NjaKigpNbNL217TaGyMjI4zd+NZoNNVVlSYmSzjY86qrKlNTko1OEvDz9e3v77/GAS6XH1dVVhh9H5wcHfJyczIz0k38gvj7+fb0dFt9CzprsGGF4rSlpdnoWiQ/z/jJyUnzVtTJkwgURY2NjZmy5fTzoZa5uTkL3GTYMGwYNsxGGzakkNbW3PdwdyNlgV6eHq2tLV+/ylg0ClQqVUd7e1BgAKm5l2P3R25OzsbGBmM3P2maHhh4HhQYYOJlhoQEG316jMuxS0pMnJ2dvcaESYqi+vv7gwIDjc5w8PXx9vH2MilQyLGLjY2Znp62HSNisQ1vb28VmHD08ufDFrW1tQcHB6gm8bfp6dOnT4XkEtfc3Vw7OzsssNyEDcOGYcMstWGKosbHx8LDQklZIJfLiY+PnZmZVqlUrBgIFKWbmZlOTk4ilaX27YSZk2N7+7cTZky+AysrK8lJiSYuAOy/Fxk22gTKSkt3d3ev0QRomt7Y2MjISDfuKuy+v/Am3kMej3vnzh0bqa3GbhvW6XTDw0MR4WGk1s2+Pt4jIyMMPGl77SiVyubmJhProv84xm7fvmWBBj+wYdgwbJilNmw4WX+zIJ+gCzo62N+6VbS+vsb8I0F6vf7Tp93bRFtKcez+iIqMmJubY/ipGJlMJhCUkL3w30+6bb/2LHOVSlVXW2vcfbAjtHZqbW1h+NoJNvwNxelpzf1qgueOszIztre2EBj+n1+mmZmZmOgoUguPyIjwd2/fmjtIAxuGDcOGWWrDhj++p6c7wLQKAz8XeXzwoG5vb4/J3en0er304KC5qYnv70fw2p0cHRrqHzB/Hri4uGhre0r22n/38zQ+Pn7tewg0TQ8OEmhHYkrl5vGxMZtKHGWrDYtEosSEeEdCxywc7HldXV220InbOL41fC++S2q97ubq0tzcJJPJYMOwYdgwbPif+PTpU1FRIakcLUMqZGhIcGdnx8HBAWOF+OTkpF8ojIqMJBgX59j9ERsT8/HDB1bExScnJmKiowlmS/9Wxu3NmwUMSa3e3NzMy80l+xpc/XerqGjre3zQdj4QbLXhtranxDpV2v0RFxuzurKCwmr/BEVRg4OvTT/ccPlxzc7O2twUmfWDBBuGDcOGWW3D3wqvDgyYUnj1fwY+oiIjerqfMfNEnVqtHhoaSkpMIHUe5jIA8YiphdV+fmk3NzfzyZ0I+t10mibGtPKWy+UNDfUEN8B/s2dNu63FB1lpw3K5PD0tlVRhNR6X8+jRQxvpPWj0DHVwcGB628wfStj4jI6OmjVLGzYMG4YNs9qGDX3pioqKnAmGh78fsYqMjBAKhUdHR8yJEOv1eoVCMTIynJyUSKoP3+Xji4+Lfff2LVtOxZycnNTU3PcwraWwcb8APn90dJQhEXS1Wj04OBgRHm75ZImgoMCpqUlbiw+y0oYnxscDyeWT+fn6jI2N4fzcL+M0pjc9//GDVFdbc3R0CBuGDcOGYcP/hFKp7O3tuREUSFYIuBy7yMiI7u5nEomECUKs1+u/fv069OZNYkICqfS/H8v4PKir/fLlC1tOxVAU9fz58yByzaiv/iu8eZM56QE0Ta+srGRnZVk4WcLQNVYkEtlUmgQrbfjs7Kyi/B6pHFYel5OTky0SiZAm8cuRSfYsXVRkxML8vFarhQ3DhmHDsOF/0kSRSJSXm0M2XGpYkEdFRrQ9ffrp06frPSpE07RYLBYK+1KSk12IRsENv6TEBBYFhv/TfmVtLTEhwcIx0e8V6NqYkx5A07RUKq0oL3dzdbXwfWhsbDT3wR7YMAGWl5cTE+JJrZZcnJ0eP3p4dHQEV/glBwcHxXeJnaVzcnRob28zX+Fh2DBsGDbMdhumafri4sKQPUz8q+9gzwu+EXS/unpxYeG62rNRFLWzs/3o0cPIiHBzZMo6Ozm2NDcdHR6yq1ySQqEQCErMsTb412oSEdPT0zqdjjk3SqVSPevqCuDzLZomERjw+tWr8/Nz2DCj0Wg0XV2d/n6+RFaNdnZ/hAQHj46OMrZTJaNQqVS9vb2BAQGkluyZGembm5tm2qmEDcOGYcNst2HDVRwdHZWVlrqRa1D846V5erjn5ea8GRyUiMWWDBLrdLqTE/mHD+/vlZX5+/mao4SCPY9bkJ/P5OZz/7In0C8UBgYEWDI9oKS4+NP3phuMGsKzs7NxcbEWC5NzOXYZ6Wnzc3PMLz9i6zYskUhu375F6lAFl2NXVFh4vV1n2DVDrayspKenkcps8/H2Gh56Y6alCGwYNgwbtgIbNlzI9PR0akoy8XyJyyBxTHR0Q0P99PS0VHqg1ZrXiXU6nUwmW1hYaG9vS0tLdXdzNYfrcDl2ERHhk5OTKhYeiaFpen19PTkpyWIW6Onh3tnBxEZ9YrG48OZNUufXr7KZUFVVuWf+9liwYZOgKGp2djYqKpLUMtrN1aWvr1ehUEAUrjhDyeXyutpaUjVfHB3s73/7yh7AhmHDsGHY8L+gUCh6urtDQ4LNVIbWnsf18fZKTU15+LBhcmLiy5cvarWa+PXq9frDw8PZ2dnWlubcnGy+v5/5Dkj5+fo0NT0xDHw2jn2lUll+r8xiyRKxsTFv304xsHG3Wq1uaWkh1Qv2lz9/f7/e3l7b7L3AJhtWqVStra0EX4uY6KgVlBn+zQXJmzdvQoKDySzZOXYJCfHz8/Pm2KCEDcOGYcNWY8N6vX5vb6+qstKs5Vcd7HneXp5xsbGlAkFfb+/a2trp6SmRD4RWq/2yvz8yMlxbW5OcnOTn60O8dsTfAg23bxWtrq6yt5cYTdMDz5+TKnL/y+d++/ZtQ9oe024XTdMfPnxISIi3TJg8NiZmenraplrQsdKGxeIvWZkZpCYRHpdTX/8A5+d+d2Tu7e2lkys87OPt1dvbYw7XhA3DhmHDVmPDNE3rdLr5+fmszExz92XgcuzseVx/P9/c3JzGxsdv3rxZWlzc29uTyWQKheLi4kKj0eh0up/z62iapihKo9GoVKqzs7OTE7lUKhWJRG/fTvV0d5eVCsJCQ5ydHM3dZY3LsYuJjhodGTa8ouwd+EtLi8lJiRZoSufl6dHc3MRYGZDL5aUCgZnShJhcYw42/I+MjAwTbFsfwOe/n521zTWQKeh0uieNjV6enqQW5WVlpYZamLBh2DBsGDb8L5ejVCpfvXoVGxtj1sDqjxETVxfnkOAbGelpAkHJo0cPn3V1vRkcnJyceP/+/eLi4urqysbGukgk2tjYWFlZWVpa+vjx49u3U8PDw/3CvtaW5pr71TcL8mOio7w8PRy+hxAscAoqNDSkq6vz6OiI7edhJBIJwSpG//ILCw0dHh5m7GF6mqa7nz3j+/uZ+z7Y87iPHz9iZptG2PB/ubi4KCVacuXundtf9vdZvXS+rpG5trYWGxNDamaPioxYWlrU6XSwYdgwbBg2/O9XdHx83NPdHRYaaoGQ4eXl87gcB3ueh7tbAN8/KjIiIT4uNSUlKzMjOzuroCC/qKiwoCA/Jzs7KzMzPS01MSE+Oioy+EaQj7eXk+M3B7Zk3dwAvn9ra4tYLLaCDMCzs7OnT1v9/XzNfdOys7NWV1eZfMfm5j4mmT9M7ufrM/TmjTky5mHDJFlZWQ4PCyU1rXh6uPcLhTg/ZxxqtbqyooJUwSMXZydz6CZsGDYMG7YyG/5PS4KDgyeNjQF8f8t3rOVy7AxyfPlzdLB3dLB3cLC353Ev/9Hw3yzfSs3D3a26qmpnZ4dRRXONhqKoifHx6Kgoc1tgXV3d4eEhk++YWCwuKxWYO0yek521vrZmsyW22GHDGo2mpaWZ2PkJjl1KSvLS0hLSJIz+IE1MTBBcnGRlZmxvb5NNloANw4Zhw9ZnwwZJ2t3dram57+frcy3Sycyfp6dH8d27S4uLDCyMYPQLvLW1WZCfZ9ZMcXc314GBAYbftPPz866uzsAAvlnTJJqanjCwxhxs+C/s7+8RbM7p4uxU/6Du4OAAZYaN5suXLzdvFpCapLw8PYaGhsj2DoUNw4Zhw1Zpw4YTdaKNjcqKcl8fbwjxt2nKw10gKFlYWDDMolYz2E9PT+vq6jw9zFhIxBAaY7gMUBT17t27pMQE8xUe5vv7jY6O2GDTDTbZMEVRIyPDBCtNBgUGDA29scHGgwRRKpVtbU/9CGV0cTl29+6VkS08DBuGDcOGrdKGDZem1WrX19erKishxJ4e7mWlgqWlJStTYcPX/8WLF8E3gsxXW62x8fHXr1+ZP5Y/f/5UXGzGM4VZWZmrq6u2WU2CNTZ8enr64EGdp4c7wcaDGxvrKDNs4iT1/v1sQnwcqaVqZET4/Py8VquFDcOGYcOw4StGiLe2tmpq7vP9/Sx2qI5pP3c3V0FJ8fLSkkp1YX2Hwg1N6ZISE8204PH38x0dHdHpWBAQPTs7a2pq8vXxNlOB6traWolEYsufCRbY8NbWFsFuwM5Ojk8aG5m/FmT+JHVwcFBWKiB1lu5bY8zOToJJS7Bh2DBs2Ipt+FKIt7e3a2trggIDLNa9liE/LsfOx9urpMQKEyT+ZoHFd++Yo9oul2OXmZHOloAoRVGjo6ORkRHmWBgE8P2FQqFttqBjjQ1TFDU4+DooMIDUGxB8I2h2dgbn50xHrVYLhcIAvj+pFP6iwsKd7W2KomDDsGHYMGz4tyLELS3NsTHRlulQwIQfj8sJDQmuq61ZXl62YhU2PGKhsM8cTemcnRzr6x+QzdAz6334/Plzfl4u8W0QLscuOTnp/ftZm62txg4bVigUAkEJwVyZe2Vlhu0AyIHpg3NzczMuLpbUQiUiIvzdu7ekzvbChmHDsGGrt+FLIZZKpa9evszMzCA1apj8c3J0SEiIf/as69PursFgrHt0b29vp6elErfAoMCAFy8GmD+QL7m4uGggMaJ/TpMovntna2vLxtNHmW7DIpEoitzWgKeH+/j4uNUUoLl2lEpl+b0yUmsVN1eXjo52UskSsGHYMGzYFmzYcKV6vV6hUMzMzAgEJX6+PtaaRszl2Hl6uOfn5Y6MDB8dHRnqClv90L64uLh3r4xg7y1DcD0rM2NhYYFFVRT0ev3Y6GgU6WQJL0+P1pYWGVMbU8OG/8Po6AipvXgOxy4rK3N3dxeF1Qh+hN5OTYWFhhCrLFFWKibUpRk2DBuGDduIDV9er1qtFolETxobExMSPD3crcyJnZ0cIyLC62prFxYWzs/PbedDRtP0s2+tif0J3kwXZ6f71dWGfrQsug8SieTO7VtkO5OHh4WOj48hSvh/DH/2/f1CUocoXZydmpubj4+PoQUEOT09LSosdHIkU3g4Oytre2sLNnx6elpdXUVqR6y6uurwEDZM0ob7+vpsyoZra2pYsaAyBImlUun4+HhFRXloSDBZb7jGkHAA37/wZsHz/v79/X1DONOmRvT83FxqSjLBp8ln57kxnU7X2tri4+1F8O0qKirc2tpElJDpNjwwMODn60NqATQ1NYUFEPkVi1BIatWemBC/vr5G5CDd6uoqEfXx9vIU9vVZuIm3Uql8UEesquCTxsfHxyii8ufc3MfYmGgCNuzkODg4yPyZhKbpx48fe5rcwpPLsXvypJFFcQS9Xq9UKre3t/r7hbeKCv39fFkdJHZzdcnMSO/s7FheXj45ObHN5E6ZTFZXW0OsH+33BqhLS0usa2H9bT/27VRcbAypV9rby7O3t8fCHzjYsDG8e/eOyGFSex73zu1bOzs7KDNMHJFoIzU1xcGeRyCVJTNja2uTiA2LxeK0tFTTiy6FhYZMTEyQ7ZN3lQBAN6GdQVcX55GRYUMtUht/Ub982c/MSDf9KxIUGPjhwwfmzyQ0Tb94MXAjKND0XbXXr15ZeAiYfu06nU6pPBeJRM+ePcvJzvb18SEwR1m2aoSbq0tsTExdXe3CwvzJyYmNZAn/T7Ra7eTkREJ8nOkPkcux83B362hvZ2kXYrFYXFF+z4PEziGPy7l7B+fnWGLDEokkg0Sx4ZCQ4NevXp6dYQFEnpOTk+amJn9/PxNT+11dnBsa6qVSKZFMifPz89raGhPDq/Y87q3vu0gWDiHQNL2wsJCYYGofTh6Xk56WurO9hV2wP//8U6PRNNQ/MLHLq6uL8/3qarFYzIr7KRJtZGVmmCIQDva81JRkQ01W1kXRDIkTSqVyZWXlaWtrbm5OSPANN1cXhveuc3J0CODz09JSa2pqJiYmDg8PbdmDL5+mTCZrfPyIb9qHxlCkuaxUsLnJ1twAlUo1NjaWlJRoohc52PMiI8LHRkfZtdC1XRvWaDS9vb3hYaFGawGPywkKDGhuapJIJFgAmQOKojY2NoqL75qSoehgz0tLS52ZmSY1MnU63czMdGpKitElSHlcTlxc7PDQ0LXsIikUipbmZr6/v9FTv4M9Lyw05MXAAHbBLj+oiwsL+fl5bsYeT3RxdsrJyV5YWGBLwXKlUins64uMjDBOiHlcTnhYaF9fH0ujaJfPnaIouVy+vLwsFPZVVJSnJCf5+/kyLVTM5dh5e3nGREffKipqb2+fnZ2VSCS2UEDt6h8akWjj/v1qo1sP8rgcPt+/vPze6uoKe3sO0DR9dHTU092dEB9ndJ0NHpcTFRnR1dlpCD/hBWOBDdM0LZUeCIV96WlpRjx4L0+P7KzMnp6e/f191mUIsWhwqlSqhYWFhvr66KhIZyfH3xU4D3e3vLzc0dERufyY1MikaVqhUIyOjhYX3w0I4P/WasrwWcrPyxsaGpLL5dcyWdA0vbe319HRnpaa6uHu9ruzv4+3V25uTr9QeHh4iMnukgulcnp6uqSkOCgo8HcjK3x/P0FJ8czMNIsKlNI0fXh42N/fn5mR/rs1FtzdXNNSU7q7n4m/fKHYP3kanFihUHz+9Gl2Zqanp7uivDwxId7dzfXaQ8XOTo7RUZF3bt96+rR1fHx8Y2Pj+PhYq9Vi5P7tCWq12q2trba2p+lpqT7eXlef1e3teXy+f15ebkdH+8bGBtujoRRFSaXS0dHRysqKmOio39ruMNyKmwUFL1+8kEgk8CLW2LDhSMTZ2dnHjx+fNDaWlgpKiu9e8VdVWdnZ2bG0tKRQKBAVtsA89fXr14mJ8aYnTyrK75WUFF/lGQlKSiorK9rb21ZWVpRKJdnZ31BxaWdn5/nz53W1tQJByZXenJLi6uqqZ12d6+vrxP+k333zFQrF3Nxce1tb+ZVvaamgpKqqsrv72crKskKhwAf155WbSCR68WKgoaG+7GrzSamgpLq6qr9fuL29ZcjAZtEt1ev1p6encx8/dnV2VFdXXWUUlApKKisq2p4+/fDhg1wut6bJ05A7odVqLy4upFLp7Ozs06etZWWlaWmpwTeCvDw9XJydHL5Llvnc18Ge5+zk6O7myvf3S4iPLyy8+fjxo4mJ8c+fP5+dnWk0GsMNx7D9pyXNycnJ3MePPd3ddXW1v1aCkuLy8nsN9fX9/f3r62vWkX5teI3VarVYLJ6cnGhtbbnK0BaUFFeUlzc0NPT394tEIpsq0mclNnw5BpRKpVQqFV8ZuVyuVqsxs1jsGRlOrlxcXMhkMolEcpVndCCRmPUxXX78Tk9Pr/jySCSSk5MTtVptmCmu980xvPlqtfro6OiKr/3BwcHJyQm+qb98Jc7Pzw8PD69yS6VS6enpqUajYcIrYfRbpNVq5XL5wcHBVYbA8fGxSqWy1lfoMqWYoiiDFi/Mz7969bKlpbmiovxmQX5yUlJ4eFhQUKCvr4+Hu5uTk6NxW/Ncjp2DPc/Vxdnby5Pv7xcWGhIXG5OdlVVSUvzo4cO+vt6ZmemdnZ2zszOdTnf5dmHM/vLZGd7ns7OzXw5hiUTy9evX8/NzrVZrZe+z4R3W6XQqleoqQ9swri8uLi63HfCmsc+G/zaFXRE8bDymH/+kq/9VTHtz8OZf+121jltqa9f7W3al0WgUCsX+/v7a2urMzPTr1696enqam5pqa2pKSwVFhYXZWVmpKSkJCfExMdGREeFhoSGhIcF/+YWGREaEx0RHxcXGJicnZWZkFBTk3717p6Ki/NGjR21tbS9fvpyamlpcXNzZ2ZHJZGr1t/UGBqy5h7DVrzGuPpVhuWUlNgwAAACYVSkoijLscSkUCplMJhaLP3/+vL29vbq6Ovfx4/T09MTE+Mjw8ODg69evX/34GxwcHBkZHh8fm5qaev/+/fLy8ubm5u7u7v7+vlQqPT4+ViqVhgglDBgA2DAAAADAdDP+W8jNsDuv1Wo1Go36H9B8R6vV6r5jEF+E5QCADQMAAABWpchXB/cNANgwAAAAAAAAsGEAAAAAAABgwwAAAAAAAMCGAQAAAAAAgA0DAAAAAAAAGwYAAAAAAAA2DAAAAAAAAGwYAAAAAAAA2DAAAAAAAACwYQAAAAAAAGDDAAAAAAAAwIYBAAAAAACADQMAAAAAAAAbBgAAAAAAADYMAAAAAAAAbBgAAAAAAADYMAAAAAAAALBhAAAAAAAAYMMAAAAAAADAhgEAAAAAAIANAwAAAAAA2DAAAAAAAACwYQAAAAAAAGDDAAAAAAAAwIYBAAAAAACADQMAAAAAAAAbBgAAAAAAADYMAAAAAAAAbBgAAAAAAADYMAAAAAAAALBhAAAAAAAAYMMAAAAAAADAhgEAAAAAAIANAwAAAAAAABsGAAAAAAAANgwAAAAAAABsGAAAAAAAANgwAAAAAAAA18T/A24mza+DIJRdAAAAAElFTkSuQmCC;" vertex="1" parent="1">
          <mxGeometry x="78.5" y="270" width="103" height="103" as="geometry" />
        </mxCell>
        <mxCell id="WArYapITyBmNxevfJg8--5" value="Get data" style="rounded=1;whiteSpace=wrap;html=1;" vertex="1" parent="1">
          <mxGeometry x="82.31" y="140" width="95.38" height="50" as="geometry" />
        </mxCell>
        <mxCell id="WArYapITyBmNxevfJg8--6" value="" style="rounded=0;whiteSpace=wrap;html=1;" vertex="1" parent="1">
          <mxGeometry x="260" y="120" width="120" height="170" as="geometry" />
        </mxCell>
        <mxCell id="WArYapITyBmNxevfJg8--7" value="Storage Layer" style="text;html=1;align=center;verticalAlign=middle;resizable=0;points=[];autosize=1;strokeColor=none;fillColor=none;" vertex="1" parent="1">
          <mxGeometry x="270" y="90" width="100" height="30" as="geometry" />
        </mxCell>
        <mxCell id="WArYapITyBmNxevfJg8--9" value="Fetch pageview" style="rounded=1;whiteSpace=wrap;html=1;" vertex="1" parent="1">
          <mxGeometry x="272.31" y="140" width="95.38" height="50" as="geometry" />
        </mxCell>
        <mxCell id="WArYapITyBmNxevfJg8--10" value="" style="shape=image;verticalLabelPosition=bottom;labelBackgroundColor=default;verticalAlign=top;aspect=fixed;imageAspect=0;image=https://user-images.githubusercontent.com/81221395/146988241-e9b117b4-745a-4d71-bc41-752e6f04f2b2.png;" vertex="1" parent="1">
          <mxGeometry x="266.5" y="200" width="107" height="88.79" as="geometry" />
        </mxCell>
        <mxCell id="WArYapITyBmNxevfJg8--11" style="edgeStyle=orthogonalEdgeStyle;rounded=0;orthogonalLoop=1;jettySize=auto;html=1;exitX=1;exitY=0.5;exitDx=0;exitDy=0;entryX=0;entryY=0.5;entryDx=0;entryDy=0;" edge="1" parent="1" source="WArYapITyBmNxevfJg8--5" target="WArYapITyBmNxevfJg8--9">
          <mxGeometry relative="1" as="geometry" />
        </mxCell>
        <mxCell id="WArYapITyBmNxevfJg8--12" value="" style="rounded=0;whiteSpace=wrap;html=1;" vertex="1" parent="1">
          <mxGeometry x="450" y="120" width="120" height="170" as="geometry" />
        </mxCell>
        <mxCell id="WArYapITyBmNxevfJg8--13" value="Business Layer" style="text;html=1;align=center;verticalAlign=middle;resizable=0;points=[];autosize=1;strokeColor=none;fillColor=none;" vertex="1" parent="1">
          <mxGeometry x="455" y="90" width="110" height="30" as="geometry" />
        </mxCell>
        <mxCell id="WArYapITyBmNxevfJg8--14" value="" style="shape=image;verticalLabelPosition=bottom;labelBackgroundColor=default;verticalAlign=top;aspect=fixed;imageAspect=0;image=https://download.logo.wine/logo/DBeaver/DBeaver-Logo.wine.png;" vertex="1" parent="1">
          <mxGeometry x="440.5" y="200" width="139" height="92.67" as="geometry" />
        </mxCell>
        <mxCell id="WArYapITyBmNxevfJg8--15" value="Write to posetgres" style="rounded=1;whiteSpace=wrap;html=1;" vertex="1" parent="1">
          <mxGeometry x="462.31" y="140" width="95.38" height="50" as="geometry" />
        </mxCell>
        <mxCell id="WArYapITyBmNxevfJg8--16" style="edgeStyle=orthogonalEdgeStyle;rounded=0;orthogonalLoop=1;jettySize=auto;html=1;exitX=1;exitY=0.5;exitDx=0;exitDy=0;entryX=0;entryY=0.5;entryDx=0;entryDy=0;" edge="1" parent="1" source="WArYapITyBmNxevfJg8--9" target="WArYapITyBmNxevfJg8--15">
          <mxGeometry relative="1" as="geometry" />
        </mxCell>
      </root>
    </mxGraphModel>
  </diagram>
</mxfile>
